SplineFontDB: 3.2
FontName: Sawasdee-Oblique
FullName: Sawasdee Oblique
FamilyName: Sawasdee
Weight: Regular
Copyright: Copyright (c) 2007 Pol Udomwittayanukul. All rights reserved.
Version: 003.004
ItalicAngle: -12
UnderlinePosition: -153
UnderlineWidth: 102
Ascent: 1536
Descent: 512
InvalidEm: 0
LayerCount: 3
Layer: 0 0 "Back" 1
Layer: 1 0 "Fore" 0
Layer: 2 1 "Quad" 0
XUID: [1021 180 1442959360 14105407]
UniqueID: 4256560
FSType: 8
OS2Version: 4
OS2_WeightWidthSlopeOnly: 0
OS2_UseTypoMetrics: 1
CreationTime: 1178430034
ModificationTime: 1587961558
PfmFamily: 17
TTFWeight: 400
TTFWidth: 5
LineGap: 0
VLineGap: 0
OS2TypoAscent: 2368
OS2TypoAOffset: 0
OS2TypoDescent: -848
OS2TypoDOffset: 0
OS2TypoLinegap: 0
OS2WinAscent: 0
OS2WinAOffset: 1
OS2WinDescent: 0
OS2WinDOffset: 1
HheadAscent: 2368
HheadAOffset: 0
HheadDescent: -848
HheadDOffset: 0
OS2Vendor: 'PfEd'
Lookup: 4 0 1 "'liga' Standard Ligatures in Latin lookup 0" { "'liga' Standard Ligatures in Latin lookup 0"  } ['liga' ('latn' <'dflt' > ) ]
Lookup: 4 0 0 "'frac' Diagonal Fractions in Latin lookup 42" { "'frac' Diagonal Fractions in Latin lookup 42"  } ['frac' ('latn' <'dflt' > ) ]
Lookup: 6 0 0 "'ccmp' Thai Tone Tilde Reordering" { "'ccmp' Thai Tone Tilde Reordering"  } ['ccmp' ('DFLT' <'dflt' > 'latn' <'dflt' > 'thai' <'KUY ' 'MLY ' 'PAL ' 'SAN ' 'THA ' 'dflt' > ) ]
Lookup: 6 0 0 "'ccmp' Thai Tone Macron Reordering" { "'ccmp' Thai Tone Macron Reordering"  } ['ccmp' ('DFLT' <'dflt' > 'latn' <'dflt' > 'thai' <'KUY ' 'MLY ' 'PAL ' 'SAN ' 'THA ' 'dflt' > ) ]
Lookup: 6 0 0 "'ccmp' Thai Below Vowel Macron Reordering" { "'ccmp' Thai Below Vowel Macron Reordering"  } ['ccmp' ('DFLT' <'dflt' > 'latn' <'dflt' > 'thai' <'KUY ' 'MLY ' 'PAL ' 'SAN ' 'THA ' 'dflt' > ) ]
Lookup: 4 0 0 "'ccmp' Patani Malay Ligatures" { "'ccmp' Patani Malay Ligatures"  } ['ccmp' ('DFLT' <'dflt' > 'thai' <'KUY ' 'MLY ' 'PAL ' 'SAN ' 'THA ' 'dflt' > ) ]

StartChar: exclam
Encoding: 33 33 1
Width: 498
VWidth: 2982
Flags: W
HStem: -15 167<198.177 332> 1473 20G<504.242 626>
VStem: 179 173<6.04936 131.986>
LayerCount: 3
Fore
SplineSet
338 269 m 1
 278 269 l 1
 508 1493 l 1
 626 1493 l 1
 338 269 l 1
179 54 m 0
 179 111 237 152 282 152 c 0
 322 152 352 124 352 85 c 0
 352 27 293 -15 248 -15 c 0
 208 -15 179 15 179 54 c 0
EndSplineSet
Validated: 1
Layer: 2
SplineSet
338 269 m 1,0,-1
 278 269 l 1,1,-1
 508 1493 l 1,2,-1
 626 1493 l 1,3,-1
 338 269 l 1,0,-1
179 54 m 0,4,5
 179 94 179 94 212.5 123 c 128,-1,6
 246 152 246 152 282 152 c 0,7,8
 312 152 312 152 332 133 c 128,-1,9
 352 114 352 114 352 85 c 0,10,11
 352 44 352 44 318 14.5 c 128,-1,12
 284 -15 284 -15 248 -15 c 0,13,14
 218 -15 218 -15 198.5 5 c 128,-1,15
 179 25 179 25 179 54 c 0,4,5
EndSplineSet
EndChar

StartChar: quotedbl
Encoding: 34 34 2
Width: 690
VWidth: 2982
Flags: W
HStem: 1164 387<497 504 737 743>
VStem: 446 409
LayerCount: 3
Fore
SplineSet
504 1164 m 1
 446 1164 l 1
 497 1551 l 1
 615 1551 l 1
 504 1164 l 1
743 1164 m 1
 683 1164 l 1
 737 1551 l 1
 855 1551 l 1
 743 1164 l 1
EndSplineSet
Validated: 1
Layer: 2
SplineSet
504 1164 m 1,0,-1
 446 1164 l 1,1,-1
 497 1551 l 1,2,-1
 615 1551 l 1,3,-1
 504 1164 l 1,0,-1
743 1164 m 1,4,-1
 683 1164 l 1,5,-1
 737 1551 l 1,6,-1
 855 1551 l 1,7,-1
 743 1164 l 1,4,-1
EndSplineSet
EndChar

StartChar: numbersign
Encoding: 35 35 3
Width: 1066
VWidth: 2982
Flags: W
HStem: 0 21G<105 206.028 521 620.114> 463 90<116 314 444 732 859 1063> 940 90<320 528 660 942 1079 1269> 1473 20G<767.972 869 1186.89 1288>
DStem2: 105 0 197 0 0.410441 0.911887<37.7606 507.986 643.413 1030.79 1167.04 1637.26> 521 0 611 0 0.412975 0.910742<37.1678 508.811 643.226 1029.96 1168.5 1638.5>
LayerCount: 3
Fore
SplineSet
611 0 m 1
 521 0 l 1
 732 463 l 1
 406 463 l 1
 197 0 l 1
 105 0 l 1
 314 463 l 1
 98 463 l 1
 116 553 l 1
 354 553 l 1
 528 940 l 1
 302 940 l 1
 320 1030 l 1
 568 1030 l 1
 777 1493 l 1
 869 1493 l 1
 660 1030 l 1
 985 1030 l 1
 1196 1493 l 1
 1288 1493 l 1
 1079 1030 l 1
 1288 1030 l 1
 1269 940 l 1
 1036 940 l 1
 859 553 l 1
 1081 553 l 1
 1063 463 l 1
 822 463 l 1
 611 0 l 1
444 553 m 1
 767 553 l 1
 942 940 l 1
 618 940 l 1
 444 553 l 1
EndSplineSet
Validated: 1
Layer: 2
SplineSet
611 0 m 1,0,-1
 521 0 l 1,1,-1
 732 463 l 1,2,-1
 406 463 l 1,3,-1
 197 0 l 1,4,-1
 105 0 l 1,5,-1
 314 463 l 1,6,-1
 98 463 l 1,7,-1
 116 553 l 1,8,-1
 354 553 l 1,9,-1
 528 940 l 1,10,-1
 302 940 l 1,11,-1
 320 1030 l 1,12,-1
 568 1030 l 1,13,-1
 777 1493 l 1,14,-1
 869 1493 l 1,15,-1
 660 1030 l 1,16,-1
 985 1030 l 1,17,-1
 1196 1493 l 1,18,-1
 1288 1493 l 1,19,-1
 1079 1030 l 1,20,-1
 1288 1030 l 1,21,-1
 1269 940 l 1,22,-1
 1036 940 l 1,23,-1
 859 553 l 1,24,-1
 1081 553 l 1,25,-1
 1063 463 l 1,26,-1
 822 463 l 1,27,-1
 611 0 l 1,0,-1
444 553 m 1,28,-1
 767 553 l 1,29,-1
 942 940 l 1,30,-1
 618 940 l 1,31,-1
 444 553 l 1,28,-1
EndSplineSet
EndChar

StartChar: dollar
Encoding: 36 36 4
Width: 1179
VWidth: 2982
Flags: W
HStem: -27 91<432.697 544 654 774.365> 1198 21G<1128 1200.57> 1403 99<726.805 848 959 1054.16>
VStem: 208 91<199.179 414> 477 91<993.627 1242.72> 1063 97<326.112 616.705> 1137 89<1221.49 1317.04>
DStem2: 517 -150 609 -150 0.207912 0.978148<19.1279 125.926 237.807 952.096 1075.58 1587.88 1707.8 1825.98>
LayerCount: 3
Fore
SplineSet
609 -150 m 1xfc
 517 -150 l 1
 544 -27 l 1
 361 -11 208 109 208 363 c 0
 208 378 208 396 211 414 c 1
 302 427 l 1
 299 412 299 396 299 383 c 0
 299 175 419 81 564 64 c 1
 720 806 l 1
 593 869 477 940 477 1088 c 0
 477 1265 634 1480 869 1502 c 1
 897 1636 l 1
 987 1636 l 1
 959 1502 l 1
 1092 1484 1207 1390 1226 1226 c 1
 1137 1198 l 1xfa
 1119 1325 1038 1395 942 1412 c 1
 826 869 l 1
 985 795 1160 716 1160 515 c 0
 1160 278 944 17 638 -15 c 1
 609 -150 l 1xfc
654 64 m 1
 904 101 1063 312 1063 485 c 0xfc
 1063 634 938 701 801 763 c 1
 654 64 l 1
848 1403 m 1
 660 1379 568 1209 568 1104 c 0
 568 1008 645 951 741 902 c 1
 848 1403 l 1
EndSplineSet
Validated: 1
Layer: 2
SplineSet
609 -150 m 1,0,-1
 517 -150 l 1,1,-1
 544 -27 l 1,2,3
 474 -21 474 -21 414 5.5 c 128,-1,4
 354 32 354 32 307.5 78.5 c 128,-1,5
 261 125 261 125 234.5 198 c 128,-1,6
 208 271 208 271 208 363 c 0,7,8
 208 396 208 396 211 414 c 1,9,-1
 302 427 l 1,10,11
 299 412 299 412 299 383 c 0,12,13
 299 236 299 236 372.5 157 c 128,-1,14
 446 78 446 78 564 64 c 1,15,-1
 720 806 l 1,16,17
 676 828 676 828 645.5 845.5 c 128,-1,18
 615 863 615 863 580.5 889.5 c 128,-1,19
 546 916 546 916 525.5 943 c 128,-1,20
 505 970 505 970 491 1007.5 c 128,-1,21
 477 1045 477 1045 477 1088 c 0,22,23
 477 1155 477 1155 505.5 1224.5 c 128,-1,24
 534 1294 534 1294 584 1353 c 128,-1,25
 634 1412 634 1412 709 1453 c 128,-1,26
 784 1494 784 1494 869 1502 c 1,27,-1
 897 1636 l 1,28,-1
 987 1636 l 1,29,-1
 959 1502 l 1,30,31
 1064 1488 1064 1488 1138 1416 c 128,-1,32
 1212 1344 1212 1344 1226 1226 c 1,33,-1
 1137 1198 l 1,34,35
 1124 1289 1124 1289 1071 1344 c 128,-1,36
 1018 1399 1018 1399 942 1412 c 1,37,-1
 826 869 l 1,38,39
 971.883814908 801.10438803 971.883814908 801.10438803 1030.33037189 757.385494014 c 0,40,41
 1159.42165007 659.442855443 1159.42165007 659.442855443 1160 515 c 0,42,43
 1160 396 1160 396 1094.5 280.5 c 128,-1,44
 1029 165 1029 165 907.5 82.5 c 128,-1,45
 786 0 786 0 638 -15 c 1,46,-1
 609 -150 l 1,0,-1
654 64 m 1,47,48
 774 82 774 82 869.5 150.5 c 128,-1,49
 965 219 965 219 1014 308 c 128,-1,50
 1063 397 1063 397 1063 485 c 0,51,52
 1063 538 1063 538 1043 581 c 128,-1,53
 1023 624 1023 624 981.5 657.5 c 128,-1,54
 940 691 940 691 901.5 713 c 128,-1,55
 863 735 863 735 801 763 c 1,56,-1
 654 64 l 1,47,48
848 1403 m 1,57,58
 781 1394 781 1394 725.5 1361 c 128,-1,59
 670 1328 670 1328 637 1283.5 c 128,-1,60
 604 1239 604 1239 586 1192 c 128,-1,61
 568 1145 568 1145 568 1104 c 0,62,63
 568 1038 568 1038 613 991 c 128,-1,64
 658 944 658 944 741 902 c 1,65,-1
 848 1403 l 1,57,58
EndSplineSet
EndChar

StartChar: percent
Encoding: 37 37 5
Width: 1568
VWidth: 2982
Flags: W
HStem: -17 91<1053.91 1306.64> 0 21G<199 330.433> 474 92<1121.37 1372.89> 920 92<513.164 766.003> 1412 92<581.185 832.211>
VStem: 374 92<1057.5 1296.22> 880 92<1124.78 1363.77> 914 92<121.531 363.171> 1421 92<186.026 428.188>
DStem2: 199 0 312 0 0.677973 0.735087<76.611 2031.05>
LayerCount: 3
Fore
SplineSet
914 215 m 0xbd80
 914 385 1079 566 1276 566 c 0
 1417 566 1513 468 1513 336 c 0
 1513 166 1345 -17 1151 -17 c 0
 1010 -17 914 83 914 215 c 0xbd80
1256 474 m 0
 1132 474 1006 363 1006 235 c 0
 1006 143 1070 74 1171 74 c 0
 1314 74 1421 205 1421 316 c 0
 1421 406 1356 474 1256 474 c 0
374 1149 m 0
 374 1327 544 1504 734 1504 c 0
 875 1504 972 1403 972 1271 c 0x3e80
 972 1097 806 920 611 920 c 0
 472 920 374 1019 374 1149 c 0
714 1412 m 0
 589 1412 466 1298 466 1168 c 0
 466 1079 532 1012 628 1012 c 0
 750 1012 880 1117 880 1254 c 0
 880 1345 812 1412 714 1412 c 0
1576 1493 m 1
 1688 1493 l 1
 312 0 l 1
 199 0 l 1x7c80
 1576 1493 l 1
EndSplineSet
Validated: 1
Layer: 2
SplineSet
914 215 m 0,0,1
 914 346 914 346 1023 456 c 128,-1,2
 1132 566 1132 566 1276 566 c 0,3,4
 1381 566 1381 566 1447 501 c 128,-1,5
 1513 436 1513 436 1513 336 c 0,6,7
 1513 252 1513 252 1463.5 170 c 128,-1,8
 1414 88 1414 88 1329.5 35.5 c 128,-1,9
 1245 -17 1245 -17 1151 -17 c 0,10,11
 1046 -17 1046 -17 980 49 c 128,-1,12
 914 115 914 115 914 215 c 0,0,1
1256 474 m 0,13,14
 1161 474 1161 474 1083.5 401.5 c 128,-1,15
 1006 329 1006 329 1006 235 c 0,16,17
 1006 165 1006 165 1051 119.5 c 128,-1,18
 1096 74 1096 74 1171 74 c 0,19,20
 1274 74 1274 74 1347.5 151 c 128,-1,21
 1421 228 1421 228 1421 316 c 0,22,23
 1421 385 1421 385 1375.5 429.5 c 128,-1,24
 1330 474 1330 474 1256 474 c 0,13,14
374 1149 m 0,25,26
 374 1284 374 1284 483.5 1394 c 128,-1,27
 593 1504 593 1504 734 1504 c 0,28,29
 839 1504 839 1504 905.5 1437.5 c 128,-1,30
 972 1371 972 1371 972 1271 c 0,31,32
 972 1185 972 1185 923 1104 c 128,-1,33
 874 1023 874 1023 790 971.5 c 128,-1,34
 706 920 706 920 611 920 c 0,35,36
 508 920 508 920 441 985.5 c 128,-1,37
 374 1051 374 1051 374 1149 c 0,25,26
714 1412 m 0,38,39
 619 1412 619 1412 542.5 1338 c 128,-1,40
 466 1264 466 1264 466 1168 c 0,41,42
 466 1101 466 1101 511.5 1056.5 c 128,-1,43
 557 1012 557 1012 628 1012 c 0,44,45
 723 1012 723 1012 801.5 1083.5 c 128,-1,46
 880 1155 880 1155 880 1254 c 0,47,48
 880 1323 880 1323 833.5 1367.5 c 128,-1,49
 787 1412 787 1412 714 1412 c 0,38,39
1576 1493 m 1,50,-1
 1688 1493 l 1,51,-1
 312 0 l 1,52,-1
 199 0 l 1,53,-1
 1576 1493 l 1,50,-1
EndSplineSet
EndChar

StartChar: ampersand
Encoding: 38 38 6
Width: 1354
VWidth: 2982
Flags: W
HStem: -15 87<514.324 908.296> 0 21G<1198.75 1318> 1424 89<878.089 1157.65>
VStem: 226 90<261.409 640.104> 673 94<1039.11 1315.82> 1209 92<1191 1374.53> 1269 94<405.956 534>
DStem2: 797 1041 720 967 0.447557 -0.894255<28.3113 820.637 937.769 1115.31>
LayerCount: 3
Fore
SplineSet
1027 1424 m 0xbc
 884 1424 767 1323 767 1175 c 0
 767 1135 775 1090 797 1041 c 1
 1164 307 l 1
 1218 376 1251 450 1269 534 c 1
 1363 534 l 1xba
 1341 421 1283 316 1204 231 c 1
 1318 0 l 1
 1209 0 l 1x7c
 1128 158 l 1
 1006 51 844 -15 683 -15 c 0
 412 -15 226 175 226 425 c 0
 226 662 396 938 692 1047 c 1
 681 1083 673 1121 673 1155 c 0
 673 1341 828 1513 1047 1513 c 0
 1186 1513 1301 1435 1301 1276 c 0
 1301 1249 1298 1222 1292 1191 c 1
 1202 1191 l 1
 1207 1215 1209 1235 1209 1256 c 0
 1209 1377 1119 1424 1027 1424 c 0xbc
720 967 m 1
 544 906 316 712 316 440 c 0
 316 231 472 72 701 72 c 0
 844 72 987 134 1092 231 c 1
 720 967 l 1
EndSplineSet
Validated: 1
Layer: 2
SplineSet
1027 1424 m 0,0,1
 918 1424 918 1424 842.5 1354 c 128,-1,2
 767 1284 767 1284 767 1175 c 0,3,4
 767 1108 767 1108 797 1041 c 2,5,-1
 1164 307 l 1,6,7
 1242 406 1242 406 1269 534 c 1,8,-1
 1363 534 l 1,9,10
 1331 367 1331 367 1204 231 c 1,11,-1
 1318 0 l 1,12,-1
 1209 0 l 1,13,-1
 1128 158 l 1,14,15
 1035 77 1035 77 918.5 31 c 128,-1,16
 802 -15 802 -15 683 -15 c 0,17,18
 482 -15 482 -15 354 110.5 c 128,-1,19
 226 236 226 236 226 425 c 0,20,21
 226 612 226 612 352.5 790 c 128,-1,22
 479 968 479 968 692 1047 c 1,23,24
 673 1109 673 1109 673 1155 c 0,25,26
 673 1299 673 1299 780 1406 c 128,-1,27
 887 1513 887 1513 1047 1513 c 0,28,29
 1157 1513 1157 1513 1229 1451.5 c 128,-1,30
 1301 1390 1301 1390 1301 1276 c 0,31,32
 1301 1238 1301 1238 1292 1191 c 1,33,-1
 1202 1191 l 1,34,35
 1209 1225 1209 1225 1209 1256 c 0,36,37
 1209 1341 1209 1341 1156.5 1382.5 c 128,-1,38
 1104 1424 1104 1424 1027 1424 c 0,0,1
720 967 m 1,39,40
 651 943 651 943 582 896 c 128,-1,41
 513 849 513 849 452.5 783.5 c 128,-1,42
 392 718 392 718 354 627.5 c 128,-1,43
 316 537 316 537 316 440 c 0,44,45
 316 281 316 281 423.5 176.5 c 128,-1,46
 531 72 531 72 701 72 c 0,47,48
 807 72 807 72 909.5 114.5 c 128,-1,49
 1012 157 1012 157 1092 231 c 1,50,-1
 720 967 l 1,39,40
EndSplineSet
EndChar

StartChar: quoteright
Encoding: 8217 8217 7
Width: 523
VWidth: 2982
Flags: W
HStem: 1305 201<454.836 530>
VStem: 423 228<1317.04 1471.88>
LayerCount: 3
Fore
SplineSet
423 1386 m 0
 423 1455 495 1506 551 1506 c 0
 600 1506 651 1476 651 1403 c 0
 651 1339 598 1191 430 1077 c 1
 354 1077 l 1
 438 1135 517 1238 530 1307 c 1
 524 1305 515 1305 508 1305 c 0
 459 1305 423 1341 423 1386 c 0
EndSplineSet
Validated: 1
Layer: 2
SplineSet
423 1386 m 0,0,1
 423 1435 423 1435 464.5 1470.5 c 128,-1,2
 506 1506 506 1506 551 1506 c 0,3,4
 592 1506 592 1506 621.5 1480 c 128,-1,5
 651 1454 651 1454 651 1403 c 0,6,7
 651 1366 651 1366 632.5 1316 c 128,-1,8
 614 1266 614 1266 561 1198 c 128,-1,9
 508 1130 508 1130 430 1077 c 1,10,-1
 354 1077 l 1,11,12
 417 1121 417 1121 468.5 1188 c 128,-1,13
 520 1255 520 1255 530 1307 c 1,14,15
 524 1305 524 1305 508 1305 c 0,16,17
 472 1305 472 1305 447.5 1328.5 c 128,-1,18
 423 1352 423 1352 423 1386 c 0,0,1
EndSplineSet
EndChar

StartChar: parenleft
Encoding: 40 40 8
Width: 487
VWidth: 2982
Flags: W
VStem: 224 92<-139.963 631.92>
LayerCount: 3
Fore
SplineSet
224 280 m 0
 224 850 474 1290 687 1574 c 1
 754 1574 l 1
 524 1222 316 756 316 213 c 0
 316 54 333 -107 369 -269 c 1
 299 -269 l 1
 250 -85 224 98 224 280 c 0
EndSplineSet
Validated: 1
Layer: 2
SplineSet
224 280 m 0,0,1
 224 957 224 957 687 1574 c 1,2,-1
 754 1574 l 1,3,4
 316 904 316 904 316 213 c 0,5,6
 316 -30 316 -30 369 -269 c 1,7,-1
 299 -269 l 1,8,9
 224 13 224 13 224 280 c 0,0,1
EndSplineSet
EndChar

StartChar: parenright
Encoding: 41 41 9
Width: 457
VWidth: 2982
Flags: W
VStem: 457 96<697.564 1437.71>
LayerCount: 3
Fore
SplineSet
4 -269 m 1
 226 78 457 562 457 1115 c 0
 457 1269 438 1421 403 1574 c 1
 472 1574 l 1
 526 1403 553 1231 553 1057 c 0
 553 894 542 400 74 -269 c 1
 4 -269 l 1
EndSplineSet
Validated: 1
Layer: 2
SplineSet
4 -269 m 1,0,1
 457 439 457 439 457 1115 c 0,2,3
 457 1338 457 1338 403 1574 c 1,4,-1
 472 1574 l 1,5,6
 553 1317 553 1317 553 1057 c 0,7,8
 553 416 553 416 74 -269 c 1,9,-1
 4 -269 l 1,0,1
EndSplineSet
EndChar

StartChar: asterisk
Encoding: 42 42 10
Width: 910
VWidth: 2982
Flags: W
HStem: 1224 542
VStem: 491 577
DStem2: 530 1612 491 1525 0.968777 -0.247933<0 194.536> 519 1273 581 1224 0.657189 0.753726<3.81319 269.329> 670.006 1224 764.006 1224 0.207912 0.978148<361.005 553.857> 844 1476 759 1424 0.412789 -0.910827<12.276 222.874> 835 1558 844 1476 0.974179 0.225775<0 221.482>
LayerCount: 3
Fore
SplineSet
784 1766 m 1
 880 1766 l 1
 835 1558 l 1
 1068 1612 l 1
 1070 1525 l 1
 844 1476 l 1
 936 1273 l 1
 850 1224 l 1
 759 1424 l 1
 581 1224 l 1
 519 1273 l 1
 696 1476 l 1
 491 1525 l 1
 530 1612 l 1
 741 1558 l 1
 784 1766 l 1
EndSplineSet
Validated: 1
Layer: 2
SplineSet
784 1766 m 1,0,-1
 880 1766 l 1,1,-1
 835 1558 l 1,2,-1
 1068 1612 l 1,3,-1
 1070 1525 l 1,4,-1
 844 1476 l 1,5,-1
 936 1273 l 1,6,-1
 850 1224 l 1,7,-1
 759 1424 l 1,8,-1
 581 1224 l 1,9,-1
 519 1273 l 1,10,-1
 696 1476 l 1,11,-1
 491 1525 l 1,12,-1
 530 1612 l 1,13,-1
 741 1558 l 1,14,-1
 784 1766 l 1,0,-1
EndSplineSet
EndChar

StartChar: plus
Encoding: 43 43 11
Width: 1036
VWidth: 2982
Flags: W
HStem: 701 89<291 624 732 1066>
DStem2: 549 349 638 349 0.207912 0.978148<18.5041 359.901 469.411 812.764>
LayerCount: 3
Fore
SplineSet
638 349 m 1
 549 349 l 1
 624 701 l 1
 271 701 l 1
 291 790 l 1
 643 790 l 1
 718 1144 l 1
 808 1144 l 1
 732 790 l 1
 1083 790 l 1
 1066 701 l 1
 714 701 l 1
 638 349 l 1
EndSplineSet
Validated: 1
Layer: 2
SplineSet
638 349 m 1,0,-1
 549 349 l 1,1,-1
 624 701 l 1,2,-1
 271 701 l 1,3,-1
 291 790 l 1,4,-1
 643 790 l 1,5,-1
 718 1144 l 1,6,-1
 808 1144 l 1,7,-1
 732 790 l 1,8,-1
 1083 790 l 1,9,-1
 1066 701 l 1,10,-1
 714 701 l 1,11,-1
 638 349 l 1,0,-1
EndSplineSet
EndChar

StartChar: comma
Encoding: 44 44 12
Width: 523
VWidth: 2982
Flags: W
HStem: -15 167<198.177 294.207>
VStem: 179 190<2.13867 131.986>
LayerCount: 3
Fore
SplineSet
179 54 m 0
 179 111 237 152 282 152 c 0
 325 152 369 126 369 62 c 0
 369 -101 161 -242 161 -242 c 1
 116 -242 l 1
 186 -195 280 -74 295 0 c 1
 278 -11 267 -15 248 -15 c 0
 208 -15 179 15 179 54 c 0
EndSplineSet
Validated: 1
Layer: 2
SplineSet
179 54 m 0,0,1
 179 94 179 94 212.5 123 c 128,-1,2
 246 152 246 152 282 152 c 128,-1,3
 318 152 318 152 343.5 129.5 c 128,-1,4
 369 107 369 107 369 62 c 0,5,6
 369 16 369 16 347.5 -32 c 128,-1,7
 326 -80 326 -80 295.5 -116 c 128,-1,8
 265 -152 265 -152 234.5 -181.5 c 128,-1,9
 204 -211 204 -211 182.5 -226.5 c 2,10,-1
 161 -242 l 1,11,-1
 116 -242 l 1,12,13
 170 -206 170 -206 227 -130 c 128,-1,14
 284 -54 284 -54 295 0 c 1,15,16
 272 -15 272 -15 248 -15 c 0,17,18
 218 -15 218 -15 198.5 5 c 128,-1,19
 179 25 179 25 179 54 c 0,0,1
EndSplineSet
EndChar

StartChar: hyphen
Encoding: 45 45 13
Width: 856
VWidth: 2982
Flags: W
HStem: 553 90<260 855>
VStem: 239 634
LayerCount: 3
Fore
SplineSet
873 643 m 5
 855 553 l 5
 239 553 l 5
 260 643 l 5
 873 643 l 5
EndSplineSet
Validated: 1
Layer: 2
SplineSet
873 643 m 5,0,-1
 855 553 l 1,1,-1
 239 553 l 1,2,-1
 260 643 l 1,3,-1
 873 643 l 5,0,-1
EndSplineSet
EndChar

StartChar: period
Encoding: 46 46 14
Width: 498
VWidth: 2982
Flags: W
HStem: -15 167<198.177 332>
VStem: 179 173<6.04936 131.986>
LayerCount: 3
Fore
SplineSet
179 54 m 0
 179 111 237 152 282 152 c 0
 322 152 352 124 352 85 c 0
 352 27 293 -15 248 -15 c 0
 208 -15 179 15 179 54 c 0
EndSplineSet
Validated: 1
Layer: 2
SplineSet
179 54 m 0,0,1
 179 94 179 94 212.5 123 c 128,-1,2
 246 152 246 152 282 152 c 0,3,4
 312 152 312 152 332 133 c 128,-1,5
 352 114 352 114 352 85 c 0,6,7
 352 44 352 44 318 14.5 c 128,-1,8
 284 -15 284 -15 248 -15 c 0,9,10
 218 -15 218 -15 198.5 5 c 128,-1,11
 179 25 179 25 179 54 c 0,0,1
EndSplineSet
EndChar

StartChar: slash
Encoding: 47 47 15
Width: 1168
VWidth: 2982
Flags: W
HStem: 0 21G<0 127.446> 1473 20G<1358.55 1486>
DStem2: 0 0 109 0 0.677973 0.735087<73.8991 2031.05>
LayerCount: 3
Fore
SplineSet
1377 1493 m 1
 1486 1493 l 1
 109 0 l 1
 0 0 l 1
 1377 1493 l 1
EndSplineSet
Validated: 1
Layer: 2
SplineSet
1377 1493 m 1,0,-1
 1486 1493 l 1,1,-1
 109 0 l 1,2,-1
 0 0 l 1,3,-1
 1377 1493 l 1,0,-1
EndSplineSet
EndChar

StartChar: zero
Encoding: 48 48 16
Width: 1192
VWidth: 2982
Flags: W
HStem: -15 89<484.485 757.713> 1417 89<750.349 1026.51>
VStem: 233 92<275.749 816.664> 1186 92<681.489 1216.07>
LayerCount: 3
Fore
SplineSet
1278 985 m 0
 1278 502 940 -15 593 -15 c 0
 363 -15 233 213 233 508 c 0
 233 969 555 1506 918 1506 c 0
 1149 1506 1278 1278 1278 985 c 0
897 1417 m 0
 640 1417 325 983 325 526 c 0
 325 255 448 74 613 74 c 0
 871 74 1186 506 1186 965 c 0
 1186 1238 1063 1417 897 1417 c 0
EndSplineSet
Validated: 1
Layer: 2
SplineSet
1278 985 m 0,0,1
 1278 808 1278 808 1219 626 c 128,-1,2
 1160 444 1160 444 1066 303.5 c 128,-1,3
 972 163 972 163 846 74 c 128,-1,4
 720 -15 720 -15 593 -15 c 0,5,6
 481 -15 481 -15 398.5 54.5 c 128,-1,7
 316 124 316 124 274.5 241.5 c 128,-1,8
 233 359 233 359 233 508 c 0,9,10
 233 679 233 679 289.5 858 c 128,-1,11
 346 1037 346 1037 438.5 1180 c 128,-1,12
 531 1323 531 1323 658.5 1414.5 c 128,-1,13
 786 1506 786 1506 918 1506 c 0,14,15
 1086 1506 1086 1506 1182 1359 c 128,-1,16
 1278 1212 1278 1212 1278 985 c 0,0,1
897 1417 m 0,17,18
 821 1417 821 1417 739 1369 c 128,-1,19
 657 1321 657 1321 584 1234.5 c 128,-1,20
 511 1148 511 1148 452.5 1038 c 128,-1,21
 394 928 394 928 359.5 793.5 c 128,-1,22
 325 659 325 659 325 526 c 0,23,24
 325 325 325 325 406.5 199.5 c 128,-1,25
 488 74 488 74 613 74 c 0,26,27
 676 74 676 74 744.5 108.5 c 128,-1,28
 813 143 813 143 876 203 c 128,-1,29
 939 263 939 263 996 348 c 128,-1,30
 1053 433 1053 433 1095 530 c 128,-1,31
 1137 627 1137 627 1161.5 740 c 128,-1,32
 1186 853 1186 853 1186 965 c 0,33,34
 1186 1167 1186 1167 1104.5 1292 c 128,-1,35
 1023 1417 1023 1417 897 1417 c 0,17,18
EndSplineSet
EndChar

StartChar: one
Encoding: 49 49 17
Width: 1192
VWidth: 2982
Flags: W
HStem: 0 21G<553 647.233> 1473 20G<921.346 954.767>
VStem: 553 406
DStem2: 553 0 643 0 0.207912 0.978148<18.7121 1361.11> 622 1314 651 1235 0.88315 0.469091<0 194.788>
LayerCount: 3
Fore
SplineSet
553 0 m 1
 833 1332 l 1
 651 1235 l 1
 622 1314 l 1
 959 1493 l 1
 643 0 l 1
 553 0 l 1
EndSplineSet
Validated: 1
Layer: 2
SplineSet
553 0 m 1,0,-1
 833 1332 l 1,1,-1
 651 1235 l 1,2,-1
 622 1314 l 1,3,-1
 959 1493 l 1,4,-1
 643 0 l 1,5,-1
 553 0 l 1,0,-1
EndSplineSet
EndChar

StartChar: two
Encoding: 50 50 18
Width: 1192
VWidth: 2982
Flags: W
HStem: 0 90<211 1074> 1032 21G<383 495.5> 1417 89<738.196 1050.59>
VStem: 383 89<1032 1148.85> 1171 89<947.424 1289.25>
LayerCount: 3
Fore
SplineSet
1260 1141 m 0
 1260 577 361 528 211 90 c 1
 1092 90 l 1
 1074 0 l 1
 101 0 l 1
 109 43 l 1
 220 553 1077 628 1162 1032 c 0
 1168 1063 1171 1094 1171 1124 c 0
 1171 1296 1059 1417 902 1417 c 0
 714 1417 519 1251 472 1032 c 1
 383 1032 l 1
 438 1292 675 1506 918 1506 c 0
 1124 1506 1260 1350 1260 1141 c 0
EndSplineSet
Validated: 1
Layer: 2
SplineSet
1260 1141 m 0,0,1
 1260 1051 1260 1051 1229 971.5 c 128,-1,2
 1198 892 1198 892 1144.5 831 c 128,-1,3
 1091 770 1091 770 1021.5 715.5 c 128,-1,4
 952 661 952 661 872 614.5 c 128,-1,5
 792 568 792 568 710.5 523.5 c 128,-1,6
 629 479 629 479 549.5 431.5 c 128,-1,7
 470 384 470 384 404 334.5 c 128,-1,8
 338 285 338 285 286.5 222.5 c 128,-1,9
 235 160 235 160 211 90 c 1,10,-1
 1092 90 l 1,11,-1
 1074 0 l 1,12,-1
 101 0 l 1,13,-1
 109 43 l 2,14,15
 127 125 127 125 171.5 198 c 128,-1,16
 216 271 216 271 277 327.5 c 128,-1,17
 338 384 338 384 412.5 436 c 128,-1,18
 487 488 487 488 566 532.5 c 128,-1,19
 645 577 645 577 724 620.5 c 128,-1,20
 803 664 803 664 876 709.5 c 128,-1,21
 949 755 949 755 1007.5 802.5 c 128,-1,22
 1066 850 1066 850 1107 909 c 128,-1,23
 1148 968 1148 968 1162 1032 c 0,24,25
 1171 1078 1171 1078 1171 1124 c 0,26,27
 1171 1253 1171 1253 1095.5 1335 c 128,-1,28
 1020 1417 1020 1417 902 1417 c 0,29,30
 759 1417 759 1417 633 1305.5 c 128,-1,31
 507 1194 507 1194 472 1032 c 1,32,-1
 383 1032 l 1,33,34
 410 1160 410 1160 490.5 1269 c 128,-1,35
 571 1378 571 1378 685 1442 c 128,-1,36
 799 1506 799 1506 918 1506 c 0,37,38
 1071 1506 1071 1506 1165.5 1403 c 128,-1,39
 1260 1300 1260 1300 1260 1141 c 0,0,1
EndSplineSet
EndChar

StartChar: three
Encoding: 51 51 19
Width: 1192
VWidth: 2982
Flags: W
HStem: -15 89<452.919 794.548> 814 90<792 933.415> 1417 89<748.336 1038.73>
VStem: 222 94<209.12 446> 485 90<1153 1250.36> 1074 88<350.778 673.838> 1119 92<1057.08 1338.42>
LayerCount: 3
Fore
SplineSet
1162 542 m 0xfc
 1162 265 895 -15 593 -15 c 0
 374 -15 222 139 222 346 c 0
 222 378 226 412 233 446 c 1
 325 446 l 1
 320 419 316 393 316 369 c 0
 316 201 438 74 615 74 c 0
 842 74 1074 286 1074 519 c 0xfc
 1074 687 949 814 773 814 c 1
 792 904 l 1
 965 904 1119 1038 1119 1209 c 0
 1119 1327 1030 1417 902 1417 c 0
 752 1417 607 1298 575 1153 c 1
 485 1153 l 1
 528 1350 724 1506 920 1506 c 0
 1092 1506 1211 1388 1211 1226 c 0xfa
 1211 1144 1173 965 972 861 c 1
 1088 803 1162 685 1162 542 c 0xfc
EndSplineSet
Validated: 1
Layer: 2
SplineSet
1162 542 m 0,0,1
 1162 440 1162 440 1115 338.5 c 128,-1,2
 1068 237 1068 237 991 159.5 c 128,-1,3
 914 82 914 82 808.5 33.5 c 128,-1,4
 703 -15 703 -15 593 -15 c 0,5,6
 430 -15 430 -15 326 87.5 c 128,-1,7
 222 190 222 190 222 346 c 0,8,9
 222 393 222 393 233 446 c 1,10,-1
 325 446 l 1,11,12
 316 397 316 397 316 369 c 0,13,14
 316 242 316 242 399.5 158 c 128,-1,15
 483 74 483 74 615 74 c 0,16,17
 727 74 727 74 833.5 136 c 128,-1,18
 940 198 940 198 1007 302 c 128,-1,19
 1074 406 1074 406 1074 519 c 0,20,21
 1074 646 1074 646 989 730 c 128,-1,22
 904 814 904 814 773 814 c 1,23,-1
 792 904 l 1,24,25
 924 904 924 904 1021.5 993 c 128,-1,26
 1119 1082 1119 1082 1119 1209 c 0,27,28
 1119 1298 1119 1298 1058 1357.5 c 128,-1,29
 997 1417 997 1417 902 1417 c 0,30,31
 790 1417 790 1417 694.5 1339.5 c 128,-1,32
 599 1262 599 1262 575 1153 c 1,33,-1
 485 1153 l 1,34,35
 517 1300 517 1300 644.5 1403 c 128,-1,36
 772 1506 772 1506 920 1506 c 0,37,38
 1048 1506 1048 1506 1129.5 1427 c 128,-1,39
 1211 1348 1211 1348 1211 1226 c 0,40,41
 1211 1190 1211 1190 1201 1148 c 128,-1,42
 1191 1106 1191 1106 1167.5 1053 c 128,-1,43
 1144 1000 1144 1000 1093.5 949 c 128,-1,44
 1043 898 1043 898 972 861 c 1,45,46
 1060 817 1060 817 1111 732.5 c 128,-1,47
 1162 648 1162 648 1162 542 c 0,0,1
EndSplineSet
EndChar

StartChar: four
Encoding: 52 52 20
Width: 1192
VWidth: 2982
Flags: W
HStem: 0 21G<844 937.388> 278 89<258 904 1012 1128> 1491 20G<1236.57 1251.73>
DStem2: 58 278 258 367 0.696854 0.717213<203.203 1423.81> 844 0 933 0 0.207912 0.978148<18.5041 284.4 393.909 1270.73>
LayerCount: 3
Fore
SplineSet
922 367 m 1
 1108 1243 l 1
 258 367 l 1
 922 367 l 1
933 0 m 1
 844 0 l 1
 904 278 l 1
 58 278 l 1
 1256 1511 l 1
 1012 367 l 1
 1177 367 l 1
 1128 278 l 1
 994 278 l 1
 933 0 l 1
EndSplineSet
Validated: 1
Layer: 2
SplineSet
922 367 m 1,0,-1
 1108 1243 l 1,1,-1
 258 367 l 1,2,-1
 922 367 l 1,0,-1
933 0 m 1,3,-1
 844 0 l 1,4,-1
 904 278 l 1,5,-1
 58 278 l 1,6,-1
 1256 1511 l 1,7,-1
 1012 367 l 1,8,-1
 1177 367 l 1,9,-1
 1128 278 l 1,10,-1
 994 278 l 1,11,-1
 933 0 l 1,3,-1
EndSplineSet
EndChar

StartChar: five
Encoding: 53 53 21
Width: 1192
VWidth: 2982
Flags: W
HStem: -17 89<446.267 787.53> 978 85<623.655 963.971> 1403 90<579 1215>
VStem: 190 92<237.391 440> 1128 92<425.338 811.625>
DStem2: 293 745 432 904 0.284525 0.958669<27.8834 108.773 191.977 712.178>
LayerCount: 3
Fore
SplineSet
609 72 m 0
 867 72 1128 338 1128 628 c 0
 1128 831 994 978 801 978 c 0
 649 978 493 884 391 745 c 1
 293 745 l 1
 515 1493 l 1
 1262 1493 l 1
 1215 1403 l 1
 579 1403 l 1
 432 904 l 1
 544 1003 683 1063 820 1063 c 0
 1061 1063 1220 882 1220 643 c 0
 1220 318 925 -17 591 -17 c 0
 349 -17 190 166 190 403 c 0
 190 416 192 427 192 440 c 1
 282 440 l 1
 282 421 l 2
 282 222 416 72 609 72 c 0
EndSplineSet
Validated: 1
Layer: 2
SplineSet
609 72 m 0,0,1
 704 72 704 72 798.5 118.5 c 128,-1,2
 893 165 893 165 965.5 240.5 c 128,-1,3
 1038 316 1038 316 1083 419 c 128,-1,4
 1128 522 1128 522 1128 628 c 0,5,6
 1128 781 1128 781 1036.5 879.5 c 128,-1,7
 945 978 945 978 801 978 c 0,8,9
 689 978 689 978 579 914.5 c 128,-1,10
 469 851 469 851 391 745 c 1,11,-1
 293 745 l 1,12,-1
 515 1493 l 1,13,-1
 1262 1493 l 1,14,-1
 1215 1403 l 1,15,-1
 579 1403 l 1,16,-1
 432 904 l 1,17,18
 517 979 517 979 618 1021 c 128,-1,19
 719 1063 719 1063 820 1063 c 0,20,21
 998 1063 998 1063 1109 944 c 128,-1,22
 1220 825 1220 825 1220 643 c 0,23,24
 1220 482 1220 482 1133.5 329.5 c 128,-1,25
 1047 177 1047 177 900 80 c 128,-1,26
 753 -17 753 -17 591 -17 c 0,27,28
 412 -17 412 -17 301 102.5 c 128,-1,29
 190 222 190 222 190 403 c 0,30,31
 190 410 190 410 191 422 c 128,-1,32
 192 434 192 434 192 440 c 1,33,-1
 282 440 l 1,34,-1
 282 421 l 2,35,36
 282 271 282 271 373.5 171.5 c 128,-1,37
 465 72 465 72 609 72 c 0,0,1
EndSplineSet
EndChar

StartChar: six
Encoding: 54 54 22
Width: 1192
VWidth: 2982
Flags: W
HStem: 0 87<450.274 791.411> 994 87<648.312 968.334> 1484 20G<720 1047>
VStem: 195 91<251.823 636.593> 1132 92<447.354 828.333>
LayerCount: 3
Fore
SplineSet
613 87 m 0
 871 87 1132 349 1132 645 c 0
 1132 846 998 994 806 994 c 0
 549 994 286 728 286 436 c 0
 286 235 421 87 613 87 c 0
195 419 m 0
 195 777 500 1003 940 1504 c 1
 1047 1504 l 1
 643 1047 l 1
 701 1068 763 1081 824 1081 c 0
 1066 1081 1224 900 1224 660 c 0
 1224 336 931 0 593 0 c 0
 354 0 195 179 195 419 c 0
EndSplineSet
Validated: 1
Layer: 2
SplineSet
613 87 m 0,0,1
 740 87 740 87 860.5 164 c 128,-1,2
 981 241 981 241 1056.5 371 c 128,-1,3
 1132 501 1132 501 1132 645 c 0,4,5
 1132 797 1132 797 1040.5 895.5 c 128,-1,6
 949 994 949 994 806 994 c 0,7,8
 711 994 711 994 616.5 947.5 c 128,-1,9
 522 901 522 901 449.5 825 c 128,-1,10
 377 749 377 749 331.5 646 c 128,-1,11
 286 543 286 543 286 436 c 0,12,13
 286 285 286 285 378 186 c 128,-1,14
 470 87 470 87 613 87 c 0,0,1
195 419 m 0,15,16
 195 494 195 494 212 564 c 128,-1,17
 229 634 229 634 267 704.5 c 128,-1,18
 305 775 305 775 348 837 c 128,-1,19
 391 899 391 899 463 981 c 128,-1,20
 535 1063 535 1063 598.5 1131 c 128,-1,21
 662 1199 662 1199 761.5 1306.5 c 128,-1,22
 861 1414 861 1414 940 1504 c 1,23,-1
 1047 1504 l 1,24,-1
 643 1047 l 1,25,26
 737 1081 737 1081 824 1081 c 0,27,28
 1003 1081 1003 1081 1113.5 962 c 128,-1,29
 1224 843 1224 843 1224 660 c 0,30,31
 1224 540 1224 540 1172.5 420.5 c 128,-1,32
 1121 301 1121 301 1036 208.5 c 128,-1,33
 951 116 951 116 833.5 58 c 128,-1,34
 716 0 716 0 593 0 c 0,35,36
 416 0 416 0 305.5 118.5 c 128,-1,37
 195 237 195 237 195 419 c 0,15,16
EndSplineSet
EndChar

StartChar: seven
Encoding: 55 55 23
Width: 1192
VWidth: 2982
Flags: W
HStem: 0 21G<396 508.222> 1403 90<481 1325>
DStem2: 396 0 495 0 0.551473 0.834193<54.5958 1682.69>
LayerCount: 3
Fore
SplineSet
481 1493 m 1
 1482 1493 l 1
 495 0 l 1
 396 0 l 1
 1325 1403 l 1
 432 1403 l 1
 481 1493 l 1
EndSplineSet
Validated: 1
Layer: 2
SplineSet
481 1493 m 1,0,-1
 1482 1493 l 1,1,-1
 495 0 l 1,2,-1
 396 0 l 1,3,-1
 1325 1403 l 1,4,-1
 432 1403 l 1,5,-1
 481 1493 l 1,0,-1
EndSplineSet
EndChar

StartChar: eight
Encoding: 56 56 24
Width: 1192
VWidth: 2982
Flags: W
HStem: -15 89<451.919 785.843> 814 90<656.638 930.869> 1417 89<744.278 1034.63>
VStem: 222 92<208.857 540.849> 481 92<980.714 1253.7> 1070 92<350.768 681.127> 1115 92<1068.49 1339.66>
LayerCount: 3
Fore
SplineSet
481 1092 m 0xfc
 481 1298 685 1506 918 1506 c 0
 1085 1506 1207 1388 1207 1231 c 0xfa
 1207 1085 1102 936 967 867 c 1
 1088 808 1162 687 1162 542 c 0
 1162 267 897 -15 593 -15 c 0
 374 -15 222 139 222 346 c 0
 222 524 338 761 596 867 c 1
 524 914 481 996 481 1092 c 0xfc
771 814 m 0
 549 814 314 609 314 367 c 0
 314 201 436 74 613 74 c 0
 833 74 1070 282 1070 521 c 0xfc
 1070 687 947 814 771 814 c 0
897 1417 m 0
 743 1417 573 1276 573 1110 c 0
 573 994 660 904 790 904 c 0
 947 904 1115 1047 1115 1211 c 0xfa
 1115 1327 1027 1417 897 1417 c 0
EndSplineSet
Validated: 1
Layer: 2
SplineSet
481 1092 m 0,0,1
 481 1194 481 1194 541 1289.5 c 128,-1,2
 601 1385 601 1385 703 1445.5 c 128,-1,3
 805 1506 805 1506 918 1506 c 0,4,5
 1043 1506 1043 1506 1125 1427.5 c 128,-1,6
 1207 1349 1207 1349 1207 1231 c 0,7,8
 1207 1123 1207 1123 1138.5 1021.5 c 128,-1,9
 1070 920 1070 920 967 867 c 1,10,11
 1058 823 1058 823 1110 736.5 c 128,-1,12
 1162 650 1162 650 1162 542 c 0,13,14
 1162 406 1162 406 1084 277 c 128,-1,15
 1006 148 1006 148 873.5 66.5 c 128,-1,16
 741 -15 741 -15 593 -15 c 0,17,18
 430 -15 430 -15 326 87.5 c 128,-1,19
 222 190 222 190 222 346 c 0,20,21
 222 415 222 415 245 488.5 c 128,-1,22
 268 562 268 562 312 633 c 128,-1,23
 356 704 356 704 429.5 766.5 c 128,-1,24
 503 829 503 829 596 867 c 1,25,26
 542 902 542 902 511.5 961 c 128,-1,27
 481 1020 481 1020 481 1092 c 0,0,1
771 814 m 0,28,29
 661 814 661 814 555.5 753.5 c 128,-1,30
 450 693 450 693 382 588.5 c 128,-1,31
 314 484 314 484 314 367 c 0,32,33
 314 241 314 241 398 157.5 c 128,-1,34
 482 74 482 74 613 74 c 0,35,36
 694 74 694 74 777 110.5 c 128,-1,37
 860 147 860 147 924.5 207 c 128,-1,38
 989 267 989 267 1029.5 350.5 c 128,-1,39
 1070 434 1070 434 1070 521 c 0,40,41
 1070 647 1070 647 986 730.5 c 128,-1,42
 902 814 902 814 771 814 c 0,28,29
897 1417 m 0,43,44
 778 1417 778 1417 675.5 1324 c 128,-1,45
 573 1231 573 1231 573 1110 c 0,46,47
 573 1022 573 1022 633.5 963 c 128,-1,48
 694 904 694 904 790 904 c 0,49,50
 911 904 911 904 1013 997.5 c 128,-1,51
 1115 1091 1115 1091 1115 1211 c 0,52,53
 1115 1299 1115 1299 1054 1358 c 128,-1,54
 993 1417 993 1417 897 1417 c 0,43,44
EndSplineSet
EndChar

StartChar: nine
Encoding: 57 57 25
Width: 1192
VWidth: 2982
Flags: W
HStem: 0 21G<459 788> 423 87<540.468 860.305> 1417 87<716.929 1057.97>
VStem: 284 92<675.667 1056.65> 1222 92<861.656 1251.75>
LayerCount: 3
Fore
SplineSet
895 1417 m 0
 638 1417 376 1155 376 859 c 0
 376 658 510 510 703 510 c 0
 961 510 1222 777 1222 1068 c 0
 1222 1269 1088 1417 895 1417 c 0
1314 1085 m 0
 1314 728 1010 502 566 0 c 1
 459 0 l 1
 865 457 l 1
 806 436 743 423 685 423 c 0
 444 423 284 604 284 844 c 0
 284 1168 579 1504 914 1504 c 0
 1155 1504 1314 1323 1314 1085 c 0
EndSplineSet
Validated: 1
Layer: 2
SplineSet
895 1417 m 0,0,1
 768 1417 768 1417 648 1340 c 128,-1,2
 528 1263 528 1263 452 1133 c 128,-1,3
 376 1003 376 1003 376 859 c 0,4,5
 376 707 376 707 467.5 608.5 c 128,-1,6
 559 510 559 510 703 510 c 0,7,8
 830 510 830 510 950.5 588 c 128,-1,9
 1071 666 1071 666 1146.5 796 c 128,-1,10
 1222 926 1222 926 1222 1068 c 0,11,12
 1222 1220 1222 1220 1130.5 1318.5 c 128,-1,13
 1039 1417 1039 1417 895 1417 c 0,0,1
1314 1085 m 0,14,15
 1314 1010 1314 1010 1297 940.5 c 128,-1,16
 1280 871 1280 871 1242 800 c 128,-1,17
 1204 729 1204 729 1161 667.5 c 128,-1,18
 1118 606 1118 606 1045.5 523.5 c 128,-1,19
 973 441 973 441 909.5 373.5 c 128,-1,20
 846 306 846 306 745.5 198 c 128,-1,21
 645 90 645 90 566 0 c 1,22,-1
 459 0 l 1,23,-1
 865 457 l 1,24,25
 769 423 769 423 685 423 c 0,26,27
 506 423 506 423 395 542.5 c 128,-1,28
 284 662 284 662 284 844 c 0,29,30
 284 964 284 964 336 1083.5 c 128,-1,31
 388 1203 388 1203 473 1295.5 c 128,-1,32
 558 1388 558 1388 675 1446 c 128,-1,33
 792 1504 792 1504 914 1504 c 0,34,35
 1092 1504 1092 1504 1203 1385 c 128,-1,36
 1314 1266 1314 1266 1314 1085 c 0,14,15
EndSplineSet
EndChar

StartChar: colon
Encoding: 58 58 26
Width: 498
VWidth: 2982
Flags: W
HStem: -15 167<198.177 332> 867 165<386.23 518.25>
VStem: 179 173<6.04936 131.986> 367 171<888.008 1011.89>
LayerCount: 3
Fore
SplineSet
179 54 m 0
 179 111 237 152 282 152 c 0
 322 152 352 124 352 85 c 0
 352 27 293 -15 248 -15 c 0
 208 -15 179 15 179 54 c 0
367 933 m 0
 367 991 425 1032 470 1032 c 0
 508 1032 538 1003 538 967 c 0
 538 908 479 867 434 867 c 0
 393 867 367 895 367 933 c 0
EndSplineSet
Validated: 1
Layer: 2
SplineSet
179 54 m 0,0,1
 179 94 179 94 212.5 123 c 128,-1,2
 246 152 246 152 282 152 c 0,3,4
 312 152 312 152 332 133 c 128,-1,5
 352 114 352 114 352 85 c 0,6,7
 352 44 352 44 318 14.5 c 128,-1,8
 284 -15 284 -15 248 -15 c 0,9,10
 218 -15 218 -15 198.5 5 c 128,-1,11
 179 25 179 25 179 54 c 0,0,1
367 933 m 0,12,13
 367 974 367 974 400.5 1003 c 128,-1,14
 434 1032 434 1032 470 1032 c 0,15,16
 498 1032 498 1032 518 1013 c 128,-1,17
 538 994 538 994 538 967 c 0,18,19
 538 925 538 925 504.5 896 c 128,-1,20
 471 867 471 867 434 867 c 0,21,22
 404 867 404 867 385.5 885.5 c 128,-1,23
 367 904 367 904 367 933 c 0,12,13
EndSplineSet
EndChar

StartChar: semicolon
Encoding: 59 59 27
Width: 498
VWidth: 2982
Flags: W
HStem: -15 167<198.177 294.207> 867 165<386.23 518.25>
VStem: 179 190<2.13867 131.986> 367 171<888.008 1011.89>
LayerCount: 3
Fore
SplineSet
179 54 m 0xe0
 179 111 237 152 282 152 c 0
 325 152 369 126 369 62 c 0
 369 -101 161 -242 161 -242 c 1
 116 -242 l 1
 186 -195 280 -74 295 0 c 1
 278 -11 267 -15 248 -15 c 0
 208 -15 179 15 179 54 c 0xe0
367 933 m 0xd0
 367 991 425 1032 470 1032 c 0
 508 1032 538 1003 538 967 c 0
 538 908 479 867 434 867 c 0
 393 867 367 895 367 933 c 0xd0
EndSplineSet
Validated: 1
Layer: 2
SplineSet
179 54 m 0,0,1
 179 94 179 94 212.5 123 c 128,-1,2
 246 152 246 152 282 152 c 128,-1,3
 318 152 318 152 343.5 129.5 c 128,-1,4
 369 107 369 107 369 62 c 0,5,6
 369 16 369 16 347.5 -32 c 128,-1,7
 326 -80 326 -80 295.5 -116 c 128,-1,8
 265 -152 265 -152 234.5 -181.5 c 128,-1,9
 204 -211 204 -211 182.5 -226.5 c 2,10,-1
 161 -242 l 1,11,-1
 116 -242 l 1,12,13
 170 -206 170 -206 227 -130 c 128,-1,14
 284 -54 284 -54 295 0 c 1,15,16
 272 -15 272 -15 248 -15 c 0,17,18
 218 -15 218 -15 198.5 5 c 128,-1,19
 179 25 179 25 179 54 c 0,0,1
367 933 m 0,20,21
 367 974 367 974 400.5 1003 c 128,-1,22
 434 1032 434 1032 470 1032 c 0,23,24
 498 1032 498 1032 518 1013 c 128,-1,25
 538 994 538 994 538 967 c 0,26,27
 538 925 538 925 504.5 896 c 128,-1,28
 471 867 471 867 434 867 c 0,29,30
 404 867 404 867 385.5 885.5 c 128,-1,31
 367 904 367 904 367 933 c 0,20,21
EndSplineSet
EndChar

StartChar: less
Encoding: 60 60 28
Width: 1183
VWidth: 2982
Flags: W
HStem: 0 21G<922.654 1126> 994 20G<1130.96 1341>
DStem2: 231 508 403 508 0.880109 0.474771<151.379 1064.9> 403 508 231 508 0.81822 -0.574905<0 740.436>
LayerCount: 3
Fore
SplineSet
1126 0 m 1
 951 0 l 1
 231 508 l 1
 1168 1014 l 1
 1341 1014 l 1
 403 508 l 1
 1126 0 l 1
EndSplineSet
Validated: 1
Layer: 2
SplineSet
1126 0 m 1,0,-1
 951 0 l 1,1,-1
 231 508 l 1,2,-1
 1168 1014 l 1,3,-1
 1341 1014 l 1,4,-1
 403 508 l 1,5,-1
 1126 0 l 1,0,-1
EndSplineSet
EndChar

StartChar: equal
Encoding: 61 61 29
Width: 1036
VWidth: 2982
Flags: W
HStem: 432 89<233 1008> 671 90<284 1059>
LayerCount: 3
Fore
SplineSet
1079 761 m 1
 1059 671 l 1
 265 671 l 1
 284 761 l 1
 1079 761 l 1
1027 521 m 1
 1008 432 l 1
 215 432 l 1
 233 521 l 1
 1027 521 l 1
EndSplineSet
Validated: 1
Layer: 2
SplineSet
1079 761 m 1,0,-1
 1059 671 l 1,1,-1
 265 671 l 1,2,-1
 284 761 l 1,3,-1
 1079 761 l 1,0,-1
1027 521 m 1,4,-1
 1008 432 l 1,5,-1
 215 432 l 1,6,-1
 233 521 l 1,7,-1
 1027 521 l 1,4,-1
EndSplineSet
EndChar

StartChar: greater
Encoding: 62 62 30
Width: 1203
VWidth: 2982
Flags: W
HStem: 0 21G<124 331.929> 994 20G<338 538.577>
DStem2: 124 0 295 0 0.879325 0.476223<150.365 1065.85> 510 1014 338 1014 0.819285 -0.573386<0 741.56>
LayerCount: 3
Fore
SplineSet
295 0 m 1
 124 0 l 1
 1061 508 l 1
 338 1014 l 1
 510 1014 l 1
 1233 508 l 1
 295 0 l 1
EndSplineSet
Validated: 1
Layer: 2
SplineSet
295 0 m 1,0,-1
 124 0 l 1,1,-1
 1061 508 l 1,2,-1
 338 1014 l 1,3,-1
 510 1014 l 1,4,-1
 1233 508 l 1,5,-1
 295 0 l 1,0,-1
EndSplineSet
EndChar

StartChar: question
Encoding: 63 63 31
Width: 1036
VWidth: 2982
Flags: W
HStem: -15 167<438.13 568.9> 1417 89<667.091 987.423>
VStem: 363 90<1130 1227.2> 419 172<7.28543 131.986> 1074 92<1053.63 1334.04>
DStem2: 444.557 -15 533.557 -15 0.207912 0.978148<347.698 680.715>
LayerCount: 3
Fore
SplineSet
419 54 m 0xd8
 419 111 477 152 521 152 c 0
 562 152 591 124 591 85 c 0
 591 38 540 -15 485 -15 c 0
 446 -15 419 15 419 54 c 0xd8
602 307 m 1
 513 307 l 1
 544 457 l 1
 620 806 1023 929 1068 1130 c 1
 1072 1153 1074 1175 1074 1198 c 0
 1074 1330 980 1417 842 1417 c 0
 651 1417 481 1269 453 1130 c 1
 363 1130 l 1xe8
 406 1327 626 1506 859 1506 c 0
 1045 1506 1166 1390 1166 1215 c 0
 1166 869 709 799 634 457 c 1
 602 307 l 1
EndSplineSet
Validated: 1
Layer: 2
SplineSet
419 54 m 0,0,1
 419 94 419 94 452 123 c 128,-1,2
 485 152 485 152 521 152 c 0,3,4
 552 152 552 152 571.5 133 c 128,-1,5
 591 114 591 114 591 85 c 0,6,7
 591 49 591 49 558 17 c 128,-1,8
 525 -15 525 -15 485 -15 c 0,9,10
 456 -15 456 -15 437.5 4.5 c 128,-1,11
 419 24 419 24 419 54 c 0,0,1
602 307 m 1,12,-1
 513 307 l 1,13,-1
 544 457 l 2,14,15
 562 539 562 539 606 614 c 128,-1,16
 650 689 650 689 703.5 742 c 128,-1,17
 757 795 757 795 817.5 848.5 c 128,-1,18
 878 902 878 902 929 943.5 c 128,-1,19
 980 985 980 985 1019 1034.5 c 128,-1,20
 1058 1084 1058 1084 1068 1130 c 0,21,22
 1074 1164 1074 1164 1074 1198 c 0,23,24
 1074 1297 1074 1297 1010 1357 c 128,-1,25
 946 1417 946 1417 842 1417 c 0,26,27
 704 1417 704 1417 589.5 1328 c 128,-1,28
 475 1239 475 1239 453 1130 c 1,29,-1
 363 1130 l 1,30,31
 396 1280 396 1280 541.5 1393 c 128,-1,32
 687 1506 687 1506 859 1506 c 0,33,34
 998 1506 998 1506 1082 1426 c 128,-1,35
 1166 1346 1166 1346 1166 1215 c 0,36,37
 1166 1145 1166 1145 1140.5 1083 c 128,-1,38
 1115 1021 1115 1021 1073.5 973 c 128,-1,39
 1032 925 1032 925 980.5 880 c 128,-1,40
 929 835 929 835 874.5 789.5 c 128,-1,41
 820 744 820 744 772.5 697 c 128,-1,42
 725 650 725 650 687 588 c 128,-1,43
 649 526 649 526 634 457 c 2,44,-1
 602 307 l 1,12,-1
EndSplineSet
EndChar

StartChar: at
Encoding: 64 64 32
Width: 2029
VWidth: 2982
Flags: W
HStem: -495 85<705.337 1174.52> -17 91<702.317 1023.97 1516.02 1724.41> 938 89<1099.47 1422.14> 1412 92<1071.76 1551.88>
VStem: 203 94<20.8941 567.212> 532 100<143.269 465.767> 1372 92<128.032 275> 1954 92<453.459 989.857>
DStem2: 1574 822 1760 1014 0.415457 0.909613<0 212.037>
LayerCount: 3
Fore
SplineSet
2046 745 m 0
 2046 416 1865 -20 1591 -20 c 0
 1459 -20 1372 96 1372 258 c 2
 1372 275 l 1
 1220 105 1008 -17 820 -17 c 0
 638 -17 532 96 532 267 c 0
 532 607 947 1027 1296 1027 c 0
 1448 1027 1547 947 1574 822 c 1
 1664 1014 l 1
 1760 1014 l 1
 1533 517 l 2
 1518 485 1464 385 1464 275 c 0
 1464 145 1538 72 1612 72 c 0
 1790 72 1954 419 1954 728 c 0
 1954 1124 1690 1412 1318 1412 c 0
 803 1412 297 865 297 284 c 0
 297 -116 557 -410 931 -410 c 0
 1070 -410 1211 -367 1343 -295 c 1
 1374 -369 l 1
 1229 -450 1070 -495 914 -495 c 0
 487 -495 203 -168 203 271 c 0
 203 884 743 1504 1337 1504 c 0
 1758 1504 2046 1177 2046 745 c 0
842 74 m 0
 1121 74 1495 425 1495 724 c 0
 1495 850 1419 938 1283 938 c 0
 998 938 632 579 632 284 c 0
 632 158 705 74 842 74 c 0
EndSplineSet
Validated: 1
Layer: 2
SplineSet
2046 745 m 0,0,1
 2046 646 2046 646 2025.5 539.5 c 128,-1,2
 2005 433 2005 433 1964.5 333.5 c 128,-1,3
 1924 234 1924 234 1870 155 c 128,-1,4
 1816 76 1816 76 1743 28 c 128,-1,5
 1670 -20 1670 -20 1591 -20 c 0,6,7
 1493 -20 1493 -20 1432.5 58 c 128,-1,8
 1372 136 1372 136 1372 258 c 2,9,-1
 1372 275 l 1,10,11
 1255 144 1255 144 1106.5 63.5 c 128,-1,12
 958 -17 958 -17 820 -17 c 0,13,14
 685 -17 685 -17 608.5 60 c 128,-1,15
 532 137 532 137 532 267 c 0,16,17
 532 391 532 391 603 528.5 c 128,-1,18
 674 666 674 666 782.5 775 c 128,-1,19
 891 884 891 884 1030 955.5 c 128,-1,20
 1169 1027 1169 1027 1296 1027 c 0,21,22
 1408 1027 1408 1027 1480.5 972 c 128,-1,23
 1553 917 1553 917 1574 822 c 1,24,-1
 1664 1014 l 1,25,-1
 1760 1014 l 1,26,-1
 1533 517 l 2,27,28
 1532 515 1532 515 1526 502 c 128,-1,29
 1520 489 1520 489 1516 481 c 128,-1,30
 1512 473 1512 473 1505 456 c 128,-1,31
 1498 439 1498 439 1493 425 c 128,-1,32
 1488 411 1488 411 1482 391.5 c 128,-1,33
 1476 372 1476 372 1472.5 354.5 c 128,-1,34
 1469 337 1469 337 1466.5 316 c 128,-1,35
 1464 295 1464 295 1464 275 c 0,36,37
 1464 182 1464 182 1508.5 127 c 128,-1,38
 1553 72 1553 72 1612 72 c 0,39,40
 1698 72 1698 72 1778.5 171 c 128,-1,41
 1859 270 1859 270 1906.5 422.5 c 128,-1,42
 1954 575 1954 575 1954 728 c 0,43,44
 1954 924 1954 924 1873 1080 c 128,-1,45
 1792 1236 1792 1236 1646.5 1324 c 128,-1,46
 1501 1412 1501 1412 1318 1412 c 0,47,48
 1167 1412 1167 1412 1015 1351 c 128,-1,49
 863 1290 863 1290 735.5 1181.5 c 128,-1,50
 608 1073 608 1073 508.5 933 c 128,-1,51
 409 793 409 793 353 623.5 c 128,-1,52
 297 454 297 454 297 284 c 0,53,54
 297 86 297 86 377 -72.5 c 128,-1,55
 457 -231 457 -231 602 -320.5 c 128,-1,56
 747 -410 747 -410 931 -410 c 0,57,58
 1132 -410 1132 -410 1343 -295 c 1,59,-1
 1374 -369 l 1,60,61
 1148 -495 1148 -495 914 -495 c 0,62,63
 704 -495 704 -495 541.5 -395 c 128,-1,64
 379 -295 379 -295 291 -121 c 128,-1,65
 203 53 203 53 203 271 c 0,66,67
 203 422 203 422 246 575 c 128,-1,68
 289 728 289 728 364.5 863.5 c 128,-1,69
 440 999 440 999 547.5 1117.5 c 128,-1,70
 655 1236 655 1236 778.5 1321 c 128,-1,71
 902 1406 902 1406 1047 1455 c 128,-1,72
 1192 1504 1192 1504 1337 1504 c 0,73,74
 1544 1504 1544 1504 1706.5 1404.5 c 128,-1,75
 1869 1305 1869 1305 1957.5 1132.5 c 128,-1,76
 2046 960 2046 960 2046 745 c 0,0,1
842 74 m 0,77,78
 910 74 910 74 987 101.5 c 128,-1,79
 1064 129 1064 129 1135.5 176 c 128,-1,80
 1207 223 1207 223 1273 287.5 c 128,-1,81
 1339 352 1339 352 1388 422.5 c 128,-1,82
 1437 493 1437 493 1466 572 c 128,-1,83
 1495 651 1495 651 1495 724 c 0,84,85
 1495 821 1495 821 1439 879.5 c 128,-1,86
 1383 938 1383 938 1283 938 c 0,87,88
 1179 938 1179 938 1061.5 876.5 c 128,-1,89
 944 815 944 815 850 722 c 128,-1,90
 756 629 756 629 694 510 c 128,-1,91
 632 391 632 391 632 284 c 0,92,93
 632 187 632 187 686.5 130.5 c 128,-1,94
 741 74 741 74 842 74 c 0,77,78
EndSplineSet
EndChar

StartChar: A
Encoding: 65 65 33
Width: 1322
VWidth: 2982
Flags: W
HStem: 0 21G<36 144.484 1190.03 1290> 463 90<481 1083> 1491 20G<970.465 987.064>
DStem2: 36 0 132 0 0.531057 0.847336<50.9815 596.774 704.897 1561.91> 983 1511 938 1278 0.199109 -0.979977<219.375 958.729 1050.71 1522.76>
LayerCount: 3
Fore
SplineSet
481 553 m 1
 1083 553 l 1
 938 1278 l 1
 481 553 l 1
1102 463 m 1
 421 463 l 1
 132 0 l 1
 36 0 l 1
 983 1511 l 1
 1290 0 l 1
 1194 0 l 1
 1102 463 l 1
EndSplineSet
Validated: 1
Layer: 2
SplineSet
481 553 m 1,0,-1
 1083 553 l 1,1,-1
 938 1278 l 1,2,-1
 481 553 l 1,0,-1
1102 463 m 1,3,-1
 421 463 l 1,4,-1
 132 0 l 1,5,-1
 36 0 l 1,6,-1
 983 1511 l 1,7,-1
 1290 0 l 1,8,-1
 1194 0 l 1,9,-1
 1102 463 l 1,3,-1
EndSplineSet
EndChar

StartChar: B
Encoding: 66 66 34
Width: 1293
VWidth: 2982
Flags: W
HStem: 0 90<275 903.445> 786 89<444 1024.68> 1403 90<555 1124.22>
VStem: 1184 92<344.35 652.263> 1218 91<1047.16 1311.74>
DStem2: 168 0 255.87 0 0.207912 0.978148<110.28 821.841 913.263 1452.8>
LayerCount: 3
Fore
SplineSet
712 90 m 2xf0
 947 90 1184 282 1184 504 c 0
 1184 662 1055 786 859 786 c 2
 423 786 l 1
 275 90 l 1
 712 90 l 2xf0
1218 1186 m 0xe8
 1218 1307 1119 1403 974 1403 c 2
 555 1403 l 1
 444 875 l 1
 859 875 l 1
 1045 882 1218 1021 1218 1186 c 0xe8
1276 521 m 0xf0
 1276 265 1008 0 692 0 c 2
 168 0 l 1
 483 1493 l 1
 998 1493 l 2
 1182 1493 1309 1367 1309 1204 c 0xe8
 1309 1059 1211 918 1061 839 c 1
 1194 784 1276 665 1276 521 c 0xf0
EndSplineSet
Validated: 1
Layer: 2
SplineSet
712 90 m 2,0,1
 828 90 828 90 937.5 146.5 c 128,-1,2
 1047 203 1047 203 1115.5 299.5 c 128,-1,3
 1184 396 1184 396 1184 504 c 0,4,5
 1184 625 1184 625 1094 705.5 c 128,-1,6
 1004 786 1004 786 859 786 c 2,7,-1
 423 786 l 1,8,-1
 275 90 l 1,9,-1
 712 90 l 2,0,1
1218 1186 m 0,10,11
 1218 1278 1218 1278 1149.5 1340.5 c 128,-1,12
 1081 1403 1081 1403 974 1403 c 2,13,-1
 555 1403 l 1,14,-1
 444 875 l 1,15,-1
 859 875 l 1,16,17
 1001 880 1001 880 1109.5 972 c 128,-1,18
 1218 1064 1218 1064 1218 1186 c 0,10,11
1276 521 m 0,19,20
 1276 426 1276 426 1228.5 331.5 c 128,-1,21
 1181 237 1181 237 1103 164 c 128,-1,22
 1025 91 1025 91 916 45.5 c 128,-1,23
 807 0 807 0 692 0 c 2,24,-1
 168 0 l 1,25,-1
 483 1493 l 1,26,-1
 998 1493 l 2,27,28
 1135 1493 1135 1493 1222 1410.5 c 128,-1,29
 1309 1328 1309 1328 1309 1204 c 0,30,31
 1309 1096 1309 1096 1241.5 997.5 c 128,-1,32
 1174 899 1174 899 1061 839 c 1,33,34
 1161 798 1161 798 1218.5 713.5 c 128,-1,35
 1276 629 1276 629 1276 521 c 0,19,20
EndSplineSet
EndChar

StartChar: C
Encoding: 67 67 35
Width: 1608
VWidth: 2982
Flags: W
HStem: -11 85<673.857 1130.97> 1417 94<951.421 1408.57>
VStem: 265 91<387.088 841.617>
LayerCount: 3
Fore
SplineSet
1182 1417 m 0
 759 1417 356 1027 356 602 c 0
 356 302 575 74 895 74 c 0
 1117 74 1335 181 1491 346 c 1
 1553 297 l 1
 1374 109 1128 -11 878 -11 c 0
 515 -11 265 246 265 591 c 0
 265 1055 709 1511 1202 1511 c 0
 1453 1511 1647 1388 1743 1200 c 1
 1661 1147 l 1
 1574 1309 1403 1417 1182 1417 c 0
EndSplineSet
Validated: 1
Layer: 2
SplineSet
1182 1417 m 0,0,1
 1058 1417 1058 1417 934.5 1373.5 c 128,-1,2
 811 1330 811 1330 708 1252 c 128,-1,3
 605 1174 605 1174 525.5 1073 c 128,-1,4
 446 972 446 972 401 849.5 c 128,-1,5
 356 727 356 727 356 602 c 0,6,7
 356 453 356 453 423.5 333 c 128,-1,8
 491 213 491 213 614.5 143.5 c 128,-1,9
 738 74 738 74 895 74 c 0,10,11
 1059 74 1059 74 1215.5 147 c 128,-1,12
 1372 220 1372 220 1491 346 c 1,13,-1
 1553 297 l 1,14,15
 1416 153 1416 153 1239 71 c 128,-1,16
 1062 -11 1062 -11 878 -11 c 0,17,18
 700 -11 700 -11 559.5 67.5 c 128,-1,19
 419 146 419 146 342 283 c 128,-1,20
 265 420 265 420 265 591 c 128,-1,21
 265 762 265 762 343 930 c 128,-1,22
 421 1098 421 1098 548 1225.5 c 128,-1,23
 675 1353 675 1353 848.5 1432 c 128,-1,24
 1022 1511 1022 1511 1202 1511 c 0,25,26
 1387 1511 1387 1511 1528 1427.5 c 128,-1,27
 1669 1344 1669 1344 1743 1200 c 1,28,-1
 1661 1147 l 1,29,30
 1594 1272 1594 1272 1469 1344.5 c 128,-1,31
 1344 1417 1344 1417 1182 1417 c 0,0,1
EndSplineSet
EndChar

StartChar: D
Encoding: 68 68 36
Width: 1346
VWidth: 2982
Flags: W
HStem: 0 90<275 737.425> 1403 90<555 993.27>
VStem: 1312 91<650.962 1101.59>
DStem2: 168 0 255.87 0 0.207912 0.978148<110.28 1452.8>
LayerCount: 3
Fore
SplineSet
487 90 m 2
 906 90 1312 461 1312 884 c 0
 1312 1186 1090 1403 767 1403 c 2
 555 1403 l 1
 275 90 l 1
 487 90 l 2
1403 904 m 0
 1403 440 963 0 468 0 c 2
 168 0 l 1
 483 1493 l 1
 786 1493 l 2
 1151 1493 1403 1245 1403 904 c 0
EndSplineSet
Validated: 1
Layer: 2
SplineSet
487 90 m 2,0,1
 641 90 641 90 792 155 c 128,-1,2
 943 220 943 220 1057 327.5 c 128,-1,3
 1171 435 1171 435 1241.5 582 c 128,-1,4
 1312 729 1312 729 1312 884 c 0,5,6
 1312 1111 1312 1111 1160 1257 c 128,-1,7
 1008 1403 1008 1403 767 1403 c 2,8,-1
 555 1403 l 1,9,-1
 275 90 l 1,10,-1
 487 90 l 2,0,1
1403 904 m 0,11,12
 1403 733 1403 733 1326 567.5 c 128,-1,13
 1249 402 1249 402 1122 277.5 c 128,-1,14
 995 153 995 153 822 76.5 c 128,-1,15
 649 0 649 0 468 0 c 2,16,-1
 168 0 l 1,17,-1
 483 1493 l 1,18,-1
 786 1493 l 2,19,20
 1058 1493 1058 1493 1230.5 1327 c 128,-1,21
 1403 1161 1403 1161 1403 904 c 0,11,12
EndSplineSet
EndChar

StartChar: E
Encoding: 69 69 37
Width: 1094
VWidth: 2982
Flags: W
HStem: 0 90<275 1032> 822 90<450 1149> 1403 90<555 1335>
DStem2: 168 0 255.87 0 0.207912 0.978148<110.28 858.926 950.702 1452.8>
LayerCount: 3
Fore
SplineSet
1166 912 m 1
 1149 822 l 1
 432 822 l 1
 275 90 l 1
 1053 90 l 1
 1032 0 l 1
 168 0 l 1
 483 1493 l 1
 1352 1493 l 1
 1335 1403 l 1
 555 1403 l 1
 450 912 l 1
 1166 912 l 1
EndSplineSet
Validated: 1
Layer: 2
SplineSet
1166 912 m 1,0,-1
 1149 822 l 1,1,-1
 432 822 l 1,2,-1
 275 90 l 1,3,-1
 1053 90 l 1,4,-1
 1032 0 l 1,5,-1
 168 0 l 1,6,-1
 483 1493 l 1,7,-1
 1352 1493 l 1,8,-1
 1335 1403 l 1,9,-1
 555 1403 l 1,10,-1
 450 912 l 1,11,-1
 1166 912 l 1,0,-1
EndSplineSet
EndChar

StartChar: F
Encoding: 70 70 38
Width: 1094
VWidth: 2982
Flags: W
HStem: 0 21G<168 262.234> 822 90<450 1149> 1403 90<555 1335>
DStem2: 168 0 258 0 0.207912 0.978148<18.7121 858.926 950.702 1452.8>
LayerCount: 3
Fore
SplineSet
1166 912 m 1
 1149 822 l 1
 432 822 l 1
 258 0 l 1
 168 0 l 1
 483 1493 l 1
 1352 1493 l 1
 1335 1403 l 1
 555 1403 l 1
 450 912 l 1
 1166 912 l 1
EndSplineSet
Validated: 1
Layer: 2
SplineSet
1166 912 m 1,0,-1
 1149 822 l 1,1,-1
 432 822 l 1,2,-1
 258 0 l 1,3,-1
 168 0 l 1,4,-1
 483 1493 l 1,5,-1
 1352 1493 l 1,6,-1
 1335 1403 l 1,7,-1
 555 1403 l 1,8,-1
 450 912 l 1,9,-1
 1166 912 l 1,0,-1
EndSplineSet
EndChar

StartChar: G
Encoding: 71 71 39
Width: 1758
VWidth: 2982
Flags: W
HStem: -15 89<673.47 1135.15> 701 89<1047 1694> 1417 89<941.713 1406.94>
VStem: 265 91<384.582 840.891>
CounterMasks: 1 e0
LayerCount: 3
Fore
SplineSet
265 585 m 0
 265 1061 718 1506 1200 1506 c 0
 1448 1506 1645 1386 1743 1200 c 1
 1661 1147 l 1
 1574 1309 1403 1417 1182 1417 c 0
 759 1417 356 1027 356 602 c 0
 356 302 575 74 895 74 c 0
 1251 74 1600 352 1694 701 c 1
 1030 701 l 1
 1047 790 l 1
 1807 790 l 1
 1798 745 l 1
 1708 325 1296 -15 878 -15 c 0
 513 -15 265 242 265 585 c 0
EndSplineSet
Validated: 1
Layer: 2
SplineSet
265 585 m 0,0,1
 265 725 265 725 315.5 863 c 128,-1,2
 366 1001 366 1001 456 1115.5 c 128,-1,3
 546 1230 546 1230 662 1318.5 c 128,-1,4
 778 1407 778 1407 918 1456.5 c 128,-1,5
 1058 1506 1058 1506 1200 1506 c 0,6,7
 1383 1506 1383 1506 1525.5 1424 c 128,-1,8
 1668 1342 1668 1342 1743 1200 c 1,9,-1
 1661 1147 l 1,10,11
 1594 1272 1594 1272 1469 1344.5 c 128,-1,12
 1344 1417 1344 1417 1182 1417 c 0,13,14
 1058 1417 1058 1417 934.5 1373.5 c 128,-1,15
 811 1330 811 1330 708 1252 c 128,-1,16
 605 1174 605 1174 525.5 1073 c 128,-1,17
 446 972 446 972 401 849.5 c 128,-1,18
 356 727 356 727 356 602 c 0,19,20
 356 453 356 453 423.5 333 c 128,-1,21
 491 213 491 213 614.5 143.5 c 128,-1,22
 738 74 738 74 895 74 c 0,23,24
 1070 74 1070 74 1237.5 157.5 c 128,-1,25
 1405 241 1405 241 1526.5 385 c 128,-1,26
 1648 529 1648 529 1694 701 c 1,27,-1
 1030 701 l 1,28,-1
 1047 790 l 1,29,-1
 1807 790 l 1,30,-1
 1798 745 l 2,31,32
 1765 590 1765 590 1675 449.5 c 128,-1,33
 1585 309 1585 309 1461.5 207 c 128,-1,34
 1338 105 1338 105 1185 45 c 128,-1,35
 1032 -15 1032 -15 878 -15 c 0,36,37
 699 -15 699 -15 558.5 63.5 c 128,-1,38
 418 142 418 142 341.5 278.5 c 128,-1,39
 265 415 265 415 265 585 c 0,0,1
EndSplineSet
EndChar

StartChar: H
Encoding: 72 72 40
Width: 1393
VWidth: 2982
Flags: W
HStem: 0 21G<168 262.234 1139 1233.26> 822 90<450 1314> 1473 20G<478.78 573 1452.8 1547>
DStem2: 168 0 258 0 0.207912 0.978148<18.7121 858.926 950.702 1525.87> 1139 0 1229 0 0.207912 0.978148<18.7121 840.422 932.821 1526.49>
LayerCount: 3
Fore
SplineSet
1457 1493 m 1
 1547 1493 l 1
 1229 0 l 1
 1139 0 l 1
 1314 822 l 1
 432 822 l 1
 258 0 l 1
 168 0 l 1
 483 1493 l 1
 573 1493 l 1
 450 912 l 1
 1335 912 l 1
 1457 1493 l 1
EndSplineSet
Validated: 1
Layer: 2
SplineSet
1457 1493 m 1,0,-1
 1547 1493 l 1,1,-1
 1229 0 l 1,2,-1
 1139 0 l 1,3,-1
 1314 822 l 1,4,-1
 432 822 l 1,5,-1
 258 0 l 1,6,-1
 168 0 l 1,7,-1
 483 1493 l 1,8,-1
 573 1493 l 1,9,-1
 450 912 l 1,10,-1
 1335 912 l 1,11,-1
 1457 1493 l 1,0,-1
EndSplineSet
EndChar

StartChar: I
Encoding: 73 73 41
Width: 422
VWidth: 2982
Flags: W
HStem: 0 21G<168 262.22> 1473 20G<478.78 573>
VStem: 168 405
DStem2: 168 0 258 0 0.207912 0.978148<18.7121 1525.87>
LayerCount: 3
Fore
SplineSet
258 0 m 1
 168 0 l 1
 483 1493 l 1
 573 1493 l 1
 258 0 l 1
EndSplineSet
Validated: 1
Layer: 2
SplineSet
258 0 m 1,0,-1
 168 0 l 1,1,-1
 483 1493 l 1,2,-1
 573 1493 l 1,3,-1
 258 0 l 1,0,-1
EndSplineSet
EndChar

StartChar: J
Encoding: 74 74 42
Width: 1021
VWidth: 2982
Flags: W
HStem: -15 89<377.607 655.008> 1473 20G<1085.75 1173>
VStem: 195 91<166.498 387>
DStem2: 769.552 -15 854.552 -15 0.207912 0.978148<244.307 1541.67>
LayerCount: 3
Fore
SplineSet
1090 1493 m 1
 1173 1493 l 1
 940 387 l 2
 893 168 692 -15 485 -15 c 0
 309 -15 195 119 195 295 c 0
 195 325 199 356 205 387 c 1
 295 387 l 1
 291 363 286 338 286 314 c 0
 286 175 378 74 508 74 c 0
 660 74 818 213 855 387 c 2
 1090 1493 l 1
EndSplineSet
Validated: 1
Layer: 2
SplineSet
1090 1493 m 1,0,-1
 1173 1493 l 1,1,-1
 940 387 l 2,2,3
 905 222 905 222 772 103.5 c 128,-1,4
 639 -15 639 -15 485 -15 c 0,5,6
 355 -15 355 -15 275 73 c 128,-1,7
 195 161 195 161 195 295 c 0,8,9
 195 335 195 335 205 387 c 1,10,-1
 295 387 l 1,11,12
 286 333 286 333 286 314 c 0,13,14
 286 209 286 209 348.5 141.5 c 128,-1,15
 411 74 411 74 508 74 c 0,16,17
 623 74 623 74 725 165.5 c 128,-1,18
 827 257 827 257 855 387 c 2,19,-1
 1090 1493 l 1,0,-1
EndSplineSet
EndChar

StartChar: K
Encoding: 75 75 43
Width: 1149
VWidth: 2982
Flags: W
HStem: 0 21G<168 262.233 1013.59 1139> 1473 20G<478.78 573 1242.79 1403>
DStem2: 168 0 258 0 0.207912 0.978148<18.7121 772.041 896.365 1525.87> 438 859 414 737 0.794472 0.607301<0 149.448 243.463 1045.23> 681 942 607 884 0.437257 -0.899337<19.8045 996.717>
LayerCount: 3
Fore
SplineSet
483 1493 m 1
 573 1493 l 1
 438 859 l 1
 1269 1493 l 1
 1403 1493 l 1
 681 942 l 1
 1139 0 l 1
 1023 0 l 1
 607 884 l 1
 414 737 l 1
 258 0 l 1
 168 0 l 1
 483 1493 l 1
EndSplineSet
Validated: 1
Layer: 2
SplineSet
483 1493 m 1,0,-1
 573 1493 l 1,1,-1
 438 859 l 1,2,-1
 1269 1493 l 1,3,-1
 1403 1493 l 1,4,-1
 681 942 l 1,5,-1
 1139 0 l 1,6,-1
 1023 0 l 1,7,-1
 607 884 l 1,8,-1
 414 737 l 1,9,-1
 258 0 l 1,10,-1
 168 0 l 1,11,-1
 483 1493 l 1,0,-1
EndSplineSet
EndChar

StartChar: L
Encoding: 76 76 44
Width: 1094
VWidth: 2982
Flags: W
HStem: 0 90<275 1036> 1473 20G<478.78 573>
DStem2: 168 0 255.87 0 0.207912 0.978148<110.28 1525.87>
LayerCount: 3
Fore
SplineSet
1036 0 m 1
 168 0 l 1
 483 1493 l 1
 573 1493 l 1
 275 90 l 1
 1055 90 l 1
 1036 0 l 1
EndSplineSet
Validated: 1
Layer: 2
SplineSet
1036 0 m 1,0,-1
 168 0 l 1,1,-1
 483 1493 l 1,2,-1
 573 1493 l 1,3,-1
 275 90 l 1,4,-1
 1055 90 l 1,5,-1
 1036 0 l 1,0,-1
EndSplineSet
EndChar

StartChar: M
Encoding: 77 77 45
Width: 1732
VWidth: 2982
Flags: W
HStem: 0 21G<36 132.05 854.859 871.851 1605 1699.56> 1491 20G<634.966 647.151 1728.21 1740.44>
VStem: 1605 94<0 477.867> 1641 100<995.245 1200>
DStem2: 36 0 124 0 0.372767 0.927925<32.8035 1326.36> 643 1511 607 1200 0.20323 -0.979131<297.193 1323.62> 912 215 859 -17 0.538851 0.842401<0 1222.59>
LayerCount: 3
Fore
SplineSet
124 0 m 1xd0
 36 0 l 1
 643 1511 l 1
 912 215 l 1
 1741 1511 l 1xd0
 1699 0 l 1
 1605 0 l 1xe0
 1641 1200 l 1
 859 -17 l 1
 607 1200 l 1
 124 0 l 1xd0
EndSplineSet
Validated: 1
Layer: 2
SplineSet
124 0 m 1,0,-1
 36 0 l 1,1,-1
 643 1511 l 1,2,-1
 912 215 l 1,3,-1
 1741 1511 l 1,4,-1
 1699 0 l 1,5,-1
 1605 0 l 1,6,-1
 1641 1200 l 1,7,-1
 859 -17 l 1,8,-1
 607 1200 l 1,9,-1
 124 0 l 1,0,-1
EndSplineSet
EndChar

StartChar: N
Encoding: 78 78 46
Width: 1678
VWidth: 2982
Flags: W
HStem: 0 21G<168 262.248 1494.05 1513.25> 1491 2G<484.751 503.943 1736.76 1830>
DStem2: 164.387 -17 254.387 -17 0.207912 0.978148<36.0918 1354.87> 489 1511 532 1290 0.59853 -0.8011<202.78 1634> 1420.45 -17 1509 -17 0.207912 0.978148<223.893 1543.65>
LayerCount: 3
Fore
SplineSet
168 0 m 1
 489 1511 l 1
 1467 202 l 1
 1741 1493 l 1
 1830 1493 l 1
 1509 -17 l 1
 532 1290 l 1
 258 0 l 1
 168 0 l 1
EndSplineSet
Validated: 1
Layer: 2
SplineSet
168 0 m 1,0,-1
 489 1511 l 1,1,-1
 1467 202 l 1,2,-1
 1741 1493 l 1,3,-1
 1830 1493 l 1,4,-1
 1509 -17 l 1,5,-1
 532 1290 l 1,6,-1
 258 0 l 1,7,-1
 168 0 l 1,0,-1
EndSplineSet
EndChar

StartChar: O
Encoding: 79 79 47
Width: 1758
VWidth: 2982
Flags: W
HStem: -15 89<673.47 1125.93> 1417 89<941.713 1404.79>
VStem: 265 91<384.582 840.891> 1724 91<649.325 1105.75>
LayerCount: 3
Fore
SplineSet
265 585 m 0
 265 1061 718 1506 1200 1506 c 0
 1565 1506 1815 1249 1815 904 c 0
 1815 440 1370 -15 878 -15 c 0
 513 -15 265 242 265 585 c 0
1182 1417 m 0
 759 1417 356 1027 356 602 c 0
 356 302 575 74 895 74 c 0
 1312 74 1724 457 1724 886 c 0
 1724 1191 1504 1417 1182 1417 c 0
EndSplineSet
Validated: 1
Layer: 2
SplineSet
265 585 m 0,0,1
 265 725 265 725 315.5 863 c 128,-1,2
 366 1001 366 1001 456 1115.5 c 128,-1,3
 546 1230 546 1230 662 1318.5 c 128,-1,4
 778 1407 778 1407 918 1456.5 c 128,-1,5
 1058 1506 1058 1506 1200 1506 c 0,6,7
 1379 1506 1379 1506 1520 1427.5 c 128,-1,8
 1661 1349 1661 1349 1738 1212 c 128,-1,9
 1815 1075 1815 1075 1815 904 c 0,10,11
 1815 767 1815 767 1765.5 630.5 c 128,-1,12
 1716 494 1716 494 1626.5 379.5 c 128,-1,13
 1537 265 1537 265 1421 175.5 c 128,-1,14
 1305 86 1305 86 1163.5 35.5 c 128,-1,15
 1022 -15 1022 -15 878 -15 c 0,16,17
 699 -15 699 -15 558.5 63.5 c 128,-1,18
 418 142 418 142 341.5 278.5 c 128,-1,19
 265 415 265 415 265 585 c 0,0,1
1182 1417 m 0,20,21
 1058 1417 1058 1417 934.5 1373.5 c 128,-1,22
 811 1330 811 1330 708 1252 c 128,-1,23
 605 1174 605 1174 525.5 1073 c 128,-1,24
 446 972 446 972 401 849.5 c 128,-1,25
 356 727 356 727 356 602 c 0,26,27
 356 453 356 453 423.5 333 c 128,-1,28
 491 213 491 213 614.5 143.5 c 128,-1,29
 738 74 738 74 895 74 c 0,30,31
 1049 74 1049 74 1200 141 c 128,-1,32
 1351 208 1351 208 1466 318 c 128,-1,33
 1581 428 1581 428 1652.5 578.5 c 128,-1,34
 1724 729 1724 729 1724 886 c 0,35,36
 1724 1037 1724 1037 1656.5 1158 c 128,-1,37
 1589 1279 1589 1279 1464.5 1348 c 128,-1,38
 1340 1417 1340 1417 1182 1417 c 0,20,21
EndSplineSet
EndChar

StartChar: P
Encoding: 80 80 48
Width: 1203
VWidth: 2982
Flags: W
HStem: 0 21G<168 262.223> 701 94<425 1026.16> 1406 89<555 1135.63>
VStem: 1231 94<999.253 1309.81>
DStem2: 168 0 258 0 0.207912 0.978148<18.7121 735.164 831.061 1455.74>
LayerCount: 3
Fore
SplineSet
1325 1186 m 0
 1325 947 1106 701 850 701 c 2
 406 701 l 1
 258 0 l 1
 168 0 l 1
 485 1495 l 1
 1016 1495 l 2
 1202 1495 1325 1361 1325 1186 c 0
871 795 m 2
 1050 795 1231 967 1231 1166 c 0
 1231 1303 1135 1406 996 1406 c 2
 555 1406 l 1
 425 795 l 1
 871 795 l 2
EndSplineSet
Validated: 1
Layer: 2
SplineSet
1325 1186 m 0,0,1
 1325 1068 1325 1068 1260.5 955.5 c 128,-1,2
 1196 843 1196 843 1085 772 c 128,-1,3
 974 701 974 701 850 701 c 2,4,-1
 406 701 l 1,5,-1
 258 0 l 1,6,-1
 168 0 l 1,7,-1
 485 1495 l 1,8,-1
 1016 1495 l 2,9,10
 1154 1495 1154 1495 1239.5 1407 c 128,-1,11
 1325 1319 1325 1319 1325 1186 c 0,0,1
871 795 m 2,12,13
 960 795 960 795 1043 845.5 c 128,-1,14
 1126 896 1126 896 1178.5 982.5 c 128,-1,15
 1231 1069 1231 1069 1231 1166 c 0,16,17
 1231 1270 1231 1270 1165 1338 c 128,-1,18
 1099 1406 1099 1406 996 1406 c 2,19,-1
 555 1406 l 1,20,-1
 425 795 l 1,21,-1
 871 795 l 2,12,13
EndSplineSet
EndChar

StartChar: Q
Encoding: 81 81 49
Width: 1758
VWidth: 2982
Flags: W
HStem: -15 89<673.47 1139.72> 0 21G<1529.73 1664> 1417 89<941.713 1404.79>
VStem: 265 91<384.582 840.891> 1724 91<652.997 1105.75>
DStem2: 1345 508 1231 508 0.531796 -0.846873<0 222.496 322.662 534.975>
LayerCount: 3
Fore
SplineSet
1182 1417 m 0xb8
 759 1417 356 1027 356 602 c 0
 356 302 575 74 895 74 c 0
 1072 74 1245 143 1388 252 c 1
 1231 508 l 1
 1345 508 l 1
 1464 320 l 1
 1610 461 1724 660 1724 886 c 0
 1724 1191 1504 1417 1182 1417 c 0xb8
1815 904 m 0
 1815 833 1802 521 1506 248 c 1
 1664 0 l 1
 1542 0 l 1x78
 1431 181 l 1
 1269 60 1074 -15 878 -15 c 0
 513 -15 265 242 265 585 c 0
 265 1061 718 1506 1200 1506 c 0
 1565 1506 1815 1249 1815 904 c 0
EndSplineSet
Validated: 1
Layer: 2
SplineSet
1182 1417 m 0,0,1
 1058 1417 1058 1417 934.5 1373.5 c 128,-1,2
 811 1330 811 1330 708 1252 c 128,-1,3
 605 1174 605 1174 525.5 1073 c 128,-1,4
 446 972 446 972 401 849.5 c 128,-1,5
 356 727 356 727 356 602 c 0,6,7
 356 453 356 453 423.5 333 c 128,-1,8
 491 213 491 213 614.5 143.5 c 128,-1,9
 738 74 738 74 895 74 c 0,10,11
 1154 74 1154 74 1388 252 c 1,12,-1
 1231 508 l 1,13,-1
 1345 508 l 1,14,-1
 1464 320 l 1,15,16
 1581 433 1581 433 1652.5 579 c 128,-1,17
 1724 725 1724 725 1724 886 c 0,18,19
 1724 1037 1724 1037 1656.5 1158 c 128,-1,20
 1589 1279 1589 1279 1464.5 1348 c 128,-1,21
 1340 1417 1340 1417 1182 1417 c 0,0,1
1815 904 m 0,22,23
 1815 871 1815 871 1812 834 c 128,-1,24
 1809 797 1809 797 1791 722 c 128,-1,25
 1773 647 1773 647 1743 576 c 128,-1,26
 1713 505 1713 505 1651.5 415 c 128,-1,27
 1590 325 1590 325 1506 248 c 1,28,-1
 1664 0 l 1,29,-1
 1542 0 l 1,30,-1
 1431 181 l 1,31,32
 1307 88 1307 88 1164.5 36.5 c 128,-1,33
 1022 -15 1022 -15 878 -15 c 0,34,35
 699 -15 699 -15 558.5 63.5 c 128,-1,36
 418 142 418 142 341.5 278.5 c 128,-1,37
 265 415 265 415 265 585 c 0,38,39
 265 725 265 725 315.5 863 c 128,-1,40
 366 1001 366 1001 456 1115.5 c 128,-1,41
 546 1230 546 1230 662 1318.5 c 128,-1,42
 778 1407 778 1407 918 1456.5 c 128,-1,43
 1058 1506 1058 1506 1200 1506 c 0,44,45
 1379 1506 1379 1506 1520 1427.5 c 128,-1,46
 1661 1349 1661 1349 1738 1212 c 128,-1,47
 1815 1075 1815 1075 1815 904 c 0,22,23
EndSplineSet
EndChar

StartChar: R
Encoding: 82 82 50
Width: 1203
VWidth: 2982
Flags: W
HStem: 0 21G<168 262.223 1056.24 1164> 701 89<425 826> 1403 90<555 1135.63>
VStem: 1231 94<997.647 1307>
DStem2: 168 0 258 0 0.207912 0.978148<18.7121 735.164 826.17 1452.8> 927 707 826 701 0.317837 -0.948146<0 713.565>
LayerCount: 3
Fore
SplineSet
1325 1182 m 0
 1325 976 1160 752 927 707 c 1
 1164 0 l 1
 1063 0 l 1
 826 701 l 1
 406 701 l 1
 258 0 l 1
 168 0 l 1
 483 1493 l 1
 1016 1493 l 2
 1202 1493 1325 1359 1325 1182 c 0
869 790 m 2
 1050 790 1231 965 1231 1162 c 0
 1231 1301 1135 1403 996 1403 c 2
 555 1403 l 1
 425 790 l 1
 869 790 l 2
EndSplineSet
Validated: 1
Layer: 2
SplineSet
1325 1182 m 0,0,1
 1325 1023 1325 1023 1211 881.5 c 128,-1,2
 1097 740 1097 740 927 707 c 1,3,-1
 1164 0 l 1,4,-1
 1063 0 l 1,5,-1
 826 701 l 1,6,-1
 406 701 l 1,7,-1
 258 0 l 1,8,-1
 168 0 l 1,9,-1
 483 1493 l 1,10,-1
 1016 1493 l 2,11,12
 1154 1493 1154 1493 1239.5 1405 c 128,-1,13
 1325 1317 1325 1317 1325 1182 c 0,0,1
869 790 m 2,14,15
 958 790 958 790 1042 841.5 c 128,-1,16
 1126 893 1126 893 1178.5 979.5 c 128,-1,17
 1231 1066 1231 1066 1231 1162 c 0,18,19
 1231 1267 1231 1267 1165.5 1335 c 128,-1,20
 1100 1403 1100 1403 996 1403 c 2,21,-1
 555 1403 l 1,22,-1
 425 790 l 1,23,-1
 869 790 l 2,14,15
EndSplineSet
EndChar

StartChar: S
Encoding: 83 83 51
Width: 1177
VWidth: 2982
Flags: W
HStem: -17 92<431.184 799.202> 1200 21G<1126.5 1197.76> 1417 94<732.475 1038.62>
VStem: 211 92<202.859 421> 478 93<1009.92 1256.57> 1065 93<327.945 621.848> 1135 91<1224.43 1316.55>
LayerCount: 3
Fore
SplineSet
478 1095 m 0xfc
 478 1284 656 1511 910 1511 c 0
 1062 1511 1203 1414 1226 1229 c 1
 1135 1200 l 1xfa
 1118 1350 1008 1417 890 1417 c 0
 695 1417 571 1245 571 1116 c 0
 571 842 1158 885 1158 515 c 0
 1158 237 885 -17 581 -17 c 0
 385 -17 211 98 211 366 c 0
 211 384 211 402 213 421 c 1
 305 432 l 1
 304 417 303 402 303 388 c 0
 303 165 440 75 601 75 c 0
 850 75 1065 280 1065 495 c 0
 1065 816 478 766 478 1095 c 0xfc
EndSplineSet
Validated: 1
Layer: 2
SplineSet
478 1095 m 0,0,1
 478 1166 478 1166 510.5 1239.5 c 128,-1,2
 543 1313 543 1313 598 1373.5 c 128,-1,3
 653 1434 653 1434 735.5 1472.5 c 128,-1,4
 818 1511 818 1511 910 1511 c 0,5,6
 1030 1511 1030 1511 1119.5 1436.5 c 128,-1,7
 1209 1362 1209 1362 1226 1229 c 1,8,-1
 1135 1200 l 1,9,10
 1123 1307 1123 1307 1054 1362 c 128,-1,11
 985 1417 985 1417 890 1417 c 0,12,13
 798 1417 798 1417 722.5 1368 c 128,-1,14
 647 1319 647 1319 609 1251 c 128,-1,15
 571 1183 571 1183 571 1116 c 0,16,17
 571 1061 571 1061 603.5 1016.5 c 128,-1,18
 636 972 636 972 687.5 941 c 128,-1,19
 739 910 739 910 802 881.5 c 128,-1,20
 865 853 865 853 927.5 820 c 128,-1,21
 990 787 990 787 1041.5 748.5 c 128,-1,22
 1093 710 1093 710 1125.5 650 c 128,-1,23
 1158 590 1158 590 1158 515 c 0,24,25
 1158 379 1158 379 1078 255.5 c 128,-1,26
 998 132 998 132 864 57.5 c 128,-1,27
 730 -17 730 -17 581 -17 c 0,28,29
 505 -17 505 -17 440 5.5 c 128,-1,30
 375 28 375 28 323 73.5 c 128,-1,31
 271 119 271 119 241 194 c 128,-1,32
 211 269 211 269 211 366 c 0,33,34
 211 402 211 402 213 421 c 1,35,-1
 305 432 l 1,36,37
 303 402 303 402 303 388 c 0,38,39
 303 230 303 230 386.5 152.5 c 128,-1,40
 470 75 470 75 601 75 c 0,41,42
 722 75 722 75 830 135 c 128,-1,43
 938 195 938 195 1001.5 292 c 128,-1,44
 1065 389 1065 389 1065 495 c 0,45,46
 1065 560 1065 560 1032.5 611.5 c 128,-1,47
 1000 663 1000 663 948.5 697.5 c 128,-1,48
 897 732 897 732 834 762 c 128,-1,49
 771 792 771 792 708.5 822.5 c 128,-1,50
 646 853 646 853 594.5 888 c 128,-1,51
 543 923 543 923 510.5 975.5 c 128,-1,52
 478 1028 478 1028 478 1095 c 0,0,1
EndSplineSet
EndChar

StartChar: T
Encoding: 84 84 52
Width: 982
VWidth: 2982
Flags: W
HStem: 0 21G<448 542.234> 1403 90<376 745 835 1224>
DStem2: 448 0 538 0 0.207912 0.978148<18.7121 1434.09>
LayerCount: 3
Fore
SplineSet
1243 1493 m 1
 1224 1403 l 1
 835 1403 l 1
 538 0 l 1
 448 0 l 1
 745 1403 l 1
 359 1403 l 1
 376 1493 l 1
 1243 1493 l 1
EndSplineSet
Validated: 1
Layer: 2
SplineSet
1243 1493 m 1,0,-1
 1224 1403 l 1,1,-1
 835 1403 l 1,2,-1
 538 0 l 1,3,-1
 448 0 l 1,4,-1
 745 1403 l 1,5,-1
 359 1403 l 1,6,-1
 376 1493 l 1,7,-1
 1243 1493 l 1,0,-1
EndSplineSet
EndChar

StartChar: U
Encoding: 85 85 53
Width: 1393
VWidth: 2982
Flags: W
HStem: -15 89<543.917 902.262> 1473 20G<478.814 573 1452.75 1547>
VStem: 273 92<261.73 696.359>
DStem2: 165.505 -15 254.505 -15 0.207912 0.978148<500.814 1541.06> 1136.5 -15 1226.5 -15 0.207912 0.978148<374.172 1541.68>
LayerCount: 3
Fore
SplineSet
483 1493 m 1
 573 1493 l 1
 378 566 l 2
 369 526 365 487 365 453 c 0
 365 231 513 74 716 74 c 0
 955 74 1202 289 1260 566 c 2
 1457 1493 l 1
 1547 1493 l 1
 1350 566 l 2
 1283 248 991 -15 696 -15 c 0
 444 -15 273 177 273 432 c 0
 273 477 280 521 289 566 c 2
 483 1493 l 1
EndSplineSet
Validated: 1
Layer: 2
SplineSet
483 1493 m 1,0,-1
 573 1493 l 1,1,-1
 378 566 l 2,2,3
 365 508 365 508 365 453 c 0,4,5
 365 287 365 287 464 180.5 c 128,-1,6
 563 74 563 74 716 74 c 0,7,8
 834 74 834 74 949 138.5 c 128,-1,9
 1064 203 1064 203 1148 316.5 c 128,-1,10
 1232 430 1232 430 1260 566 c 2,11,-1
 1457 1493 l 1,12,-1
 1547 1493 l 1,13,-1
 1350 566 l 2,14,15
 1317 409 1317 409 1218 275.5 c 128,-1,16
 1119 142 1119 142 980 63.5 c 128,-1,17
 841 -15 841 -15 696 -15 c 0,18,19
 509 -15 509 -15 391 112 c 128,-1,20
 273 239 273 239 273 432 c 0,21,22
 273 486 273 486 289 566 c 2,23,-1
 483 1493 l 1,0,-1
EndSplineSet
EndChar

StartChar: V
Encoding: 86 86 54
Width: 1286
VWidth: 2982
Flags: W
HStem: -17 21G<645.093 661.225> 1473 20G<354 451.94 1460.79 1572>
DStem2: 448 1493 354 1493 0.191739 -0.981446<0 1293.39> 698 224 649 -17 0.521541 0.853226<0 1486.94>
LayerCount: 3
Fore
SplineSet
1473 1493 m 1
 1572 1493 l 1
 649 -17 l 1
 354 1493 l 1
 448 1493 l 1
 698 224 l 1
 1473 1493 l 1
EndSplineSet
Validated: 1
Layer: 2
SplineSet
1473 1493 m 1,0,-1
 1572 1493 l 1,1,-1
 649 -17 l 1,2,-1
 354 1493 l 1,3,-1
 448 1493 l 1,4,-1
 698 224 l 1,5,-1
 1473 1493 l 1,0,-1
EndSplineSet
EndChar

StartChar: W
Encoding: 87 87 55
Width: 1965
VWidth: 2982
Flags: W
HStem: -17 21G<552.152 566.108 1405.42 1419.28> 1473 20G<340 432.866 1291.89 1305.6 2152.7 2260>
DStem2: 430 1493 340 1493 0.140962 -0.990015<0 1247.62> 607 258 555 -17 0.485584 0.87419<0 1159.61> 1303 1511 1247 1229 0.129001 -0.991645<272.42 1263.56> 1466 258 1408 -17 0.491411 0.870928<0 1418.6>
LayerCount: 3
Fore
SplineSet
340 1493 m 1
 430 1493 l 1
 607 258 l 1
 1303 1511 l 1
 1466 258 l 1
 2164 1493 l 1
 2260 1493 l 1
 1408 -17 l 1
 1247 1229 l 1
 555 -17 l 1
 340 1493 l 1
EndSplineSet
Validated: 1
Layer: 2
SplineSet
340 1493 m 1,0,-1
 430 1493 l 1,1,-1
 607 258 l 1,2,-1
 1303 1511 l 1,3,-1
 1466 258 l 1,4,-1
 2164 1493 l 1,5,-1
 2260 1493 l 1,6,-1
 1408 -17 l 1,7,-1
 1247 1229 l 1,8,-1
 555 -17 l 1,9,-1
 340 1493 l 1,0,-1
EndSplineSet
EndChar

StartChar: X
Encoding: 88 88 56
Width: 964
VWidth: 2982
Flags: W
HStem: 0 21G<25 140.411 836.099 942> 1473 20G<401 507.874 1085.57 1200>
DStem2: 25 0 126 0 0.584319 0.811524<59.0162 927.975 1113.43 1839.75> 502 1493 401 1493 0.283279 -0.959038<0 613.88 793.114 1528.16>
LayerCount: 3
Fore
SplineSet
401 1493 m 1
 502 1493 l 1
 675 904 l 1
 1100 1493 l 1
 1200 1493 l 1
 705 806 l 1
 942 0 l 1
 842 0 l 1
 634 705 l 1
 126 0 l 1
 25 0 l 1
 604 806 l 1
 401 1493 l 1
EndSplineSet
Validated: 1
Layer: 2
SplineSet
401 1493 m 1,0,-1
 502 1493 l 1,1,-1
 675 904 l 1,2,-1
 1100 1493 l 1,3,-1
 1200 1493 l 1,4,-1
 705 806 l 1,5,-1
 942 0 l 1,6,-1
 842 0 l 1,7,-1
 634 705 l 1,8,-1
 126 0 l 1,9,-1
 25 0 l 1,10,-1
 604 806 l 1,11,-1
 401 1493 l 1,0,-1
EndSplineSet
EndChar

StartChar: Y
Encoding: 89 89 57
Width: 1228
VWidth: 2982
Flags: W
HStem: 0 21G<571 664.248> 1473 20G<354 465.404 1389.16 1511>
DStem2: 457 1493 354 1493 0.384306 -0.923206<0 815.691> 571 0 660 0 0.207912 0.978148<18.5041 659.181> 773 741 797 645 0.64408 0.764958<0 982.951>
LayerCount: 3
Fore
SplineSet
354 1493 m 1
 457 1493 l 1
 773 741 l 1
 1406 1493 l 1
 1511 1493 l 1
 797 645 l 1
 660 0 l 1
 571 0 l 1
 707 645 l 1
 354 1493 l 1
EndSplineSet
Validated: 1
Layer: 2
SplineSet
354 1493 m 1,0,-1
 457 1493 l 1,1,-1
 773 741 l 1,2,-1
 1406 1493 l 1,3,-1
 1511 1493 l 1,4,-1
 797 645 l 1,5,-1
 660 0 l 1,6,-1
 571 0 l 1,7,-1
 707 645 l 1,8,-1
 354 1493 l 1,0,-1
EndSplineSet
EndChar

StartChar: Z
Encoding: 90 90 58
Width: 1185
VWidth: 2982
Flags: W
HStem: 0 90<222 1121> 1403 90<453 1262>
DStem2: 36 0 222 90 0.65801 0.753009<190.161 1863.19>
LayerCount: 3
Fore
SplineSet
453 1493 m 1
 1448 1493 l 1
 222 90 l 1
 1171 90 l 1
 1121 0 l 1
 36 0 l 1
 1262 1403 l 1
 403 1403 l 1
 453 1493 l 1
EndSplineSet
Validated: 1
Layer: 2
SplineSet
453 1493 m 1,0,-1
 1448 1493 l 1,1,-1
 222 90 l 1,2,-1
 1171 90 l 1,3,-1
 1121 0 l 1,4,-1
 36 0 l 1,5,-1
 1262 1403 l 1,6,-1
 403 1403 l 1,7,-1
 453 1493 l 1,0,-1
EndSplineSet
EndChar

StartChar: bracketleft
Encoding: 91 91 59
Width: 433
VWidth: 2982
Flags: W
HStem: -314 90<208 369> 1493 90<573 752>
VStem: 101 672
DStem2: 101 -314 188.87 -314 0.207912 0.978148<110.28 1865.65>
LayerCount: 3
Fore
SplineSet
573 1493 m 1
 208 -224 l 1
 387 -224 l 1
 369 -314 l 1
 101 -314 l 1
 504 1583 l 1
 773 1583 l 1
 752 1493 l 1
 573 1493 l 1
EndSplineSet
Validated: 1
Layer: 2
SplineSet
573 1493 m 1,0,-1
 208 -224 l 1,1,-1
 387 -224 l 1,2,-1
 369 -314 l 1,3,-1
 101 -314 l 1,4,-1
 504 1583 l 1,5,-1
 773 1583 l 1,6,-1
 752 1493 l 1,7,-1
 573 1493 l 1,0,-1
EndSplineSet
EndChar

StartChar: backslash
Encoding: 92 92 60
Width: 1168
VWidth: 2982
Flags: W
HStem: 0 21G<1049.07 1171> 1473 20G<318 436.967>
DStem2: 427 1493 318 1493 0.446014 -0.895026<0 1618.15>
LayerCount: 3
Fore
SplineSet
318 1493 m 1
 427 1493 l 1
 1171 0 l 1
 1059 0 l 1
 318 1493 l 1
EndSplineSet
Validated: 1
Layer: 2
SplineSet
318 1493 m 1,0,-1
 427 1493 l 1,1,-1
 1171 0 l 1,2,-1
 1059 0 l 1,3,-1
 318 1493 l 1,0,-1
EndSplineSet
EndChar

StartChar: bracketright
Encoding: 93 93 61
Width: 433
VWidth: 2982
Flags: W
HStem: -314 90<-47 132> 1493 90<336 497>
VStem: -67 671
DStem2: 112.87 -314 201 -314 0.207912 0.978148<92.0107 1847.38>
LayerCount: 3
Fore
SplineSet
497 1493 m 1
 318 1493 l 1
 336 1583 l 1
 604 1583 l 1
 201 -314 l 1
 -67 -314 l 1
 -47 -224 l 1
 132 -224 l 1
 497 1493 l 1
EndSplineSet
Validated: 1
Layer: 2
SplineSet
497 1493 m 1,0,-1
 318 1493 l 1,1,-1
 336 1583 l 1,2,-1
 604 1583 l 1,3,-1
 201 -314 l 1,4,-1
 -67 -314 l 1,5,-1
 -47 -224 l 1,6,-1
 132 -224 l 1,7,-1
 497 1493 l 1,0,-1
EndSplineSet
EndChar

StartChar: asciicircum
Encoding: 94 94 62
Width: 1196
VWidth: 2982
Flags: W
HStem: 1473 20G<853.305 979.032>
DStem2: 282 745 385 745 0.617357 0.786683<63.5878 896.017> 972 1493 900 1399 0.331698 -0.943385<64.796 758.724>
LayerCount: 3
Fore
SplineSet
869 1493 m 1
 972 1493 l 1
 1235 745 l 1
 1132 745 l 1
 900 1399 l 1
 385 745 l 1
 282 745 l 1
 869 1493 l 1
EndSplineSet
Validated: 1
Layer: 2
SplineSet
869 1493 m 1,0,-1
 972 1493 l 1,1,-1
 1235 745 l 1,2,-1
 1132 745 l 1,3,-1
 900 1399 l 1,4,-1
 385 745 l 1,5,-1
 282 745 l 1,6,-1
 869 1493 l 1,0,-1
EndSplineSet
EndChar

StartChar: underscore
Encoding: 95 95 63
Width: 970
VWidth: 2982
Flags: W
HStem: -90 90<0 953>
LayerCount: 3
Fore
SplineSet
974 0 m 1
 953 -90 l 1
 -20 -90 l 1
 0 0 l 1
 974 0 l 1
EndSplineSet
Validated: 1
Layer: 2
SplineSet
974 0 m 1,0,-1
 953 -90 l 1,1,-1
 -20 -90 l 1,2,-1
 0 0 l 1,3,-1
 974 0 l 1,0,-1
EndSplineSet
EndChar

StartChar: quoteleft
Encoding: 8216 8216 64
Width: 523
VWidth: 2982
Flags: W
HStem: 1083 430
VStem: 380 224<1114.07 1279.5>
LayerCount: 3
Fore
SplineSet
604 1207 m 0
 604 1141 544 1083 481 1083 c 0
 432 1083 380 1117 380 1186 c 0
 380 1254 434 1401 602 1513 c 1
 679 1513 l 1
 591 1455 515 1354 502 1285 c 1
 508 1285 515 1288 524 1288 c 0
 571 1288 604 1254 604 1207 c 0
EndSplineSet
Validated: 1
Layer: 2
SplineSet
604 1207 m 0,0,1
 604 1158 604 1158 566.5 1120.5 c 128,-1,2
 529 1083 529 1083 481 1083 c 0,3,4
 441 1083 441 1083 410.5 1110 c 128,-1,5
 380 1137 380 1137 380 1186 c 0,6,7
 380 1225 380 1225 399 1276 c 128,-1,8
 418 1327 418 1327 471 1394 c 128,-1,9
 524 1461 524 1461 602 1513 c 1,10,-1
 679 1513 l 1,11,12
 614 1470 614 1470 563 1403.5 c 128,-1,13
 512 1337 512 1337 502 1285 c 1,14,15
 505 1285 505 1285 512 1286.5 c 128,-1,16
 519 1288 519 1288 524 1288 c 0,17,18
 559 1288 559 1288 581.5 1265 c 128,-1,19
 604 1242 604 1242 604 1207 c 0,0,1
EndSplineSet
EndChar

StartChar: a
Encoding: 97 97 65
Width: 1060
VWidth: 2982
Flags: W
HStem: -17 89<292.78 600.75> 0 21G<824 920> 517 64<558.311 916> 942 90<535.257 832.057>
VStem: 150 92<124.328 342.647> 824 96<0 171.638> 938 92<501.429 832.005>
DStem2: 802.904 -17 892.904 -17 0.207912 0.978148<88.7154 234.766 270.719 545.845 611.149 697.902>
LayerCount: 3
Fore
SplineSet
920 0 m 1x7e
 824 0 l 1x7e
 824 27 l 2
 824 58 826 94 835 134 c 1
 850 213 l 1
 739 90 575 -17 416 -17 c 0xbe
 224 -17 150 96 150 205 c 0
 150 226 152 244 156 262 c 0
 224 577 649 581 902 581 c 2
 929 581 l 1
 936 613 938 643 938 669 c 0
 938 846 826 942 694 942 c 0
 602 942 497 895 410 797 c 1
 346 844 l 1
 459 974 596 1032 714 1032 c 0
 889 1032 1030 912 1030 694 c 0
 1030 658 1025 622 1019 581 c 1
 925 134 l 2
 918 101 914 72 914 49 c 0
 914 30 916 13 920 0 c 1x7e
436 72 m 0xbe
 600 72 786 205 875 325 c 1
 916 517 l 1
 698 513 297 502 246 262 c 0
 244 250 242 239 242 228 c 0
 242 152 295 72 436 72 c 0xbe
EndSplineSet
Validated: 1
Layer: 2
SplineSet
920 0 m 1,0,-1
 824 0 l 1,1,-1
 824 27 l 2,2,3
 824 85 824 85 835 134 c 2,4,-1
 850 213 l 1,5,6
 760 113 760 113 644.5 48 c 128,-1,7
 529 -17 529 -17 416 -17 c 0,8,9
 282 -17 282 -17 216 48 c 128,-1,10
 150 113 150 113 150 205 c 0,11,12
 150 235 150 235 156 262 c 0,13,14
 167 313 167 313 192 356 c 128,-1,15
 217 399 217 399 247.5 429.5 c 128,-1,16
 278 460 278 460 324 484.5 c 128,-1,17
 370 509 370 509 411 524.5 c 128,-1,18
 452 540 452 540 510 551.5 c 128,-1,19
 568 563 568 563 610.5 568.5 c 128,-1,20
 653 574 653 574 714.5 577 c 128,-1,21
 776 580 776 580 811.5 580.5 c 128,-1,22
 847 581 847 581 902 581 c 2,23,-1
 929 581 l 1,24,25
 938 622 938 622 938 669 c 0,26,27
 938 797 938 797 868 869.5 c 128,-1,28
 798 942 798 942 694 942 c 0,29,30
 623 942 623 942 548 905 c 128,-1,31
 473 868 473 868 410 797 c 1,32,-1
 346 844 l 1,33,34
 427 938 427 938 524 985 c 128,-1,35
 621 1032 621 1032 714 1032 c 0,36,37
 851 1032 851 1032 940.5 942 c 128,-1,38
 1030 852 1030 852 1030 694 c 0,39,40
 1030 656 1030 656 1019 581 c 1,41,-1
 925 134 l 2,42,43
 914 82 914 82 914 49 c 0,44,45
 914 20 914 20 920 0 c 1,0,-1
436 72 m 0,46,47
 552 72 552 72 677 149.5 c 128,-1,48
 802 227 802 227 875 325 c 1,49,-1
 916 517 l 1,50,51
 868 516 868 516 836.5 515 c 128,-1,52
 805 514 805 514 750 510.5 c 128,-1,53
 695 507 695 507 656 502.5 c 128,-1,54
 617 498 617 498 564.5 488 c 128,-1,55
 512 478 512 478 474 465.5 c 128,-1,56
 436 453 436 453 394.5 433.5 c 128,-1,57
 353 414 353 414 325.5 390.5 c 128,-1,58
 298 367 298 367 276 334 c 128,-1,59
 254 301 254 301 246 262 c 0,60,61
 242 238 242 238 242 228 c 0,62,63
 242 164 242 164 290 118 c 128,-1,64
 338 72 338 72 436 72 c 0,46,47
EndSplineSet
EndChar

StartChar: b
Encoding: 98 98 66
Width: 1215
VWidth: 2982
Flags: W
HStem: -15 89<498.288 821.355> 0 21G<143 248.5> 940 90<682.385 985.39> 1473 20G<480.747 575>
VStem: 1129 86<412.827 786.645>
DStem2: 164.329 -15 254.329 -15 0.207912 0.978148<32.1294 299.901 451.98 764.761 804.937 1541.72>
LayerCount: 3
Fore
SplineSet
239 0 m 1x78
 143 0 l 1x78
 164 30 183 74 196 134 c 2
 485 1493 l 1
 575 1493 l 1
 418 754 l 1
 497 897 696 1030 853 1030 c 0
 1074 1030 1215 856 1215 630 c 0
 1215 297 923 -15 631 -15 c 0xb8
 474 -15 334 126 313 260 c 1
 286 134 l 2
 275 83 258 38 239 0 c 1x78
366 508 m 0
 358 473 355 438 355 405 c 0
 355 214 476 74 650 74 c 0xb8
 883 74 1129 330 1129 610 c 0
 1129 802 1006 940 834 940 c 0
 630 940 417 750 366 508 c 0
EndSplineSet
Validated: 1
Layer: 2
SplineSet
239 0 m 1,0,-1
 143 0 l 1,1,2
 178 50 178 50 196 134 c 2,3,-1
 485 1493 l 1,4,-1
 575 1493 l 1,5,-1
 418 754 l 1,6,7
 478 863 478 863 607.5 946.5 c 128,-1,8
 737 1030 737 1030 853 1030 c 0,9,10
 1016 1030 1016 1030 1115.5 916.5 c 128,-1,11
 1215 803 1215 803 1215 630 c 0,12,13
 1215 468 1215 468 1130.5 317.5 c 128,-1,14
 1046 167 1046 167 910 76 c 128,-1,15
 774 -15 774 -15 631 -15 c 0,16,17
 517 -15 517 -15 423 70 c 128,-1,18
 329 155 329 155 313 260 c 1,19,-1
 286 134 l 2,20,21
 271 64 271 64 239 0 c 1,0,-1
366 508 m 0,22,23
 355 460 355 460 355 405 c 0,24,25
 355 261 355 261 437.5 167.5 c 128,-1,26
 520 74 520 74 650 74 c 0,27,28
 736 74 736 74 823 119 c 128,-1,29
 910 164 910 164 977 236.5 c 128,-1,30
 1044 309 1044 309 1086.5 408.5 c 128,-1,31
 1129 508 1129 508 1129 610 c 0,32,33
 1129 754 1129 754 1046 847 c 128,-1,34
 963 940 963 940 834 940 c 0,35,36
 680 940 680 940 542 814 c 128,-1,37
 404 688 404 688 366 508 c 0,22,23
EndSplineSet
EndChar

StartChar: c
Encoding: 99 99 67
Width: 1098
VWidth: 2982
Flags: W
HStem: -11 92<449.083 776.821> 940 92<613.384 939.104>
VStem: 218 89<229.235 614.104>
LayerCount: 3
Fore
SplineSet
786 940 m 0
 553 940 307 694 307 410 c 0
 307 220 427 81 602 81 c 0
 734 81 867 158 961 280 c 1
 1030 235 l 1
 918 90 750 -11 581 -11 c 0
 361 -11 218 161 218 387 c 0
 218 724 510 1032 803 1032 c 0
 972 1032 1097 931 1147 786 c 1
 1059 741 l 1
 1016 861 916 940 786 940 c 0
EndSplineSet
Validated: 1
Layer: 2
SplineSet
786 940 m 0,0,1
 700 940 700 940 613 896.5 c 128,-1,2
 526 853 526 853 459 782 c 128,-1,3
 392 711 392 711 349.5 612 c 128,-1,4
 307 513 307 513 307 410 c 0,5,6
 307 267 307 267 389.5 174 c 128,-1,7
 472 81 472 81 602 81 c 0,8,9
 700 81 700 81 795 134 c 128,-1,10
 890 187 890 187 961 280 c 1,11,-1
 1030 235 l 1,12,13
 944 123 944 123 824.5 56 c 128,-1,14
 705 -11 705 -11 581 -11 c 0,15,16
 418 -11 418 -11 318 102 c 128,-1,17
 218 215 218 215 218 387 c 0,18,19
 218 510 218 510 268.5 629.5 c 128,-1,20
 319 749 319 749 400 836.5 c 128,-1,21
 481 924 481 924 588 978 c 128,-1,22
 695 1032 695 1032 803 1032 c 0,23,24
 927 1032 927 1032 1018 965 c 128,-1,25
 1109 898 1109 898 1147 786 c 1,26,-1
 1059 741 l 1,27,28
 1026 833 1026 833 954 886.5 c 128,-1,29
 882 940 882 940 786 940 c 0,0,1
EndSplineSet
EndChar

StartChar: d
Encoding: 100 100 68
Width: 1215
VWidth: 2982
Flags: W
HStem: -15 89<449.201 752.278> 0 21G<977.5 1074> 940 90<614.328 936.35> 1473 20G<1273.75 1367>
VStem: 219 86<228.735 598.642> 977 91<0 180.316>
DStem2: 957.329 -15 1046.33 -15 0.207912 0.978148<85.7375 281.189 323.506 635.333 786.225 1541.72>
LayerCount: 3
Fore
SplineSet
1074 0 m 1x7c
 978 0 l 1x7c
 977 8 977 17 977 26 c 0
 977 58 981 94 989 134 c 2
 1016 260 l 1
 939 126 738 -15 582 -15 c 0xbc
 361 -15 219 158 219 385 c 0
 219 718 514 1030 804 1030 c 0
 960 1030 1102 897 1121 754 c 1
 1278 1493 l 1
 1367 1493 l 1
 1078 134 l 2
 1071 101 1068 72 1068 48 c 0
 1068 29 1070 13 1074 0 c 1x7c
1069 508 m 0
 1077 543 1080 577 1080 610 c 0
 1080 801 958 940 785 940 c 0
 554 940 305 695 305 407 c 0
 305 215 428 74 601 74 c 0xbc
 804 74 1018 267 1069 508 c 0
EndSplineSet
Validated: 1
Layer: 2
SplineSet
1074 0 m 1,0,-1
 978 0 l 1,1,2
 977 8 977 8 977 26 c 0,3,4
 977 74 977 74 989 134 c 2,5,-1
 1016 260 l 1,6,7
 956 156 956 156 825.5 70.5 c 128,-1,8
 695 -15 695 -15 582 -15 c 0,9,10
 419 -15 419 -15 319 98.5 c 128,-1,11
 219 212 219 212 219 385 c 0,12,13
 219 507 219 507 270 626 c 128,-1,14
 321 745 321 745 402.5 833 c 128,-1,15
 484 921 484 921 590.5 975.5 c 128,-1,16
 697 1030 697 1030 804 1030 c 0,17,18
 919 1030 919 1030 1013 946.5 c 128,-1,19
 1107 863 1107 863 1121 754 c 1,20,-1
 1278 1493 l 1,21,-1
 1367 1493 l 1,22,-1
 1078 134 l 2,23,24
 1068 87 1068 87 1068 48 c 0,25,26
 1068 19.5 1068 19.5 1074 0 c 1,0,-1
1069 508 m 0,27,28
 1080 556 1080 556 1080 610 c 0,29,30
 1080 754 1080 754 997 847 c 128,-1,31
 914 940 914 940 785 940 c 0,32,33
 699 940 699 940 612.5 896.5 c 128,-1,34
 526 853 526 853 458 782 c 128,-1,35
 390 711 390 711 347.5 611.5 c 128,-1,36
 305 512 305 512 305 407 c 0,37,38
 305 263 305 263 388.5 168.5 c 128,-1,39
 472 74 472 74 601 74 c 0,40,41
 754 74 754 74 892.5 201 c 128,-1,42
 1031 328 1031 328 1069 508 c 0,27,28
EndSplineSet
EndChar

StartChar: e
Encoding: 101 101 69
Width: 1177
VWidth: 2982
Flags: W
HStem: -15 94<446.019 784.081> 508 85<346 1083> 940 90<616.149 940.586>
VStem: 218 89<225.941 499.983> 1083 92<594.085 786.578>
LayerCount: 3
Fore
SplineSet
346 593 m 1
 1083 593 l 1
 1083 609 l 2
 1083 801 963 940 788 940 c 0
 611 940 425 795 346 593 c 1
218 385 m 0
 218 720 515 1030 806 1030 c 0
 1030 1030 1175 855 1175 628 c 0
 1175 604 1175 577 1171 553 c 2
 1164 508 l 1
 318 508 l 1
 312 472 307 438 307 406 c 0
 307 215 427 79 602 79 c 0
 732 79 895 154 989 278 c 1
 1059 233 l 1
 947 87 750 -15 581 -15 c 0
 361 -15 218 158 218 385 c 0
EndSplineSet
Validated: 1
Layer: 2
SplineSet
346 593 m 1,0,-1
 1083 593 l 1,1,-1
 1083 609 l 2,2,3
 1083 754 1083 754 1001 847 c 128,-1,4
 919 940 919 940 788 940 c 0,5,6
 655 940 655 940 530 842 c 128,-1,7
 405 744 405 744 346 593 c 1,0,-1
218 385 m 0,8,9
 218 548 218 548 304 698.5 c 128,-1,10
 390 849 390 849 526.5 939.5 c 128,-1,11
 663 1030 663 1030 806 1030 c 0,12,13
 971 1030 971 1030 1073 915.5 c 128,-1,14
 1175 801 1175 801 1175 628 c 0,15,16
 1175 577 1175 577 1171 553 c 2,17,-1
 1164 508 l 1,18,-1
 318 508 l 1,19,20
 307 442 307 442 307 406 c 0,21,22
 307 262 307 262 389 170.5 c 128,-1,23
 471 79 471 79 602 79 c 0,24,25
 703 79 703 79 811.5 133 c 128,-1,26
 920 187 920 187 989 278 c 1,27,-1
 1059 233 l 1,28,29
 975 124 975 124 841.5 54.5 c 128,-1,30
 708 -15 708 -15 581 -15 c 0,31,32
 418 -15 418 -15 318 98.5 c 128,-1,33
 218 212 218 212 218 385 c 0,8,9
EndSplineSet
EndChar

StartChar: f
Encoding: 102 102 70
Width: 532
VWidth: 2982
Flags: W
HStem: 0 21G<164 256.281> 925 89<293 361 470 701> 1448 58<731.122 842>
DStem2: 164 0 252 0 0.207912 0.978148<18.2962 945.745 1055.46 1323.75>
LayerCount: 3
Fore
SplineSet
164 0 m 1
 361 925 l 1
 275 925 l 1
 293 1014 l 1
 380 1014 l 1
 399 1104 l 2
 446 1325 649 1506 855 1506 c 1
 842 1448 l 1
 690 1448 526 1280 487 1104 c 1
 470 1014 l 1
 750 1014 l 1
 701 925 l 1
 450 925 l 1
 252 0 l 1
 164 0 l 1
EndSplineSet
Validated: 1
Layer: 2
SplineSet
164 0 m 1,0,-1
 361 925 l 1,1,-1
 275 925 l 1,2,-1
 293 1014 l 1,3,-1
 380 1014 l 1,4,-1
 399 1104 l 2,5,6
 434 1270 434 1270 567.5 1388 c 128,-1,7
 701 1506 701 1506 855 1506 c 1,8,-1
 842 1448 l 1,9,10
 730 1448 730 1448 623.5 1343 c 128,-1,11
 517 1238 517 1238 487 1104 c 1,12,-1
 470 1014 l 1,13,-1
 750 1014 l 1,14,-1
 701 925 l 1,15,-1
 450 925 l 1,16,-1
 252 0 l 1,17,-1
 164 0 l 1,0,-1
EndSplineSet
EndChar

StartChar: g
Encoding: 103 103 71
Width: 1215
VWidth: 2982
Flags: W
HStem: -521 89<336.812 662.659> -15 89<442.062 753.334> 940 90<615.825 930.011> 994 20G<1184.5 1290>
VStem: 219 81<233.137 596.357>
DStem2: 850.258 -521 939.258 -521 0.207912 0.978148<325.06 798.393 849.923 1151.29 1303.43 1570.99>
LayerCount: 3
Fore
SplineSet
1194 1014 m 1xd8
 1290 1014 l 1xd8
 1269 985 1250 940 1237 880 c 2
 1050 0 l 2
 990 -284 731 -521 470 -521 c 0
 352 -521 256 -472 192 -391 c 1
 270 -329 l 1
 322 -393 401 -432 493 -432 c 0
 696 -432 910 -242 961 0 c 2
 1016 260 l 1
 936 116 738 -15 582 -15 c 0
 361 -15 219 158 219 385 c 0
 219 718 514 1030 804 1030 c 0xe8
 960 1030 1101 889 1121 754 c 1
 1148 880 l 2
 1159 931 1175 976 1194 1014 c 1xd8
1063 508 m 0
 1070 543 1074 577 1074 610 c 0
 1074 801 952 940 779 940 c 0xe8
 544 940 300 685 300 406 c 0
 300 215 422 74 595 74 c 0
 797 74 1012 267 1063 508 c 0
EndSplineSet
Validated: 1
Layer: 2
SplineSet
1194 1014 m 1,0,-1
 1290 1014 l 1,1,2
 1256 967 1256 967 1237 880 c 2,3,-1
 1050 0 l 2,4,5
 1020 -140 1020 -140 932.5 -260 c 128,-1,6
 845 -380 845 -380 721.5 -450.5 c 128,-1,7
 598 -521 598 -521 470 -521 c 0,8,9
 295 -521 295 -521 192 -391 c 1,10,-1
 270 -329 l 1,11,12
 354 -432 354 -432 493 -432 c 0,13,14
 647 -432 647 -432 785 -306 c 128,-1,15
 923 -180 923 -180 961 0 c 2,16,-1
 1016 260 l 1,17,18
 955 151 955 151 826.5 68 c 128,-1,19
 698 -15 698 -15 582 -15 c 0,20,21
 419 -15 419 -15 319 98.5 c 128,-1,22
 219 212 219 212 219 385 c 0,23,24
 219 507 219 507 270 626 c 128,-1,25
 321 745 321 745 402.5 833 c 128,-1,26
 484 921 484 921 590.5 975.5 c 128,-1,27
 697 1030 697 1030 804 1030 c 0,28,29
 918 1030 918 1030 1011.5 944.5 c 128,-1,30
 1105 859 1105 859 1121 754 c 1,31,-1
 1148 880 l 2,32,33
 1164 954 1164 954 1194 1014 c 1,0,-1
1063 508 m 0,34,35
 1074 563 1074 563 1074 610 c 0,36,37
 1074 754 1074 754 991 847 c 128,-1,38
 908 940 908 940 779 940 c 0,39,40
 663 940 663 940 552 865.5 c 128,-1,41
 441 791 441 791 370.5 666.5 c 128,-1,42
 300 542 300 542 300 406 c 0,43,44
 300 262 300 262 383 168 c 128,-1,45
 466 74 466 74 595 74 c 0,46,47
 748 74 748 74 886.5 201.5 c 128,-1,48
 1025 329 1025 329 1063 508 c 0,34,35
EndSplineSet
EndChar

StartChar: h
Encoding: 104 104 72
Width: 1071
VWidth: 2982
Flags: W
HStem: 0 21G<168 262.213 818 910.313> 940 90<682.595 915.301> 1473 20G<478.78 573>
VStem: 963 92<565.77 889.562>
DStem2: 168 0 258 0 0.207912 0.978148<18.7121 718.607 760.866 1525.87> 818 0 906 0 0.207912 0.978148<18.2962 751.255>
LayerCount: 3
Fore
SplineSet
168 0 m 1
 483 1493 l 1
 573 1493 l 1
 412 726 l 1
 513 884 694 1030 820 1030 c 0
 985 1030 1055 914 1055 756 c 0
 1055 716 1050 671 1041 626 c 2
 906 0 l 1
 818 0 l 1
 951 626 l 2
 959 662 963 701 963 739 c 0
 963 844 927 940 797 940 c 0
 634 940 396 660 365 508 c 2
 258 0 l 1
 168 0 l 1
EndSplineSet
Validated: 1
Layer: 2
SplineSet
168 0 m 1,0,-1
 483 1493 l 1,1,-1
 573 1493 l 1,2,-1
 412 726 l 1,3,4
 490 848 490 848 609 939 c 128,-1,5
 728 1030 728 1030 820 1030 c 0,6,7
 939 1030 939 1030 997 955.5 c 128,-1,8
 1055 881 1055 881 1055 756 c 0,9,10
 1055 696 1055 696 1041 626 c 2,11,-1
 906 0 l 1,12,-1
 818 0 l 1,13,-1
 951 626 l 2,14,15
 963 680 963 680 963 739 c 0,16,17
 963 940 963 940 797 940 c 0,18,19
 720 940 720 940 622 863.5 c 128,-1,20
 524 787 524 787 452.5 685.5 c 128,-1,21
 381 584 381 584 365 508 c 2,22,-1
 258 0 l 1,23,-1
 168 0 l 1,0,-1
EndSplineSet
EndChar

StartChar: i
Encoding: 105 105 73
Width: 422
VWidth: 2982
Flags: W
HStem: 0 21G<168 262.221> 994 20G<378.759 472> 1173 162<415.29 544.224>
VStem: 396 166<1192.39 1315.93>
DStem2: 168 0 258 0 0.207912 0.978148<18.7121 1036.54>
LayerCount: 3
Fore
SplineSet
396 1235 m 0
 396 1288 444 1335 495 1335 c 0
 534 1335 562 1307 562 1269 c 0
 562 1222 515 1173 461 1173 c 0
 423 1173 396 1200 396 1235 c 0
258 0 m 1
 168 0 l 1
 383 1014 l 1
 472 1014 l 1
 258 0 l 1
EndSplineSet
Validated: 1
Layer: 2
SplineSet
396 1235 m 0,0,1
 396 1274 396 1274 426 1304.5 c 128,-1,2
 456 1335 456 1335 495 1335 c 0,3,4
 524 1335 524 1335 543 1316.5 c 128,-1,5
 562 1298 562 1298 562 1269 c 0,6,7
 562 1233 562 1233 531.5 1203 c 128,-1,8
 501 1173 501 1173 461 1173 c 0,9,10
 433 1173 433 1173 414.5 1191 c 128,-1,11
 396 1209 396 1209 396 1235 c 0,0,1
258 0 m 1,12,-1
 168 0 l 1,13,-1
 383 1014 l 1,14,-1
 472 1014 l 1,15,-1
 258 0 l 1,12,-1
EndSplineSet
EndChar

StartChar: j
Encoding: 106 106 74
Width: 415
VWidth: 2982
Flags: W
HStem: -312 77<-81 28.8277> 994 20G<378.751 472> 1173 162<410.19 538.875>
VStem: 391 166<1191.25 1315.27>
DStem2: 101.257 -312 191.257 -312 0.207912 0.978148<166.252 1355.6>
LayerCount: 3
Fore
SplineSet
383 1014 m 1
 472 1014 l 1
 258 2 l 2
 222 -168 64 -312 -96 -312 c 1
 -81 -235 l 1
 27 -235 141 -126 168 2 c 2
 383 1014 l 1
391 1238 m 0
 391 1285 438 1335 493 1335 c 0
 530 1335 557 1307 557 1271 c 0
 557 1220 510 1173 459 1173 c 0
 419 1173 391 1200 391 1238 c 0
EndSplineSet
Validated: 1
Layer: 2
SplineSet
383 1014 m 1,0,-1
 472 1014 l 1,1,-1
 258 2 l 2,2,3
 231 -126 231 -126 127 -219 c 128,-1,4
 23 -312 23 -312 -96 -312 c 1,5,-1
 -81 -235 l 1,6,7
 -0 -235 -0 -235 74 -164.5 c 128,-1,8
 148 -94 148 -94 168 2 c 2,9,-1
 383 1014 l 1,0,-1
391 1238 m 0,10,11
 391 1274 391 1274 422 1304.5 c 128,-1,12
 453 1335 453 1335 493 1335 c 0,13,14
 521 1335 521 1335 539 1316.5 c 128,-1,15
 557 1298 557 1298 557 1271 c 0,16,17
 557 1233 557 1233 527 1203 c 128,-1,18
 497 1173 497 1173 459 1173 c 0,19,20
 429 1173 429 1173 410 1191 c 128,-1,21
 391 1209 391 1209 391 1238 c 0,10,11
EndSplineSet
EndChar

StartChar: k
Encoding: 107 107 75
Width: 950
VWidth: 2982
Flags: W
HStem: 0 21G<168 262.247 822.102 951> 994 20G<895.612 1057> 1473 20G<478.78 573>
DStem2: 168 0 258 0 0.207912 0.978148<18.7121 514.529 638.852 1525.87> 385 607 470 566 0.79614 0.605112<0 42.8623 142.064 673.808> 549 626 470 566 0.54035 -0.84144<7.79879 681.282>
LayerCount: 3
Fore
SplineSet
258 0 m 1
 168 0 l 1
 483 1493 l 1
 573 1493 l 1
 385 607 l 1
 922 1014 l 1
 1057 1014 l 1
 549 626 l 1
 951 0 l 1
 835 0 l 1
 470 566 l 1
 361 485 l 1
 258 0 l 1
EndSplineSet
Validated: 1
Layer: 2
SplineSet
258 0 m 1,0,-1
 168 0 l 1,1,-1
 483 1493 l 1,2,-1
 573 1493 l 1,3,-1
 385 607 l 1,4,-1
 922 1014 l 1,5,-1
 1057 1014 l 1,6,-1
 549 626 l 1,7,-1
 951 0 l 1,8,-1
 835 0 l 1,9,-1
 470 566 l 1,10,-1
 361 485 l 1,11,-1
 258 0 l 1,0,-1
EndSplineSet
EndChar

StartChar: l
Encoding: 108 108 76
Width: 422
VWidth: 2982
Flags: W
HStem: 0 21G<168 262.22> 1473 20G<478.78 573>
VStem: 168 405
DStem2: 168 0 258 0 0.207912 0.978148<18.7121 1525.87>
LayerCount: 3
Fore
SplineSet
258 0 m 1
 168 0 l 1
 483 1493 l 1
 573 1493 l 1
 258 0 l 1
EndSplineSet
Validated: 1
Layer: 2
SplineSet
258 0 m 1,0,-1
 168 0 l 1,1,-1
 483 1493 l 1,2,-1
 573 1493 l 1,3,-1
 258 0 l 1,0,-1
EndSplineSet
EndChar

StartChar: m
Encoding: 109 109 77
Width: 1595
VWidth: 2982
Flags: W
HStem: 0 21G<168 262.213 752 846.246 1341 1435.23> 940 90<662.293 859.522 1244.88 1444.09> 994 20G<359 456>
VStem: 365 92<833.488 1014> 900 106<734 900.789> 1486 92<487.5 898.073>
DStem2: 168 0 258 0 0.207912 0.978148<18.7121 726.727 768.691 983.812> 752 0 842 0 0.207912 0.978148<18.7121 717.21> 1341 0 1431 0 0.207912 0.978148<18.7121 759.829>
LayerCount: 3
Fore
SplineSet
359 1014 m 1xbc
 455 1014 l 1xbc
 457 1006 457 994 457 983 c 0
 457 951 453 918 444 880 c 2
 412 734 l 1
 508 886 675 1030 786 1030 c 0
 938 1030 1006 916 1006 771 c 0
 1006 759 1003 745 1003 734 c 1
 1100 889 1254 1027 1367 1027 c 0
 1518 1027 1578 914 1578 767 c 0
 1578 720 1574 673 1563 624 c 2
 1431 0 l 1
 1341 0 l 1
 1473 624 l 2
 1482 662 1486 705 1486 748 c 0
 1486 846 1455 938 1345 938 c 0
 1204 938 983 662 949 504 c 2
 842 0 l 1
 752 0 l 1
 886 626 l 2
 895 665 900 709 900 750 c 0
 900 850 869 940 759 940 c 0xdc
 626 940 401 679 365 508 c 2
 258 0 l 1
 168 0 l 1
 354 880 l 2
 361 914 365 942 365 965 c 0
 365 985 363 1000 359 1014 c 1xbc
EndSplineSet
Validated: 1
Layer: 2
SplineSet
359 1014 m 1,0,-1
 455 1014 l 1,1,2
 457 1006 457 1006 457 983 c 0,3,4
 457 935 457 935 444 880 c 2,5,-1
 412 734 l 1,6,7
 487 852 487 852 596 941 c 128,-1,8
 705 1030 705 1030 786 1030 c 0,9,10
 895 1030 895 1030 950.5 958 c 128,-1,11
 1006 886 1006 886 1006 771 c 0,12,13
 1006 765 1006 765 1004.5 752 c 128,-1,14
 1003 739 1003 739 1003 734 c 1,15,16
 1079 855 1079 855 1182 941 c 128,-1,17
 1285 1027 1285 1027 1367 1027 c 0,18,19
 1475 1027 1475 1027 1526.5 956 c 128,-1,20
 1578 885 1578 885 1578 767 c 0,21,22
 1578 691 1578 691 1563 624 c 2,23,-1
 1431 0 l 1,24,-1
 1341 0 l 1,25,-1
 1473 624 l 2,26,27
 1486 679 1486 679 1486 748 c 0,28,29
 1486 938 1486 938 1345 938 c 0,30,31
 1278 938 1278 938 1189.5 862.5 c 128,-1,32
 1101 787 1101 787 1033.5 685 c 128,-1,33
 966 583 966 583 949 504 c 2,34,-1
 842 0 l 1,35,-1
 752 0 l 1,36,-1
 886 626 l 2,37,38
 900 687 900 687 900 750 c 0,39,40
 900 940 900 940 759 940 c 0,41,42
 695 940 695 940 607.5 868 c 128,-1,43
 520 796 520 796 451.5 694 c 128,-1,44
 383 592 383 592 365 508 c 2,45,-1
 258 0 l 1,46,-1
 168 0 l 1,47,-1
 354 880 l 2,48,49
 365 933 365 933 365 965 c 0,50,51
 365 993 365 993 359 1014 c 1,0,-1
EndSplineSet
EndChar

StartChar: n
Encoding: 110 110 78
Width: 1071
VWidth: 2982
Flags: W
HStem: 0 21G<168 262.213 818 910.313> 940 90<683.029 915.301> 994 20G<359 456>
VStem: 365 92<831.576 1014> 963 92<565.77 889.562>
DStem2: 168 0 258 0 0.207912 0.978148<18.7121 718.607 762.822 983.812> 818 0 906 0 0.207912 0.978148<18.2962 751.255>
LayerCount: 3
Fore
SplineSet
359 1014 m 1xb8
 455 1014 l 1xb8
 457 1006 457 994 457 983 c 0
 457 951 453 918 444 880 c 2
 412 728 l 1
 517 889 694 1030 820 1030 c 0
 985 1030 1055 914 1055 756 c 0
 1055 716 1050 671 1041 626 c 2
 906 0 l 1
 818 0 l 1
 951 626 l 2
 959 662 963 701 963 739 c 0
 963 844 927 940 797 940 c 0xd8
 634 940 396 660 365 508 c 2
 258 0 l 1
 168 0 l 1
 354 880 l 2
 361 914 365 942 365 965 c 0
 365 985 363 1000 359 1014 c 1xb8
EndSplineSet
Validated: 1
Layer: 2
SplineSet
359 1014 m 1,0,-1
 455 1014 l 1,1,2
 457 1006 457 1006 457 983 c 0,3,4
 457 935 457 935 444 880 c 2,5,-1
 412 728 l 1,6,7
 493 852 493 852 610.5 941 c 128,-1,8
 728 1030 728 1030 820 1030 c 0,9,10
 939 1030 939 1030 997 955.5 c 128,-1,11
 1055 881 1055 881 1055 756 c 0,12,13
 1055 696 1055 696 1041 626 c 2,14,-1
 906 0 l 1,15,-1
 818 0 l 1,16,-1
 951 626 l 2,17,18
 963 680 963 680 963 739 c 0,19,20
 963 940 963 940 797 940 c 0,21,22
 720 940 720 940 622 863.5 c 128,-1,23
 524 787 524 787 452.5 685.5 c 128,-1,24
 381 584 381 584 365 508 c 2,25,-1
 258 0 l 1,26,-1
 168 0 l 1,27,-1
 354 880 l 2,28,29
 365 933 365 933 365 965 c 0,30,31
 365 993 365 993 359 1014 c 1,0,-1
EndSplineSet
EndChar

StartChar: o
Encoding: 111 111 79
Width: 1282
VWidth: 2982
Flags: W
HStem: -15 89<483.606 855.049> 940 90<649.395 1023.34>
VStem: 220 92<242.125 605.092> 1196 84<411.622 761.926>
LayerCount: 3
Fore
SplineSet
220 396 m 0
 220 726 530 1030 859 1030 c 0
 1110 1030 1280 853 1280 615 c 0
 1280 305 980 -15 638 -15 c 0
 389 -15 220 158 220 396 c 0
844 940 m 0
 581 940 312 696 312 416 c 0
 312 222 453 74 660 74 c 0
 927 74 1196 320 1196 596 c 0
 1196 792 1053 940 844 940 c 0
EndSplineSet
Validated: 1
Layer: 2
SplineSet
220 396 m 0,0,1
 220 557 220 557 310.5 704.5 c 128,-1,2
 401 852 401 852 549.5 941 c 128,-1,3
 698 1030 698 1030 859 1030 c 0,4,5
 1046 1030 1046 1030 1163 912.5 c 128,-1,6
 1280 795 1280 795 1280 615 c 0,7,8
 1280 501 1280 501 1227 386.5 c 128,-1,9
 1174 272 1174 272 1087.5 183.5 c 128,-1,10
 1001 95 1001 95 882 40 c 128,-1,11
 763 -15 763 -15 638 -15 c 0,12,13
 452 -15 452 -15 336 100.5 c 128,-1,14
 220 216 220 216 220 396 c 0,0,1
844 940 m 0,15,16
 714 940 714 940 591 868.5 c 128,-1,17
 468 797 468 797 390 674.5 c 128,-1,18
 312 552 312 552 312 416 c 0,19,20
 312 269 312 269 409 171.5 c 128,-1,21
 506 74 506 74 660 74 c 0,22,23
 792 74 792 74 916 146 c 128,-1,24
 1040 218 1040 218 1118 340 c 128,-1,25
 1196 462 1196 462 1196 596 c 0,26,27
 1196 744 1196 744 1097.5 842 c 128,-1,28
 999 940 999 940 844 940 c 0,15,16
EndSplineSet
EndChar

StartChar: p
Encoding: 112 112 80
Width: 1215
VWidth: 2982
Flags: W
HStem: -501 21G<62 156.231> -15 89<498.009 816.81> 940 90<682.269 985.39> 994 20G<359 455.5>
VStem: 365 91<832.465 1014> 1129 86<410.477 786.645>
DStem2: 62 -501 152 -501 0.207912 0.978148<18.7121 796.556 948.635 1261.42 1301.59 1493.95>
LayerCount: 3
Fore
SplineSet
359 1014 m 1xdc
 455 1014 l 1xdc
 456 1003 456 992 456 980 c 0
 456 950 453 917 445 880 c 2
 418 754 l 1
 496 889 696 1030 853 1030 c 0xec
 1074 1030 1215 856 1215 630 c 0
 1215 275 914 -15 631 -15 c 0
 474 -15 331 116 313 260 c 1
 152 -501 l 1
 62 -501 l 1
 355 880 l 2
 362 912 365 940 365 963 c 0
 365 983 363 1001 359 1014 c 1xdc
366 508 m 0
 358 473 355 438 355 405 c 0
 355 214 476 74 650 74 c 0
 870 74 1129 311 1129 610 c 0
 1129 802 1006 940 834 940 c 0xec
 630 940 417 750 366 508 c 0
EndSplineSet
Validated: 1
Layer: 2
SplineSet
359 1014 m 1,0,-1
 455 1014 l 1,1,2
 456 1003 456 1003 456 980 c 0,3,4
 456 931 456 931 445 880 c 2,5,-1
 418 754 l 1,6,7
 479 859 479 859 609 944.5 c 128,-1,8
 739 1030 739 1030 853 1030 c 0,9,10
 1016 1030 1016 1030 1115.5 916.5 c 128,-1,11
 1215 803 1215 803 1215 630 c 0,12,13
 1215 501 1215 501 1163.5 380 c 128,-1,14
 1112 259 1112 259 1029.5 173.5 c 128,-1,15
 947 88 947 88 841.5 36.5 c 128,-1,16
 736 -15 736 -15 631 -15 c 0,17,18
 515 -15 515 -15 421 68 c 128,-1,19
 327 151 327 151 313 260 c 1,20,-1
 152 -501 l 1,21,-1
 62 -501 l 1,22,-1
 355 880 l 2,23,24
 365 926 365 926 365 963 c 0,25,26
 365 994 365 994 359 1014 c 1,0,-1
366 508 m 0,27,28
 355 460 355 460 355 405 c 0,29,30
 355 261 355 261 437.5 167.5 c 128,-1,31
 520 74 520 74 650 74 c 0,32,33
 732 74 732 74 817.5 116.5 c 128,-1,34
 903 159 903 159 972 229.5 c 128,-1,35
 1041 300 1041 300 1085 401 c 128,-1,36
 1129 502 1129 502 1129 610 c 0,37,38
 1129 754 1129 754 1046 847 c 128,-1,39
 963 940 963 940 834 940 c 0,40,41
 680 940 680 940 542 814 c 128,-1,42
 404 688 404 688 366 508 c 0,27,28
EndSplineSet
EndChar

StartChar: q
Encoding: 113 113 81
Width: 1215
VWidth: 2982
Flags: W
HStem: -501 21G<855 948.243> -15 89<449.201 751.929> 940 90<617.639 936.257> 994 20G<1184.5 1290>
VStem: 219 86<228.735 605.114>
DStem2: 855 -501 944 -501 0.207912 0.978148<18.5041 777.844 820.161 1131.99 1282.88 1550.44>
LayerCount: 3
Fore
SplineSet
1194 1014 m 1xd8
 1290 1014 l 1xd8
 1269 985 1250 940 1237 880 c 2
 944 -501 l 1
 855 -501 l 1
 1016 260 l 1
 936 116 738 -15 582 -15 c 0
 361 -15 219 158 219 385 c 0
 219 739 520 1030 804 1030 c 0xe8
 960 1030 1101 889 1121 754 c 1
 1148 880 l 2
 1159 931 1175 976 1194 1014 c 1xd8
1069 508 m 0
 1077 543 1080 577 1080 610 c 0
 1080 801 958 940 785 940 c 0xe8
 564 940 305 706 305 407 c 0
 305 215 428 74 601 74 c 0
 804 74 1018 267 1069 508 c 0
EndSplineSet
Validated: 1
Layer: 2
SplineSet
1194 1014 m 1,0,-1
 1290 1014 l 1,1,2
 1256 967 1256 967 1237 880 c 2,3,-1
 944 -501 l 1,4,-1
 855 -501 l 1,5,-1
 1016 260 l 1,6,7
 955 151 955 151 826.5 68 c 128,-1,8
 698 -15 698 -15 582 -15 c 0,9,10
 419 -15 419 -15 319 98.5 c 128,-1,11
 219 212 219 212 219 385 c 0,12,13
 219 514 219 514 270.5 634.5 c 128,-1,14
 322 755 322 755 404.5 841 c 128,-1,15
 487 927 487 927 593 978.5 c 128,-1,16
 699 1030 699 1030 804 1030 c 0,17,18
 918 1030 918 1030 1011.5 944.5 c 128,-1,19
 1105 859 1105 859 1121 754 c 1,20,-1
 1148 880 l 2,21,22
 1164 954 1164 954 1194 1014 c 1,0,-1
1069 508 m 0,23,24
 1080 556 1080 556 1080 610 c 0,25,26
 1080 754 1080 754 997 847 c 128,-1,27
 914 940 914 940 785 940 c 0,28,29
 703 940 703 940 617 898 c 128,-1,30
 531 856 531 856 462 786 c 128,-1,31
 393 716 393 716 349 615.5 c 128,-1,32
 305 515 305 515 305 407 c 0,33,34
 305 263 305 263 388.5 168.5 c 128,-1,35
 472 74 472 74 601 74 c 0,36,37
 754 74 754 74 892.5 201 c 128,-1,38
 1031 328 1031 328 1069 508 c 0,23,24
EndSplineSet
EndChar

StartChar: r
Encoding: 114 114 82
Width: 648
VWidth: 2982
Flags: W
HStem: 0 21G<168 262.184> 994 20G<359 456 693 775.944>
VStem: 365 92<835.943 1014>
DStem2: 168 0 258 0 0.207912 0.978148<18.7121 746.033 789.085 983.812>
LayerCount: 3
Fore
SplineSet
359 1014 m 1
 455 1014 l 1
 457 1006 457 994 457 983 c 0
 457 951 453 918 444 880 c 2
 416 754 l 1
 472 859 634 987 752 1030 c 1
 837 959 l 1
 658 959 416 745 367 521 c 1
 258 0 l 1
 168 0 l 1
 354 880 l 2
 361 914 365 942 365 965 c 0
 365 985 363 1000 359 1014 c 1
EndSplineSet
Validated: 1
Layer: 2
SplineSet
359 1014 m 1,0,-1
 455 1014 l 1,1,2
 457 1006 457 1006 457 983 c 0,3,4
 457 935 457 935 444 880 c 2,5,-1
 416 754 l 1,6,7
 457 831 457 831 559.5 914 c 128,-1,8
 662 997 662 997 752 1030 c 1,9,-1
 837 959 l 1,10,11
 749 959 749 959 648.5 897 c 128,-1,12
 548 835 548 835 469.5 732.5 c 128,-1,13
 391 630 391 630 367 521 c 2,14,-1
 258 0 l 1,15,-1
 168 0 l 1,16,-1
 354 880 l 2,17,18
 365 933 365 933 365 965 c 0,19,20
 365 993 365 993 359 1014 c 1,0,-1
EndSplineSet
EndChar

StartChar: s
Encoding: 115 115 83
Width: 892
VWidth: 2982
Flags: W
HStem: -17 89<333.642 609.479> 944 88<529.156 753.824>
VStem: 181 92<136.213 289> 359 96<679.504 870.852> 750 92<208.014 434.8> 799 90<830.381 897.842>
LayerCount: 3
Fore
SplineSet
359 739 m 0xf8
 359 882 491 1032 667 1032 c 0
 773 1032 871 969 889 835 c 1
 799 806 l 1xf4
 786 900 718 944 647 944 c 0
 530 944 455 839 455 761 c 0
 455 591 842 613 842 359 c 0
 842 161 651 -17 438 -17 c 0
 302 -17 181 64 181 250 c 0
 181 262 181 275 184 289 c 1
 275 302 l 1
 275 291 273 282 273 271 c 0
 273 132 361 72 459 72 c 0
 607 72 750 197 750 336 c 0
 750 542 359 513 359 739 c 0xf8
EndSplineSet
Validated: 1
Layer: 2
SplineSet
359 739 m 0,0,1
 359 851 359 851 449 941.5 c 128,-1,2
 539 1032 539 1032 667 1032 c 0,3,4
 752 1032 752 1032 814 981.5 c 128,-1,5
 876 931 876 931 889 835 c 1,6,-1
 799 806 l 1,7,8
 790 873 790 873 747 908.5 c 128,-1,9
 704 944 704 944 647 944 c 0,10,11
 565 944 565 944 510 885 c 128,-1,12
 455 826 455 826 455 761 c 0,13,14
 455 727 455 727 476.5 699 c 128,-1,15
 498 671 498 671 532 651 c 128,-1,16
 566 631 566 631 607.5 611.5 c 128,-1,17
 649 592 649 592 690 569.5 c 128,-1,18
 731 547 731 547 765 520 c 128,-1,19
 799 493 799 493 820.5 452 c 128,-1,20
 842 411 842 411 842 359 c 0,21,22
 842 262 842 262 786 175 c 128,-1,23
 730 88 730 88 636 35.5 c 128,-1,24
 542 -17 542 -17 438 -17 c 0,25,26
 328 -17 328 -17 254.5 50.5 c 128,-1,27
 181 118 181 118 181 250 c 0,28,29
 181 275 181 275 184 289 c 1,30,-1
 275 302 l 1,31,32
 275 296 275 296 274 286 c 128,-1,33
 273 276 273 276 273 271 c 0,34,35
 273 173 273 173 326 122.5 c 128,-1,36
 379 72 379 72 459 72 c 0,37,38
 571 72 571 72 660.5 152.5 c 128,-1,39
 750 233 750 233 750 336 c 0,40,41
 750 393 750 393 709.5 434.5 c 128,-1,42
 669 476 669 476 611.5 503 c 128,-1,43
 554 530 554 530 497 558 c 128,-1,44
 440 586 440 586 399.5 631.5 c 128,-1,45
 359 677 359 677 359 739 c 0,0,1
EndSplineSet
EndChar

StartChar: t
Encoding: 116 116 84
Width: 551
VWidth: 2982
Flags: W
HStem: 0 21G<168 262.259> 925 89<293 365 472 705>
VStem: 168 584
DStem2: 168 0 258 0 0.207912 0.978148<18.7121 945.745 1055.05 1281.9>
LayerCount: 3
Fore
SplineSet
258 0 m 1
 168 0 l 1
 365 925 l 1
 275 925 l 1
 293 1014 l 1
 383 1014 l 1
 434 1254 l 1
 524 1254 l 1
 472 1014 l 1
 752 1014 l 1
 705 925 l 1
 455 925 l 1
 258 0 l 1
EndSplineSet
Validated: 1
Layer: 2
SplineSet
258 0 m 1,0,-1
 168 0 l 1,1,-1
 365 925 l 1,2,-1
 275 925 l 1,3,-1
 293 1014 l 1,4,-1
 383 1014 l 1,5,-1
 434 1254 l 1,6,-1
 524 1254 l 1,7,-1
 472 1014 l 1,8,-1
 752 1014 l 1,9,-1
 705 925 l 1,10,-1
 455 925 l 1,11,-1
 258 0 l 1,0,-1
EndSplineSet
EndChar

StartChar: u
Encoding: 117 117 85
Width: 1066
VWidth: 2982
Flags: W
HStem: -15 89<416.819 692.137> 994 20G<378.758 472 1022.79 1117>
VStem: 239 92<164.038 543.75>
DStem2: 164.552 -15 254.552 -15 0.207912 0.978148<355.562 1051.93> 809.552 -15 899.552 -15 0.207912 0.978148<235.748 1051.72>
LayerCount: 3
Fore
SplineSet
383 1014 m 1
 472 1014 l 1
 340 387 l 1
 333 361 331 336 331 312 c 0
 331 175 416 74 546 74 c 0
 698 74 857 213 895 387 c 1
 1027 1014 l 1
 1117 1014 l 1
 985 387 l 2
 938 168 737 -15 530 -15 c 0
 354 -15 239 119 239 295 c 0
 239 325 244 356 250 387 c 2
 383 1014 l 1
EndSplineSet
Validated: 1
Layer: 2
SplineSet
383 1014 m 1,0,-1
 472 1014 l 1,1,-1
 340 387 l 2,2,3
 331 354 331 354 331 312 c 0,4,5
 331 208 331 208 390.5 141 c 128,-1,6
 450 74 450 74 546 74 c 0,7,8
 661 74 661 74 764 165.5 c 128,-1,9
 867 257 867 257 895 387 c 2,10,-1
 1027 1014 l 1,11,-1
 1117 1014 l 1,12,-1
 985 387 l 2,13,14
 950 222 950 222 817 103.5 c 128,-1,15
 684 -15 684 -15 530 -15 c 0,16,17
 400 -15 400 -15 319.5 73 c 128,-1,18
 239 161 239 161 239 295 c 0,19,20
 239 330 239 330 250 387 c 2,21,-1
 383 1014 l 1,0,-1
EndSplineSet
EndChar

StartChar: v
Encoding: 118 118 86
Width: 946
VWidth: 2982
Flags: W
HStem: 994 20G<250 350.217 1017.35 1128>
DStem2: 346 1014 250 1014 0.206199 -0.97851<0 828.832> 517 203 470 -30 0.5332 0.845989<0 959.629>
LayerCount: 3
Fore
SplineSet
250 1014 m 1
 346 1014 l 1
 517 203 l 1
 1030 1014 l 1
 1128 1014 l 1
 470 -30 l 1
 250 1014 l 1
EndSplineSet
Validated: 1
Layer: 2
SplineSet
250 1014 m 1,0,-1
 346 1014 l 1,1,-1
 517 203 l 1,2,-1
 1030 1014 l 1,3,-1
 1128 1014 l 1,4,-1
 470 -30 l 1,5,-1
 250 1014 l 1,0,-1
EndSplineSet
EndChar

StartChar: w
Encoding: 119 119 87
Width: 1600
VWidth: 2982
Flags: W
HStem: -17 21G<454.984 471.667 1138.78 1155.42> 994 20G<252 354.111 1012.37 1029.17 1674.57 1783>
DStem2: 350 1014 252 1014 0.196848 -0.980434<0 809.57> 513 221 459 -17 0.533836 0.845588<0 728.707> 1025 1032 972 793 0.204002 -0.97897<223.162 828.421> 1194 221 1143 -17 0.527404 0.849615<0 933.755>
LayerCount: 3
Fore
SplineSet
252 1014 m 1
 350 1014 l 1
 513 221 l 1
 1025 1032 l 1
 1194 221 l 1
 1687 1014 l 1
 1783 1014 l 1
 1143 -17 l 1
 972 793 l 1
 459 -17 l 1
 252 1014 l 1
EndSplineSet
Validated: 1
Layer: 2
SplineSet
252 1014 m 1,0,-1
 350 1014 l 1,1,-1
 513 221 l 1,2,-1
 1025 1032 l 1,3,-1
 1194 221 l 1,4,-1
 1687 1014 l 1,5,-1
 1783 1014 l 1,6,-1
 1143 -17 l 1,7,-1
 972 793 l 1,8,-1
 459 -17 l 1,9,-1
 252 1014 l 1,0,-1
EndSplineSet
EndChar

StartChar: x
Encoding: 120 120 88
Width: 906
VWidth: 2982
Flags: W
HStem: 0 21G<36 158.865 757.588 871> 994 20G<293 400.524 922.005 1045>
DStem2: 36 0 141 0 0.66546 0.746434<69.8733 685.325 821.732 1358.46> 391 1014 293 1014 0.427856 -0.903847<0 441.928 570.092 1077.37>
LayerCount: 3
Fore
SplineSet
293 1014 m 1
 391 1014 l 1
 581 615 l 1
 940 1014 l 1
 1045 1014 l 1
 618 538 l 1
 871 0 l 1
 767 0 l 1
 551 459 l 1
 141 0 l 1
 36 0 l 1
 517 538 l 1
 293 1014 l 1
EndSplineSet
Validated: 1
Layer: 2
SplineSet
293 1014 m 1,0,-1
 391 1014 l 1,1,-1
 581 615 l 1,2,-1
 940 1014 l 1,3,-1
 1045 1014 l 1,4,-1
 618 538 l 1,5,-1
 871 0 l 1,6,-1
 767 0 l 1,7,-1
 551 459 l 1,8,-1
 141 0 l 1,9,-1
 36 0 l 1,10,-1
 517 538 l 1,11,-1
 293 1014 l 1,0,-1
EndSplineSet
EndChar

StartChar: y
Encoding: 121 121 89
Width: 946
VWidth: 2982
Flags: W
HStem: -521 21G<126 231.831> 994 20G<250 347.575 1022.16 1128>
DStem2: 126 -521 220 -521 0.509126 0.860692<47.8578 602.492 743.292 1783.45> 344 1014 250 1014 0.176327 -0.984332<0 909.189>
LayerCount: 3
Fore
SplineSet
250 1014 m 1
 344 1014 l 1
 504 119 l 1
 1034 1014 l 1
 1128 1014 l 1
 220 -521 l 1
 126 -521 l 1
 432 -2 l 1
 250 1014 l 1
EndSplineSet
Validated: 1
Layer: 2
SplineSet
250 1014 m 1,0,-1
 344 1014 l 1,1,-1
 504 119 l 1,2,-1
 1034 1014 l 1,3,-1
 1128 1014 l 1,4,-1
 220 -521 l 1,5,-1
 126 -521 l 1,6,-1
 432 -2 l 1,7,-1
 250 1014 l 1,0,-1
EndSplineSet
EndChar

StartChar: z
Encoding: 122 122 90
Width: 888
VWidth: 2982
Flags: W
HStem: 0 90<224 822> 925 89<374 884>
DStem2: 36 0 224 90 0.675761 0.737121<193.384 1254.88>
LayerCount: 3
Fore
SplineSet
374 1014 m 1
 1070 1014 l 1
 224 90 l 1
 869 90 l 1
 822 0 l 1
 36 0 l 1
 884 925 l 1
 325 925 l 1
 374 1014 l 1
EndSplineSet
Validated: 1
Layer: 2
SplineSet
374 1014 m 1,0,-1
 1070 1014 l 1,1,-1
 224 90 l 1,2,-1
 869 90 l 1,3,-1
 822 0 l 1,4,-1
 36 0 l 1,5,-1
 884 925 l 1,6,-1
 325 925 l 1,7,-1
 374 1014 l 1,0,-1
EndSplineSet
EndChar

StartChar: braceleft
Encoding: 123 123 91
Width: 570
VWidth: 2982
Flags: W
HStem: -312 62<381.734 448> 1506 61<743.282 833>
VStem: 248 92<-220.614 163.938> 340 92<196.422 550.11>
DStem2: 191.455 -312 280.455 -312 0.207912 0.978148<254.487 757.294 1070.09 1799.7>
LayerCount: 3
Fore
SplineSet
607 1224 m 2xd0
 544 929 l 2
 510 771 455 696 363 628 c 1
 403 591 432 544 432 457 c 0xd0
 432 423 427 380 416 331 c 2
 354 34 l 2
 344 -11 340 -51 340 -85 c 0
 340 -190 383 -250 461 -250 c 1
 448 -312 l 1
 365 -312 248 -275 248 -94 c 0xe0
 248 -58 252 -15 265 34 c 1
 327 331 l 2
 336 372 340 403 340 432 c 0
 340 508 307 546 250 591 c 1
 267 665 l 1
 369 726 421 773 455 925 c 1
 517 1224 l 1
 579 1515 745 1567 846 1567 c 1
 833 1506 l 1
 730 1506 645 1403 607 1224 c 2xd0
EndSplineSet
Validated: 1
Layer: 2
SplineSet
607 1224 m 2,0,-1
 544 929 l 2,1,2
 520 815 520 815 478 748.5 c 128,-1,3
 436 682 436 682 363 628 c 1,4,5
 432 564 432 564 432 457 c 0,6,7
 432 402 432 402 416 331 c 2,8,-1
 354 34 l 2,9,10
 340 -29 340 -29 340 -85 c 0,11,12
 340 -164 340 -164 371.5 -207 c 128,-1,13
 403 -250 403 -250 461 -250 c 1,14,-1
 448 -312 l 1,15,16
 413 -312 413 -312 381 -303 c 128,-1,17
 349 -294 349 -294 317.5 -271.5 c 128,-1,18
 286 -249 286 -249 267 -203.5 c 128,-1,19
 248 -158 248 -158 248 -94 c 128,-1,20
 248 -30 248 -30 265 34 c 2,21,-1
 327 331 l 2,22,23
 340 390 340 390 340 432 c 0,24,25
 340 485 340 485 318.5 519.5 c 128,-1,26
 297 554 297 554 250 591 c 1,27,-1
 267 665 l 1,28,29
 351 715 351 715 391 766.5 c 128,-1,30
 431 818 431 818 455 925 c 2,31,-1
 517 1224 l 2,32,33
 535 1307 535 1307 565.5 1371 c 128,-1,34
 596 1435 596 1435 630 1471 c 128,-1,35
 664 1507 664 1507 704.5 1529.5 c 128,-1,36
 745 1552 745 1552 778.5 1559.5 c 128,-1,37
 812 1567 812 1567 846 1567 c 1,38,-1
 833 1506 l 1,39,40
 755 1506 755 1506 695 1431.5 c 128,-1,41
 635 1357 635 1357 607 1224 c 2,0,-1
EndSplineSet
EndChar

StartChar: bar
Encoding: 124 124 92
Width: 422
VWidth: 2982
Flags: W
VStem: 134 473
DStem2: 134 -150 224 -150 0.207912 0.978148<18.7121 1831.49>
LayerCount: 3
Fore
SplineSet
224 -150 m 1
 134 -150 l 1
 517 1641 l 1
 607 1641 l 1
 224 -150 l 1
EndSplineSet
Validated: 1
Layer: 2
SplineSet
224 -150 m 1,0,-1
 134 -150 l 1,1,-1
 517 1641 l 1,2,-1
 607 1641 l 1,3,-1
 224 -150 l 1,0,-1
EndSplineSet
EndChar

StartChar: braceright
Encoding: 125 125 93
Width: 574
VWidth: 2982
Flags: W
HStem: -314 62<7 96.7256> 1506 59<391 455.357>
VStem: 408 96<701.804 1063.42> 502 91<1084.41 1477.72>
DStem2: 161.881 -314 251.881 -314 0.207912 0.978148<140.165 871.883 1185.46 1687.99>
LayerCount: 3
Fore
SplineSet
380 1506 m 1xd0
 391 1565 l 1
 479 1565 593 1529 593 1345 c 0xd0
 593 1309 589 1267 579 1220 c 2
 515 922 l 2
 506 882 504 850 504 824 c 0
 504 745 534 707 591 662 c 1
 575 589 l 1
 472 528 421 481 389 329 c 2
 325 30 l 1
 265 -262 94 -314 -7 -314 c 1
 7 -252 l 1
 109 -252 197 -150 235 30 c 2
 299 329 l 2
 336 502 403 573 479 626 c 1
 434 671 408 724 408 806 c 0xe0
 408 839 414 878 423 925 c 1
 487 1224 l 2
 497 1267 502 1307 502 1341 c 0
 502 1448 459 1506 380 1506 c 1xd0
EndSplineSet
Validated: 1
Layer: 2
SplineSet
380 1506 m 1,0,-1
 391 1565 l 1,1,2
 428 1565 428 1565 460 1556 c 128,-1,3
 492 1547 492 1547 524 1524.5 c 128,-1,4
 556 1502 556 1502 574.5 1456 c 128,-1,5
 593 1410 593 1410 593 1345 c 0,6,7
 593 1286 593 1286 579 1220 c 2,8,-1
 515 922 l 2,9,10
 504 873 504 873 504 824 c 0,11,12
 504 768 504 768 524.5 733.5 c 128,-1,13
 545 699 545 699 591 662 c 1,14,-1
 575 589 l 1,15,16
 518 555 518 555 486.5 527 c 128,-1,17
 455 499 455 499 430 451 c 128,-1,18
 405 403 405 403 389 329 c 2,19,-1
 325 30 l 2,20,21
 308 -54 308 -54 277 -117.5 c 128,-1,22
 246 -181 246 -181 211.5 -217.5 c 128,-1,23
 177 -254 177 -254 135.5 -276.5 c 128,-1,24
 94 -299 94 -299 60.5 -306.5 c 128,-1,25
 27 -314 27 -314 -7 -314 c 1,26,-1
 7 -252 l 1,27,28
 85 -252 85 -252 146 -177.5 c 128,-1,29
 207 -103 207 -103 235 30 c 2,30,-1
 299 329 l 2,31,32
 324 448 324 448 368.5 514 c 128,-1,33
 413 580 413 580 479 626 c 1,34,35
 408 697 408 697 408 806 c 0,36,37
 408 847 408 847 423 925 c 2,38,-1
 487 1224 l 2,39,40
 502 1289 502 1289 502 1341 c 0,41,42
 502 1421 502 1421 470.5 1463.5 c 128,-1,43
 439 1506 439 1506 380 1506 c 1,0,-1
EndSplineSet
EndChar

StartChar: asciitilde
Encoding: 126 126 94
Width: 1058
VWidth: 2982
Flags: W
HStem: 378 94<709.862 965.521> 513 94<305.892 574.942>
VStem: 205 60<387 455.362> 1006 57<530.641 598>
LayerCount: 3
Fore
SplineSet
1006 598 m 1
 1063 598 l 1
 1030 438 938 378 839 378 c 0
 687 378 557 513 419 513 c 0
 369 513 286 495 265 387 c 1
 205 387 l 1
 239 553 344 607 438 607 c 0
 609 607 724 472 857 472 c 0
 902 472 980 485 1006 598 c 1
EndSplineSet
Validated: 1
Layer: 2
SplineSet
1006 598 m 1,0,-1
 1063 598 l 1,1,2
 1040 485 1040 485 979.5 431.5 c 128,-1,3
 919 378 919 378 839 378 c 0,4,5
 788 378 788 378 728.5 399 c 128,-1,6
 669 420 669 420 623.5 445.5 c 128,-1,7
 578 471 578 471 521.5 492 c 128,-1,8
 465 513 465 513 419 513 c 0,9,10
 397 513 397 513 376 508 c 128,-1,11
 355 503 355 503 331.5 491 c 128,-1,12
 308 479 308 479 290 452 c 128,-1,13
 272 425 272 425 265 387 c 1,14,-1
 205 387 l 1,15,16
 229 502 229 502 293.5 554.5 c 128,-1,17
 358 607 358 607 438 607 c 0,18,19
 495 607 495 607 556.5 586 c 128,-1,20
 618 565 618 565 662 539.5 c 128,-1,21
 706 514 706 514 759.5 493 c 128,-1,22
 813 472 813 472 857 472 c 0,23,24
 977 472 977 472 1006 598 c 1,0,-1
EndSplineSet
EndChar

StartChar: exclamdown
Encoding: 161 161 95
Width: 570
VWidth: 2982
Flags: W
HStem: -477 21G<126 247.764> 861 169<423.725 552.239>
VStem: 403 170<881.932 1009.14>
LayerCount: 3
Fore
SplineSet
416 745 m 1
 474 745 l 1
 244 -477 l 1
 126 -477 l 1
 416 745 l 1
403 929 m 0
 403 987 461 1030 506 1030 c 0
 546 1030 573 1000 573 963 c 0
 573 904 515 861 470 861 c 0
 432 861 403 891 403 929 c 0
EndSplineSet
Validated: 1
Layer: 2
SplineSet
416 745 m 1,0,-1
 474 745 l 1,1,-1
 244 -477 l 1,2,-1
 126 -477 l 1,3,-1
 416 745 l 1,0,-1
403 929 m 0,4,5
 403 970 403 970 436.5 1000 c 128,-1,6
 470 1030 470 1030 506 1030 c 0,7,8
 535 1030 535 1030 554 1010.5 c 128,-1,9
 573 991 573 991 573 963 c 0,10,11
 573 921 573 921 539.5 891 c 128,-1,12
 506 861 506 861 470 861 c 0,13,14
 442 861 442 861 422.5 880.5 c 128,-1,15
 403 900 403 900 403 929 c 0,4,5
EndSplineSet
EndChar

StartChar: cent
Encoding: 162 162 96
Width: 1105
VWidth: 2982
Flags: W
HStem: -11 92<446.222 542 651 790.389> 940 87<613.016 743 850 941.163>
VStem: 218 91<227.215 606.858>
DStem2: 493 -239 581 -239 0.207912 0.978148<18.2962 233.205 343.901 1205.21 1315.49 1526.28>
LayerCount: 3
Fore
SplineSet
810 1254 m 1
 900 1254 l 1
 850 1030 l 1
 998 1014 1106 920 1153 786 c 1
 1066 741 l 1
 1027 848 944 922 835 938 c 1
 651 79 l 1
 767 92 884 168 965 275 c 1
 1034 231 l 1
 931 98 784 2 632 -11 c 1
 581 -239 l 1
 493 -239 l 1
 542 -11 l 1
 342 7 218 173 218 385 c 0
 218 683 463 998 761 1027 c 1
 810 1254 l 1
743 940 m 1
 519 912 309 665 309 408 c 0
 309 233 410 101 560 81 c 1
 743 940 l 1
EndSplineSet
Validated: 1
Layer: 2
SplineSet
810 1254 m 1,0,-1
 900 1254 l 1,1,-1
 850 1030 l 1,2,3
 959 1018 959 1018 1038 953 c 128,-1,4
 1117 888 1117 888 1153 786 c 1,5,-1
 1066 741 l 1,6,7
 1036 822 1036 822 976 874 c 128,-1,8
 916 926 916 926 835 938 c 1,9,-1
 651 79 l 1,10,11
 737 89 737 89 820 141.5 c 128,-1,12
 903 194 903 194 965 275 c 1,13,-1
 1034 231 l 1,14,15
 955 129 955 129 849 64 c 128,-1,16
 743 -1 743 -1 632 -11 c 1,17,-1
 581 -239 l 1,18,-1
 493 -239 l 1,19,-1
 542 -11 l 1,20,21
 394 2 394 2 306 112.5 c 128,-1,22
 218 223 218 223 218 385 c 0,23,24
 218 495 218 495 261.5 606.5 c 128,-1,25
 305 718 305 718 377.5 807 c 128,-1,26
 450 896 450 896 551 956 c 128,-1,27
 652 1016 652 1016 761 1027 c 1,28,-1
 810 1254 l 1,0,-1
743 940 m 1,29,30
 633 926 633 926 532.5 848.5 c 128,-1,31
 432 771 432 771 370.5 652 c 128,-1,32
 309 533 309 533 309 408 c 0,33,34
 309 277 309 277 378.5 186.5 c 128,-1,35
 448 96 448 96 560 81 c 1,36,-1
 743 940 l 1,29,30
EndSplineSet
EndChar

StartChar: sterling
Encoding: 163 163 97
Width: 1033
VWidth: 2982
Flags: W
HStem: 0 90<96 178.623 250 933> 701 89<280 500 598 871> 1424 87<779.342 1068.72>
VStem: 1147 62<1202 1329.58>
DStem2: 500 696 589 701 0.112379 0.993665<-263.299 0 104.418 635.76>
LayerCount: 3
Fore
SplineSet
871 701 m 1
 589 701 l 1
 530 318 356 166 250 90 c 1
 983 90 l 1
 933 0 l 1
 96 0 l 1
 90 83 l 1
 346 215 440 401 483 607 c 1
 491 636 497 665 500 696 c 1
 231 696 l 1
 280 786 l 1
 510 786 l 1
 526 931 528 1072 557 1200 c 1
 598 1395 786 1511 951 1511 c 0
 1090 1511 1209 1424 1209 1233 c 2
 1209 1202 l 1
 1147 1191 l 1
 1147 1213 l 2
 1147 1356 1045 1424 933 1424 c 0
 810 1424 673 1343 645 1202 c 1
 618 1085 615 940 598 790 c 1
 920 790 l 1
 871 701 l 1
EndSplineSet
Validated: 1
Layer: 2
SplineSet
871 701 m 1,0,-1
 589 701 l 1,1,2
 572 591 572 591 540.5 497.5 c 128,-1,3
 509 404 509 404 475.5 342.5 c 128,-1,4
 442 281 442 281 397.5 227.5 c 128,-1,5
 353 174 353 174 321 146 c 128,-1,6
 289 118 289 118 250 90 c 1,7,-1
 983 90 l 1,8,-1
 933 0 l 1,9,-1
 96 0 l 1,10,-1
 90 83 l 1,11,12
 213 146 213 146 296 233 c 128,-1,13
 379 320 379 320 419.5 407.5 c 128,-1,14
 460 495 460 495 483 607 c 0,15,16
 496 654 496 654 500 696 c 1,17,-1
 231 696 l 1,18,-1
 280 786 l 1,19,-1
 510 786 l 1,20,21
 515 834 515 834 522 921.5 c 128,-1,22
 529 1009 529 1009 536.5 1076 c 128,-1,23
 544 1143 544 1143 557 1200 c 0,24,25
 577 1294 577 1294 640.5 1366.5 c 128,-1,26
 704 1439 704 1439 785.5 1475 c 128,-1,27
 867 1511 867 1511 951 1511 c 0,28,29
 1063 1511 1063 1511 1136 1440 c 128,-1,30
 1209 1369 1209 1369 1209 1233 c 2,31,-1
 1209 1202 l 1,32,-1
 1147 1191 l 1,33,-1
 1147 1213 l 2,34,35
 1147 1315 1147 1315 1085 1369.5 c 128,-1,36
 1023 1424 1023 1424 933 1424 c 0,37,38
 835 1424 835 1424 750 1363.5 c 128,-1,39
 665 1303 665 1303 645 1202 c 0,40,41
 633 1150 633 1150 625.5 1084 c 128,-1,42
 618 1018 618 1018 611 929.5 c 128,-1,43
 604 841 604 841 598 790 c 1,44,-1
 920 790 l 1,45,-1
 871 701 l 1,0,-1
EndSplineSet
EndChar

StartChar: fraction
Encoding: 8260 8260 98
Width: 1177
VWidth: 2982
Flags: W
HStem: 0 21G<2 132.446> 1473 20G<1360.55 1491>
DStem2: 2 0 114 0 0.677973 0.735087<75.933 2031.05>
LayerCount: 3
Fore
SplineSet
1379 1493 m 1
 1491 1493 l 1
 114 0 l 1
 2 0 l 1
 1379 1493 l 1
EndSplineSet
Validated: 1
Layer: 2
SplineSet
1379 1493 m 1,0,-1
 1491 1493 l 1,1,-1
 114 0 l 1,2,-1
 2 0 l 1,3,-1
 1379 1493 l 1,0,-1
EndSplineSet
EndChar

StartChar: yen
Encoding: 165 165 99
Width: 1228
VWidth: 2982
Flags: W
HStem: 0 21G<571 664.239> 401 94<314 656 765 1097> 645 96<369 667 878 1157> 1473 20G<354 465.404 1389.16 1511>
DStem2: 457 1493 354 1493 0.387399 -0.921912<0 774.632> 571 0 660 0 0.207912 0.978148<18.5041 409.91 524.518 659.181> 773 741 878 741 0.643979 0.765043<67.6178 982.951>
LayerCount: 3
Fore
SplineSet
1117 495 m 1
 1097 401 l 1
 745 401 l 1
 660 0 l 1
 571 0 l 1
 656 401 l 1
 293 401 l 1
 314 495 l 1
 675 495 l 1
 707 645 l 1
 349 645 l 1
 369 741 l 1
 667 741 l 1
 354 1493 l 1
 457 1493 l 1
 773 741 l 1
 1406 1493 l 1
 1511 1493 l 1
 878 741 l 1
 1177 741 l 1
 1157 645 l 1
 797 645 l 1
 765 495 l 1
 1117 495 l 1
EndSplineSet
Validated: 1
Layer: 2
SplineSet
1117 495 m 1,0,-1
 1097 401 l 1,1,-1
 745 401 l 1,2,-1
 660 0 l 1,3,-1
 571 0 l 1,4,-1
 656 401 l 1,5,-1
 293 401 l 1,6,-1
 314 495 l 1,7,-1
 675 495 l 1,8,-1
 707 645 l 1,9,-1
 349 645 l 1,10,-1
 369 741 l 1,11,-1
 667 741 l 1,12,-1
 354 1493 l 1,13,-1
 457 1493 l 1,14,-1
 773 741 l 1,15,-1
 1406 1493 l 1,16,-1
 1511 1493 l 1,17,-1
 878 741 l 1,18,-1
 1177 741 l 1,19,-1
 1157 645 l 1,20,-1
 797 645 l 1,21,-1
 765 495 l 1,22,-1
 1117 495 l 1,0,-1
EndSplineSet
EndChar

StartChar: florin
Encoding: 402 402 100
Width: 809
VWidth: 2982
Flags: W
HStem: -164 59<-96 46.8198> 786 89<408 546 675 1021> 1448 58<1044.24 1188>
DStem2: 286 158 374 141 0.382352 0.924017<-186.381 679.694 811.255 1333.63>
LayerCount: 3
Fore
SplineSet
1072 875 m 1
 1021 786 l 1
 638 786 l 1
 374 141 l 2
 285 -77 90 -164 -109 -164 c 1
 -96 -105 l 1
 64 -105 217 -9 286 158 c 2
 546 786 l 1
 359 786 l 1
 408 875 l 1
 581 875 l 1
 718 1202 l 2
 809 1420 1000 1506 1200 1506 c 1
 1188 1448 l 1
 1027 1448 873 1353 803 1184 c 2
 675 875 l 1
 1072 875 l 1
EndSplineSet
Validated: 1
Layer: 2
SplineSet
1072 875 m 1,0,-1
 1021 786 l 1,1,-1
 638 786 l 1,2,-1
 374 141 l 2,3,4
 342 62 342 62 289.5 2 c 128,-1,5
 237 -58 237 -58 173 -93.5 c 128,-1,6
 109 -129 109 -129 38.5 -146.5 c 128,-1,7
 -32 -164 -32 -164 -109 -164 c 1,8,-1
 -96 -105 l 1,9,10
 26 -105 26 -105 130.5 -35 c 128,-1,11
 235 35 235 35 286 158 c 2,12,-1
 546 786 l 1,13,-1
 359 786 l 1,14,-1
 408 875 l 1,15,-1
 581 875 l 1,16,-1
 718 1202 l 2,17,18
 783 1357 783 1357 911 1431.5 c 128,-1,19
 1039 1506 1039 1506 1200 1506 c 1,20,-1
 1188 1448 l 1,21,22
 1064 1448 1064 1448 959 1378 c 128,-1,23
 854 1308 854 1308 803 1184 c 2,24,-1
 675 875 l 1,25,-1
 1072 875 l 1,0,-1
EndSplineSet
EndChar

StartChar: section
Encoding: 167 167 101
Width: 897
VWidth: 2982
Flags: W
HStem: -134 89<300.921 590.4> 1202 21G<940 1032> 1417 89<604.592 881.544>
VStem: 156 90<9.79263 173> 271 94<597.267 828.098> 369 97<1055.21 1289.12> 726 96<86.6578 317.522> 828 92<552.644 775.527> 940 94<1202 1357.92>
LayerCount: 3
Fore
SplineSet
822 242 m 0
 822 51 634 -134 419 -134 c 0
 282 -134 156 -51 156 139 c 0
 156 150 158 161 158 173 c 1
 248 173 l 1
 248 161 246 152 246 141 c 0
 246 4 333 -45 434 -45 c 0
 593 -45 726 85 726 218 c 0
 726 436 271 393 271 671 c 0
 271 720 289 869 446 974 c 1
 401 1012 369 1061 369 1135 c 0
 369 1325 553 1506 771 1506 c 0
 908 1506 1034 1426 1034 1235 c 0
 1034 1224 1032 1213 1032 1202 c 1
 940 1202 l 1
 940 1226 l 2
 940 1361 855 1417 754 1417 c 0
 602 1417 466 1294 466 1157 c 0
 466 936 920 980 920 705 c 0
 920 656 902 508 745 403 c 1
 790 365 822 316 822 242 c 0
669 455 m 1
 799 519 828 626 828 679 c 0
 828 812 651 855 519 922 c 1
 391 857 365 748 365 696 c 0
 365 560 534 524 669 455 c 1
EndSplineSet
Validated: 1
Layer: 2
SplineSet
822 242 m 0,0,1
 822 148 822 148 766.5 61 c 128,-1,2
 711 -26 711 -26 617.5 -80 c 128,-1,3
 524 -134 524 -134 419 -134 c 0,4,5
 307 -134 307 -134 231.5 -64.5 c 128,-1,6
 156 5 156 5 156 139 c 0,7,8
 156 144 156 144 157 155.5 c 128,-1,9
 158 167 158 167 158 173 c 1,10,-1
 248 173 l 1,11,12
 248 167 248 167 247 156.5 c 128,-1,13
 246 146 246 146 246 141 c 0,14,15
 246 45 246 45 298.5 0 c 128,-1,16
 351 -45 351 -45 434 -45 c 0,17,18
 551 -45 551 -45 638.5 35.5 c 128,-1,19
 726 116 726 116 726 218 c 0,20,21
 726 262 726 262 701 296.5 c 128,-1,22
 676 331 676 331 636 354.5 c 128,-1,23
 596 378 596 378 547.5 399.5 c 128,-1,24
 499 421 499 421 450 445 c 128,-1,25
 401 469 401 469 361 497.5 c 128,-1,26
 321 526 321 526 296 570.5 c 128,-1,27
 271 615 271 615 271 671 c 0,28,29
 271 696 271 696 277 726 c 128,-1,30
 283 756 283 756 299 800 c 128,-1,31
 315 844 315 844 353 890.5 c 128,-1,32
 391 937 391 937 446 974 c 1,33,34
 369 1039 369 1039 369 1135 c 0,35,36
 369 1279 369 1279 489.5 1392.5 c 128,-1,37
 610 1506 610 1506 771 1506 c 0,38,39
 883 1506 883 1506 958.5 1438 c 128,-1,40
 1034 1370 1034 1370 1034 1235 c 0,41,42
 1034 1230 1034 1230 1033 1219 c 128,-1,43
 1032 1208 1032 1208 1032 1202 c 1,44,-1
 940 1202 l 1,45,-1
 940 1226 l 2,46,47
 940 1322 940 1322 888 1369.5 c 128,-1,48
 836 1417 836 1417 754 1417 c 0,49,50
 640 1417 640 1417 553 1338.5 c 128,-1,51
 466 1260 466 1260 466 1157 c 0,52,53
 466 1096 466 1096 513 1052.5 c 128,-1,54
 560 1009 560 1009 626.5 980.5 c 128,-1,55
 693 952 693 952 759.5 920.5 c 128,-1,56
 826 889 826 889 873 835 c 128,-1,57
 920 781 920 781 920 705 c 0,58,59
 920 680 920 680 914 650 c 128,-1,60
 908 620 908 620 892 576.5 c 128,-1,61
 876 533 876 533 838 486.5 c 128,-1,62
 800 440 800 440 745 403 c 1,63,64
 822 338 822 338 822 242 c 0,0,1
669 455 m 1,65,66
 755 498 755 498 791.5 561.5 c 128,-1,67
 828 625 828 625 828 679 c 0,68,69
 828 717 828 717 810 748 c 128,-1,70
 792 779 792 779 755.5 803.5 c 128,-1,71
 719 828 719 828 686.5 844.5 c 128,-1,72
 654 861 654 861 600 884.5 c 128,-1,73
 546 908 546 908 519 922 c 1,74,75
 474 899 474 899 441.5 867.5 c 128,-1,76
 409 836 409 836 393.5 803.5 c 128,-1,77
 378 771 378 771 371.5 745 c 128,-1,78
 365 719 365 719 365 696 c 0,79,80
 365 663 365 663 379 635.5 c 128,-1,81
 393 608 393 608 413.5 589 c 128,-1,82
 434 570 434 570 467.5 550.5 c 128,-1,83
 501 531 501 531 529.5 518.5 c 128,-1,84
 558 506 558 506 600 487.5 c 128,-1,85
 642 469 642 469 669 455 c 1,65,66
EndSplineSet
EndChar

StartChar: currency
Encoding: 164 164 102
Width: 1301
VWidth: 2982
Flags: W
HStem: 331 92<583.709 916.121> 1104 90<715.153 1045.17>
VStem: 376 92<539.497 859.77> 1164 94<663.673 986.674>
DStem2: 211 316 260 252 0.774047 0.633128<0 279.585 1220.47 1480.52> 493 1254 416 1191 0.618935 -0.785442<1.82485 201.949 970.36 1189.14>
LayerCount: 3
Fore
SplineSet
376 673 m 0
 376 839 470 967 540 1036 c 1
 416 1191 l 1
 493 1254 l 1
 615 1100 l 1
 703 1157 803 1194 904 1194 c 0
 1010 1194 1097 1155 1157 1092 c 1
 1359 1254 l 1
 1408 1191 l 1
 1215 1030 l 1
 1243 978 1258 918 1258 853 c 0
 1258 690 1166 562 1094 493 c 1
 1229 320 l 1
 1153 258 l 1
 1019 427 l 1
 931 367 828 331 728 331 c 0
 622 331 534 367 472 427 c 1
 260 252 l 1
 211 316 l 1
 423 491 l 1
 393 542 376 607 376 673 c 0
889 1104 m 0
 679 1104 468 912 468 692 c 0
 468 538 579 423 743 423 c 0
 947 423 1164 611 1164 833 c 0
 1164 987 1053 1104 889 1104 c 0
EndSplineSet
Validated: 1
Layer: 2
SplineSet
376 673 m 0,0,1
 376 785 376 785 425 878 c 128,-1,2
 474 971 474 971 540 1036 c 1,3,-1
 416 1191 l 1,4,-1
 493 1254 l 1,5,-1
 615 1100 l 1,6,7
 760 1194 760 1194 904 1194 c 0,8,9
 1060 1194 1060 1194 1157 1092 c 1,10,-1
 1359 1254 l 1,11,-1
 1408 1191 l 1,12,-1
 1215 1030 l 1,13,14
 1258 950 1258 950 1258 853 c 0,15,16
 1258 743 1258 743 1209 650 c 128,-1,17
 1160 557 1160 557 1094 493 c 1,18,-1
 1229 320 l 1,19,-1
 1153 258 l 1,20,-1
 1019 427 l 1,21,22
 878 331 878 331 728 331 c 0,23,24
 571 331 571 331 472 427 c 1,25,-1
 260 252 l 1,26,-1
 211 316 l 1,27,-1
 423 491 l 1,28,29
 376 571 376 571 376 673 c 0,0,1
889 1104 m 0,30,31
 785 1104 785 1104 687.5 1047.5 c 128,-1,32
 590 991 590 991 529 895 c 128,-1,33
 468 799 468 799 468 692 c 0,34,35
 468 575 468 575 544.5 499 c 128,-1,36
 621 423 621 423 743 423 c 0,37,38
 844 423 844 423 941.5 478.5 c 128,-1,39
 1039 534 1039 534 1101.5 630 c 128,-1,40
 1164 726 1164 726 1164 833 c 0,41,42
 1164 950 1164 950 1087.5 1027 c 128,-1,43
 1011 1104 1011 1104 889 1104 c 0,30,31
EndSplineSet
EndChar

StartChar: quotesingle
Encoding: 39 39 103
Width: 451
VWidth: 2982
Flags: W
HStem: 1164 387<497 504>
VStem: 446 169
LayerCount: 3
Fore
SplineSet
504 1164 m 1
 446 1164 l 1
 497 1551 l 1
 615 1551 l 1
 504 1164 l 1
EndSplineSet
Validated: 1
Layer: 2
SplineSet
504 1164 m 1,0,-1
 446 1164 l 1,1,-1
 497 1551 l 1,2,-1
 615 1551 l 1,3,-1
 504 1164 l 1,0,-1
EndSplineSet
EndChar

StartChar: quotedblleft
Encoding: 8220 8220 104
Width: 737
VWidth: 2982
Flags: W
HStem: 1083 205<502 572.345 771 841.008>
VStem: 380 224<1114.07 1279.5> 649 224<1115.45 1279.5>
LayerCount: 3
Fore
SplineSet
604 1207 m 0
 604 1141 544 1083 481 1083 c 0
 432 1083 380 1117 380 1186 c 0
 380 1254 434 1401 602 1513 c 1
 679 1513 l 1
 591 1455 515 1354 502 1285 c 1
 508 1285 515 1288 524 1288 c 0
 571 1288 604 1254 604 1207 c 0
873 1207 m 0
 873 1141 812 1083 750 1083 c 0
 701 1083 649 1117 649 1186 c 0
 649 1254 703 1401 871 1513 c 1
 947 1513 l 1
 859 1455 784 1354 771 1285 c 1
 777 1285 784 1288 792 1288 c 0
 839 1288 873 1254 873 1207 c 0
EndSplineSet
Validated: 1
Layer: 2
SplineSet
604 1207 m 0,0,1
 604 1158 604 1158 566.5 1120.5 c 128,-1,2
 529 1083 529 1083 481 1083 c 0,3,4
 441 1083 441 1083 410.5 1110 c 128,-1,5
 380 1137 380 1137 380 1186 c 0,6,7
 380 1225 380 1225 399 1276 c 128,-1,8
 418 1327 418 1327 471 1394 c 128,-1,9
 524 1461 524 1461 602 1513 c 1,10,-1
 679 1513 l 1,11,12
 614 1470 614 1470 563 1403.5 c 128,-1,13
 512 1337 512 1337 502 1285 c 1,14,15
 505 1285 505 1285 512 1286.5 c 128,-1,16
 519 1288 519 1288 524 1288 c 0,17,18
 559 1288 559 1288 581.5 1265 c 128,-1,19
 604 1242 604 1242 604 1207 c 0,0,1
873 1207 m 0,20,21
 873 1158 873 1158 835 1120.5 c 128,-1,22
 797 1083 797 1083 750 1083 c 0,23,24
 710 1083 710 1083 679.5 1110 c 128,-1,25
 649 1137 649 1137 649 1186 c 0,26,27
 649 1225 649 1225 668 1276 c 128,-1,28
 687 1327 687 1327 740 1394 c 128,-1,29
 793 1461 793 1461 871 1513 c 1,30,-1
 947 1513 l 1,31,32
 882 1470 882 1470 831.5 1404 c 128,-1,33
 781 1338 781 1338 771 1285 c 1,34,35
 774 1285 774 1285 781 1286.5 c 128,-1,36
 788 1288 788 1288 792 1288 c 0,37,38
 827 1288 827 1288 850 1265 c 128,-1,39
 873 1242 873 1242 873 1207 c 0,20,21
EndSplineSet
EndChar

StartChar: guillemotleft
Encoding: 171 171 105
Width: 874
VWidth: 2982
Flags: W
DStem2: 340 508 231 508 0.451198 -0.892424<0 351.072> 231 508 340 508 0.680059 0.733157<74.1265 489.663> 669 508 560 508 0.447214 -0.894427<0 351.51> 560 508 669 508 0.681155 0.732139<74.2459 488.3>
LayerCount: 3
Fore
SplineSet
891 867 m 1
 1003 867 l 1
 669 508 l 1
 848 150 l 1
 739 150 l 1
 560 508 l 1
 891 867 l 1
564 867 m 1
 673 867 l 1
 340 508 l 1
 521 150 l 1
 410 150 l 1
 231 508 l 1
 564 867 l 1
EndSplineSet
Validated: 1
Layer: 2
SplineSet
891 867 m 1,0,-1
 1003 867 l 1,1,-1
 669 508 l 1,2,-1
 848 150 l 1,3,-1
 739 150 l 1,4,-1
 560 508 l 1,5,-1
 891 867 l 1,0,-1
564 867 m 1,6,-1
 673 867 l 1,7,-1
 340 508 l 1,8,-1
 521 150 l 1,9,-1
 410 150 l 1,10,-1
 231 508 l 1,11,-1
 564 867 l 1,6,-1
EndSplineSet
EndChar

StartChar: guilsinglleft
Encoding: 8249 8249 106
Width: 472
VWidth: 2982
Flags: W
VStem: 143 444
DStem2: 255 508 143 508 0.45318 -0.891419<0 350.851> 143 508 255 508 0.681155 0.732139<76.2893 490.344>
LayerCount: 3
Fore
SplineSet
477 867 m 1
 587 867 l 1
 255 508 l 1
 434 150 l 1
 325 150 l 1
 143 508 l 1
 477 867 l 1
EndSplineSet
Validated: 1
Layer: 2
SplineSet
477 867 m 1,0,-1
 587 867 l 1,1,-1
 255 508 l 1,2,-1
 434 150 l 1,3,-1
 325 150 l 1,4,-1
 143 508 l 1,5,-1
 477 867 l 1,0,-1
EndSplineSet
EndChar

StartChar: guilsinglright
Encoding: 8250 8250 107
Width: 472
VWidth: 2982
Flags: W
VStem: 103 443
DStem2: 103 150 215 150 0.681078 0.73221<76.2808 488.93> 367 867 255 867 0.450196 -0.89293<0 351.625>
LayerCount: 3
Fore
SplineSet
255 867 m 1
 367 867 l 1
 546 508 l 1
 215 150 l 1
 103 150 l 1
 436 508 l 1
 255 867 l 1
EndSplineSet
Validated: 1
Layer: 2
SplineSet
255 867 m 1,0,-1
 367 867 l 1,1,-1
 546 508 l 1,2,-1
 215 150 l 1,3,-1
 103 150 l 1,4,-1
 436 508 l 1,5,-1
 255 867 l 1,0,-1
EndSplineSet
EndChar

StartChar: endash
Encoding: 8211 8211 108
Width: 530
VWidth: 2982
Flags: W
HStem: 446 125<121 626>
VStem: 94 557
LayerCount: 3
Fore
SplineSet
651 571 m 1
 626 446 l 1
 94 446 l 1
 121 571 l 1
 651 571 l 1
EndSplineSet
Validated: 1
Layer: 2
SplineSet
651 571 m 1,0,-1
 626 446 l 1,1,-1
 94 446 l 1,2,-1
 121 571 l 1,3,-1
 651 571 l 1,0,-1
EndSplineSet
EndChar

StartChar: dagger
Encoding: 8224 8224 109
Width: 1168
VWidth: 2982
Flags: W
HStem: 940 90<363 728.568 874.056 1226> 1473 20G<853.409 947>
DStem2: 479 -286 568 -286 0.207912 0.978148<18.5041 1272.1 1344.78 1818.72>
LayerCount: 3
Fore
SplineSet
568 -286 m 1
 479 -286 l 1
 759 955 l 1
 342 940 l 1
 363 1030 l 1
 771 1014 l 1
 857 1493 l 1
 947 1493 l 1
 831 1014 l 1
 1245 1030 l 1
 1226 940 l 1
 818 955 l 1
 568 -286 l 1
EndSplineSet
Validated: 1
Layer: 2
SplineSet
568 -286 m 1,0,-1
 479 -286 l 1,1,-1
 759 955 l 1,2,-1
 342 940 l 1,3,-1
 363 1030 l 1,4,-1
 771 1014 l 1,5,-1
 857 1493 l 1,6,-1
 947 1493 l 1,7,-1
 831 1014 l 1,8,-1
 1245 1030 l 1,9,-1
 1226 940 l 1,10,-1
 818 955 l 1,11,-1
 568 -286 l 1,0,-1
EndSplineSet
EndChar

StartChar: daggerdbl
Encoding: 8225 8225 110
Width: 1168
VWidth: 2982
Flags: W
HStem: 262 90<218 569.944 715.64 1083> 278 60<242.056 613 687 1040.36> 857 90<344 709.568 855.056 1209> 871 60<386.432 741 812 1182.94> 1473 20G<853.263 947>
DStem2: 479 -286 568 -286 0.207912 0.978148<18.5041 579.535 653.61 1186.19 1259.64 1818.72>
LayerCount: 3
Fore
SplineSet
568 -286 m 1x48
 479 -286 l 1
 613 278 l 1x48
 199 262 l 1
 218 352 l 1x88
 626 338 l 1
 741 871 l 1x58
 325 857 l 1
 344 947 l 1x28
 752 931 l 1
 857 1493 l 1
 947 1493 l 1
 812 931 l 1x18
 1226 947 l 1
 1209 857 l 1x28
 799 871 l 1
 687 338 l 1x58
 1102 352 l 1
 1083 262 l 1x88
 673 278 l 1
 568 -286 l 1x48
EndSplineSet
Validated: 1
Layer: 2
SplineSet
568 -286 m 1,0,-1
 479 -286 l 1,1,-1
 613 278 l 1,2,-1
 199 262 l 1,3,-1
 218 352 l 1,4,-1
 626 338 l 1,5,-1
 741 871 l 1,6,-1
 325 857 l 1,7,-1
 344 947 l 1,8,-1
 752 931 l 1,9,-1
 857 1493 l 1,10,-1
 947 1493 l 1,11,-1
 812 931 l 1,12,-1
 1226 947 l 1,13,-1
 1209 857 l 1,14,-1
 799 871 l 1,15,-1
 687 338 l 1,16,-1
 1102 352 l 1,17,-1
 1083 262 l 1,18,-1
 673 278 l 1,19,-1
 568 -286 l 1,0,-1
EndSplineSet
EndChar

StartChar: periodcentered
Encoding: 183 183 111
Width: 498
VWidth: 2982
Flags: W
HStem: 662 169<347.42 475.247>
VStem: 325 170<682.638 809.041>
LayerCount: 3
Fore
SplineSet
325 728 m 0
 325 781 378 831 427 831 c 0
 468 831 495 799 495 761 c 0
 495 703 436 662 391 662 c 0
 354 662 325 692 325 728 c 0
EndSplineSet
Validated: 1
Layer: 2
SplineSet
325 728 m 0,0,1
 325 767 325 767 357.5 799 c 128,-1,2
 390 831 390 831 427 831 c 0,3,4
 457 831 457 831 476 810.5 c 128,-1,5
 495 790 495 790 495 761 c 0,6,7
 495 720 495 720 461.5 691 c 128,-1,8
 428 662 428 662 391 662 c 0,9,10
 363 662 363 662 344 681.5 c 128,-1,11
 325 701 325 701 325 728 c 0,0,1
EndSplineSet
EndChar

StartChar: paragraph
Encoding: 182 182 112
Width: 1260
VWidth: 2982
Flags: W
HStem: 1403 90<1155 1305>
DStem2: 714 -248 803 -248 0.207912 0.978148<18.5041 711.354> 953 -248 1043 -248 0.207912 0.978148<18.7121 1688.11>
LayerCount: 3
Fore
SplineSet
318 869 m 0
 318 1144 579 1493 1063 1493 c 2
 1412 1493 l 1
 1043 -248 l 1
 953 -248 l 1
 1305 1403 l 1
 1155 1403 l 1
 803 -248 l 1
 714 -248 l 1
 861 448 l 1
 842 448 l 2
 483 448 318 645 318 869 c 0
EndSplineSet
Validated: 1
Layer: 2
SplineSet
318 869 m 0,0,1
 318 953 318 953 348.5 1039.5 c 128,-1,2
 379 1126 379 1126 441.5 1207.5 c 128,-1,3
 504 1289 504 1289 591 1352.5 c 128,-1,4
 678 1416 678 1416 800.5 1454.5 c 128,-1,5
 923 1493 923 1493 1063 1493 c 2,6,-1
 1412 1493 l 1,7,-1
 1043 -248 l 1,8,-1
 953 -248 l 1,9,-1
 1305 1403 l 1,10,-1
 1155 1403 l 1,11,-1
 803 -248 l 1,12,-1
 714 -248 l 1,13,-1
 861 448 l 1,14,-1
 842 448 l 2,15,16
 712 448 712 448 609.5 482 c 128,-1,17
 507 516 507 516 444.5 575 c 128,-1,18
 382 634 382 634 350 708.5 c 128,-1,19
 318 783 318 783 318 869 c 0,0,1
EndSplineSet
EndChar

StartChar: bullet
Encoding: 8226 8226 113
Width: 989
VWidth: 2982
Flags: W
HStem: 239 716<522.724 721.41>
VStem: 262 721<498.988 695.496>
LayerCount: 3
Fore
SplineSet
262 521 m 0
 262 752 481 955 698 955 c 0
 867 955 983 835 983 673 c 0
 983 444 763 239 546 239 c 0
 378 239 262 361 262 521 c 0
EndSplineSet
Validated: 1
Layer: 2
SplineSet
262 521 m 0,0,1
 262 633 262 633 325.5 734.5 c 128,-1,2
 389 836 389 836 490 895.5 c 128,-1,3
 591 955 591 955 698 955 c 0,4,5
 824 955 824 955 903.5 875 c 128,-1,6
 983 795 983 795 983 673 c 0,7,8
 983 562 983 562 919.5 460.5 c 128,-1,9
 856 359 856 359 754.5 299 c 128,-1,10
 653 239 653 239 546 239 c 0,11,12
 421 239 421 239 341.5 319.5 c 128,-1,13
 262 400 262 400 262 521 c 0,0,1
EndSplineSet
EndChar

StartChar: quotesinglbase
Encoding: 8218 8218 114
Width: 523
VWidth: 2982
Flags: W
HStem: -260 431
VStem: 201 224<-26.0552 136.522>
LayerCount: 3
Fore
SplineSet
201 47 m 0
 201 116 271 171 325 171 c 0
 374 171 425 137 425 67 c 0
 425 0 374 -148 205 -260 c 1
 130 -260 l 1
 215 -201 291 -101 307 -32 c 1
 299 -32 291 -34 282 -34 c 0
 235 -34 201 2 201 47 c 0
EndSplineSet
Validated: 1
Layer: 2
SplineSet
201 47 m 0,0,1
 201 96 201 96 241.5 133.5 c 128,-1,2
 282 171 282 171 325 171 c 0,3,4
 365 171 365 171 395 143.5 c 128,-1,5
 425 116 425 116 425 67 c 0,6,7
 425 2 425 2 371.5 -91.5 c 128,-1,8
 318 -185 318 -185 205 -260 c 1,9,-1
 130 -260 l 1,10,11
 193 -216 193 -216 244 -150 c 128,-1,12
 295 -84 295 -84 307 -32 c 1,13,14
 303 -32 303 -32 295 -33 c 128,-1,15
 287 -34 287 -34 282 -34 c 0,16,17
 247 -34 247 -34 224 -10.5 c 128,-1,18
 201 13 201 13 201 47 c 0,0,1
EndSplineSet
EndChar

StartChar: quotedblbase
Encoding: 8222 8222 115
Width: 737
VWidth: 2982
Flags: W
HStem: -15 203<174.836 250 443.652 519>
VStem: 143 226<-1.22581 154.5> 412 226<-1.22581 155.549>
LayerCount: 3
Fore
SplineSet
412 67 m 0
 412 139 483 188 540 188 c 0
 587 188 638 154 638 85 c 0
 638 20 591 -126 419 -242 c 1
 342 -242 l 1
 427 -184 504 -83 519 -13 c 1
 513 -13 504 -15 497 -15 c 0
 448 -15 412 20 412 67 c 0
143 67 m 0
 143 139 215 188 271 188 c 0
 318 188 369 154 369 85 c 0
 369 20 322 -126 150 -242 c 1
 74 -242 l 1
 158 -184 235 -83 250 -13 c 1
 244 -13 235 -15 228 -15 c 0
 179 -15 143 20 143 67 c 0
EndSplineSet
Validated: 1
Layer: 2
SplineSet
412 67 m 0,0,1
 412 118 412 118 453 153 c 128,-1,2
 494 188 494 188 540 188 c 0,3,4
 579 188 579 188 608.5 161 c 128,-1,5
 638 134 638 134 638 85 c 0,6,7
 638 58 638 58 627.5 22 c 128,-1,8
 617 -14 617 -14 594 -58.5 c 128,-1,9
 571 -103 571 -103 525.5 -152 c 128,-1,10
 480 -201 480 -201 419 -242 c 1,11,-1
 342 -242 l 1,12,13
 405 -199 405 -199 456.5 -132.5 c 128,-1,14
 508 -66 508 -66 519 -13 c 1,15,16
 516 -13 516 -13 508.5 -14 c 128,-1,17
 501 -15 501 -15 497 -15 c 0,18,19
 460 -15 460 -15 436 8.5 c 128,-1,20
 412 32 412 32 412 67 c 0,0,1
143 67 m 0,21,22
 143 118 143 118 184 153 c 128,-1,23
 225 188 225 188 271 188 c 0,24,25
 310 188 310 188 339.5 161 c 128,-1,26
 369 134 369 134 369 85 c 0,27,28
 369 58 369 58 358.5 22 c 128,-1,29
 348 -14 348 -14 325 -58.5 c 128,-1,30
 302 -103 302 -103 256.5 -152 c 128,-1,31
 211 -201 211 -201 150 -242 c 1,32,-1
 74 -242 l 1,33,34
 137 -199 137 -199 188 -132.5 c 128,-1,35
 239 -66 239 -66 250 -13 c 1,36,37
 247 -13 247 -13 239.5 -14 c 128,-1,38
 232 -15 232 -15 228 -15 c 0,39,40
 191 -15 191 -15 167 8.5 c 128,-1,41
 143 32 143 32 143 67 c 0,21,22
EndSplineSet
EndChar

StartChar: quotedblright
Encoding: 8221 8221 116
Width: 737
VWidth: 2982
Flags: W
HStem: 1305 201<454.836 530 723.652 799>
VStem: 423 228<1317.04 1471.88> 692 228<1317.04 1473.41>
LayerCount: 3
Fore
SplineSet
692 1386 m 0
 692 1455 763 1506 820 1506 c 0
 869 1506 920 1476 920 1403 c 0
 920 1339 867 1191 698 1077 c 1
 622 1077 l 1
 707 1135 786 1238 799 1307 c 1
 792 1305 784 1305 777 1305 c 0
 728 1305 692 1341 692 1386 c 0
423 1386 m 0
 423 1455 495 1506 551 1506 c 0
 600 1506 651 1476 651 1403 c 0
 651 1339 598 1191 430 1077 c 1
 354 1077 l 1
 438 1135 517 1238 530 1307 c 1
 524 1305 515 1305 508 1305 c 0
 459 1305 423 1341 423 1386 c 0
EndSplineSet
Validated: 1
Layer: 2
SplineSet
692 1386 m 0,0,1
 692 1435 692 1435 733 1470.5 c 128,-1,2
 774 1506 774 1506 820 1506 c 0,3,4
 861 1506 861 1506 890.5 1480 c 128,-1,5
 920 1454 920 1454 920 1403 c 0,6,7
 920 1376 920 1376 908.5 1340 c 128,-1,8
 897 1304 897 1304 873 1259.5 c 128,-1,9
 849 1215 849 1215 803.5 1166 c 128,-1,10
 758 1117 758 1117 698 1077 c 1,11,-1
 622 1077 l 1,12,13
 686 1120 686 1120 737.5 1187.5 c 128,-1,14
 789 1255 789 1255 799 1307 c 1,15,16
 792 1305 792 1305 777 1305 c 0,17,18
 741 1305 741 1305 716.5 1328.5 c 128,-1,19
 692 1352 692 1352 692 1386 c 0,0,1
423 1386 m 0,20,21
 423 1435 423 1435 464.5 1470.5 c 128,-1,22
 506 1506 506 1506 551 1506 c 0,23,24
 592 1506 592 1506 621.5 1480 c 128,-1,25
 651 1454 651 1454 651 1403 c 0,26,27
 651 1366 651 1366 632.5 1316 c 128,-1,28
 614 1266 614 1266 561 1198 c 128,-1,29
 508 1130 508 1130 430 1077 c 1,30,-1
 354 1077 l 1,31,32
 417 1121 417 1121 468.5 1188 c 128,-1,33
 520 1255 520 1255 530 1307 c 1,34,35
 524 1305 524 1305 508 1305 c 0,36,37
 472 1305 472 1305 447.5 1328.5 c 128,-1,38
 423 1352 423 1352 423 1386 c 0,20,21
EndSplineSet
EndChar

StartChar: guillemotright
Encoding: 187 187 117
Width: 874
VWidth: 2982
Flags: W
DStem2: 154 150 265 150 0.681078 0.73221<75.5997 488.93> 416 867 307 867 0.452176 -0.891929<0 352.307> 481 150 593 150 0.682173 0.731191<76.4033 488.93> 745 867 636 867 0.452176 -0.891929<0 351.403>
LayerCount: 3
Fore
SplineSet
307 867 m 1
 416 867 l 1
 598 508 l 1
 265 150 l 1
 154 150 l 1
 487 508 l 1
 307 867 l 1
636 867 m 1
 745 867 l 1
 927 508 l 1
 593 150 l 1
 481 150 l 1
 814 508 l 1
 636 867 l 1
EndSplineSet
Validated: 1
Layer: 2
SplineSet
307 867 m 1,0,-1
 416 867 l 1,1,-1
 598 508 l 1,2,-1
 265 150 l 1,3,-1
 154 150 l 1,4,-1
 487 508 l 1,5,-1
 307 867 l 1,0,-1
636 867 m 1,6,-1
 745 867 l 1,7,-1
 927 508 l 1,8,-1
 593 150 l 1,9,-1
 481 150 l 1,10,-1
 814 508 l 1,11,-1
 636 867 l 1,6,-1
EndSplineSet
EndChar

StartChar: ellipsis
Encoding: 8230 8230 118
Width: 1765
VWidth: 2982
Flags: W
HStem: -15 167<234.177 367.823 833.471 967.823 1430.72 1560.38>
VStem: 215 172<6.04936 131.986> 814 173<6.04936 130.842> 1410 170<5.47309 130.842>
LayerCount: 3
Fore
SplineSet
215 54 m 0
 215 111 273 152 318 152 c 0
 359 152 387 124 387 85 c 0
 387 27 329 -15 284 -15 c 0
 244 -15 215 15 215 54 c 0
1410 51 m 0
 1410 109 1468 152 1513 152 c 0
 1553 152 1580 124 1580 85 c 0
 1580 27 1523 -15 1478 -15 c 0
 1439 -15 1410 13 1410 51 c 0
814 54 m 0
 814 111 873 152 918 152 c 0
 959 152 987 124 987 85 c 0
 987 27 929 -15 884 -15 c 0
 844 -15 814 15 814 54 c 0
EndSplineSet
Validated: 1
Layer: 2
SplineSet
215 54 m 0,0,1
 215 94 215 94 248.5 123 c 128,-1,2
 282 152 282 152 318 152 c 0,3,4
 349 152 349 152 368 133 c 128,-1,5
 387 114 387 114 387 85 c 0,6,7
 387 44 387 44 353.5 14.5 c 128,-1,8
 320 -15 320 -15 284 -15 c 0,9,10
 254 -15 254 -15 234.5 5 c 128,-1,11
 215 25 215 25 215 54 c 0,0,1
1410 51 m 0,12,13
 1410 92 1410 92 1443.5 122 c 128,-1,14
 1477 152 1477 152 1513 152 c 0,15,16
 1543 152 1543 152 1561.5 133 c 128,-1,17
 1580 114 1580 114 1580 85 c 0,18,19
 1580 44 1580 44 1547 14.5 c 128,-1,20
 1514 -15 1514 -15 1478 -15 c 0,21,22
 1449 -15 1449 -15 1429.5 4 c 128,-1,23
 1410 23 1410 23 1410 51 c 0,12,13
814 54 m 0,24,25
 814 94 814 94 848 123 c 128,-1,26
 882 152 882 152 918 152 c 0,27,28
 949 152 949 152 968 133 c 128,-1,29
 987 114 987 114 987 85 c 0,30,31
 987 44 987 44 953.5 14.5 c 128,-1,32
 920 -15 920 -15 884 -15 c 0,33,34
 854 -15 854 -15 834 5 c 128,-1,35
 814 25 814 25 814 54 c 0,24,25
EndSplineSet
EndChar

StartChar: perthousand
Encoding: 8240 8240 119
Width: 2213
VWidth: 2982
Flags: W
HStem: -17 91<1003.81 1255.15 1750.55 1998.32> 474 92<1069.55 1322.44 1813.81 2069.54> 916 94<462.792 716.322> 1408 94<528.31 779.74>
VStem: 322 92<1057 1296.33> 827 93<1121 1362.34> 864 92<122.144 360.724> 1370 92<187.154 426.687> 1610 91<122.153 361.659> 2116 91<186.763 426.935>
DStem2: 148 -9 258 -9 0.677707 0.735332<74.5478 2030.38>
LayerCount: 3
Fore
SplineSet
864 214 m 0xfbc0
 864 391 1033 566 1224 566 c 0
 1364 566 1462 467 1462 335 c 0
 1462 151 1282 -17 1100 -17 c 0
 959 -17 864 82 864 214 c 0xfbc0
1205 474 m 0
 1072 474 956 354 956 233 c 0
 956 142 1022 74 1120 74 c 0
 1255 74 1370 197 1370 317 c 0
 1370 407 1304 474 1205 474 c 0
1610 213 m 0
 1610 398 1790 567 1973 567 c 0
 2112 567 2207 467 2207 335 c 0
 2207 150 2030 -17 1848 -17 c 0
 1707 -17 1610 81 1610 213 c 0
1953 475 m 0
 1814 475 1701 351 1701 233 c 0
 1701 143 1768 75 1868 75 c 0
 1990 75 2116 185 2116 316 c 0
 2116 407 2050 475 1953 475 c 0
322 1148 m 0
 322 1335 503 1502 684 1502 c 0
 824 1502 920 1402 920 1270 c 0xfdc0
 920 1085 743 916 560 916 c 0
 419 916 322 1016 322 1148 c 0
664 1408 m 0
 537 1408 414 1295 414 1168 c 0
 414 1078 480 1010 580 1010 c 0
 711 1010 827 1129 827 1250 c 0
 827 1340 762 1408 664 1408 c 0
1524 1484 m 1
 1633 1484 l 1
 258 -9 l 1
 148 -9 l 1
 1524 1484 l 1
EndSplineSet
Validated: 1
Layer: 2
SplineSet
864 214 m 0,0,1
 864 301 864 301 913.5 382.5 c 128,-1,2
 963 464 963 464 1047 515 c 128,-1,3
 1131 566 1131 566 1224 566 c 0,4,5
 1328 566 1328 566 1395 500.5 c 128,-1,6
 1462 435 1462 435 1462 335 c 0,7,8
 1462 245 1462 245 1410 163 c 128,-1,9
 1358 81 1358 81 1274 32 c 128,-1,10
 1190 -17 1190 -17 1100 -17 c 0,11,12
 995 -17 995 -17 929.5 48.5 c 128,-1,13
 864 114 864 114 864 214 c 0,0,1
1205 474 m 0,14,15
 1107 474 1107 474 1031.5 399.5 c 128,-1,16
 956 325 956 325 956 233 c 0,17,18
 956 164 956 164 1001.5 119 c 128,-1,19
 1047 74 1047 74 1120 74 c 0,20,21
 1219 74 1219 74 1294.5 149.5 c 128,-1,22
 1370 225 1370 225 1370 317 c 0,23,24
 1370 385 1370 385 1324 429.5 c 128,-1,25
 1278 474 1278 474 1205 474 c 0,14,15
1610 213 m 0,26,27
 1610 303 1610 303 1662 385.5 c 128,-1,28
 1714 468 1714 468 1798.5 517.5 c 128,-1,29
 1883 567 1883 567 1973 567 c 0,30,31
 2076 567 2076 567 2141.5 501 c 128,-1,32
 2207 435 2207 435 2207 335 c 0,33,34
 2207 245 2207 245 2155.5 163 c 128,-1,35
 2104 81 2104 81 2021 32 c 128,-1,36
 1938 -17 1938 -17 1848 -17 c 0,37,38
 1743 -17 1743 -17 1676.5 48 c 128,-1,39
 1610 113 1610 113 1610 213 c 0,26,27
1953 475 m 0,40,41
 1851 475 1851 475 1776 399.5 c 128,-1,42
 1701 324 1701 324 1701 233 c 0,43,44
 1701 165 1701 165 1747.5 120 c 128,-1,45
 1794 75 1794 75 1868 75 c 0,46,47
 1962 75 1962 75 2039 147.5 c 128,-1,48
 2116 220 2116 220 2116 316 c 0,49,50
 2116 385 2116 385 2070.5 430 c 128,-1,51
 2025 475 2025 475 1953 475 c 0,40,41
322 1148 m 0,52,53
 322 1239 322 1239 374.5 1321.5 c 128,-1,54
 427 1404 427 1404 511 1453 c 128,-1,55
 595 1502 595 1502 684 1502 c 0,56,57
 788 1502 788 1502 854 1436 c 128,-1,58
 920 1370 920 1370 920 1270 c 0,59,60
 920 1132 920 1132 809 1024 c 128,-1,61
 698 916 698 916 560 916 c 0,62,63
 455 916 455 916 388.5 982 c 128,-1,64
 322 1048 322 1048 322 1148 c 0,52,53
664 1408 m 0,65,66
 568 1408 568 1408 491 1335 c 128,-1,67
 414 1262 414 1262 414 1168 c 0,68,69
 414 1100 414 1100 460 1055 c 128,-1,70
 506 1010 506 1010 580 1010 c 0,71,72
 677 1010 677 1010 752 1084 c 128,-1,73
 827 1158 827 1158 827 1250 c 0,74,75
 827 1318 827 1318 782 1363 c 128,-1,76
 737 1408 737 1408 664 1408 c 0,65,66
1524 1484 m 1,77,-1
 1633 1484 l 1,78,-1
 258 -9 l 1,79,-1
 148 -9 l 1,80,-1
 1524 1484 l 1,77,-1
EndSplineSet
EndChar

StartChar: questiondown
Encoding: 191 191 120
Width: 1036
VWidth: 2982
Flags: W
HStem: -493 90<262.25 586.495> 861 169<684.616 812.088>
VStem: 90 89<-320.755 -43.7298> 665 170<882.966 1009.5> 801 90<-211.96 -116>
DStem2: 396.816 -493 485.816 -493 0.207912 0.978148<894.401 1226.62>
LayerCount: 3
Fore
SplineSet
835 965 m 0xf0
 835 912 781 861 732 861 c 0
 692 861 665 893 665 931 c 0
 665 989 724 1030 767 1030 c 0
 806 1030 835 1000 835 965 c 0xf0
651 707 m 1
 741 707 l 1
 709 557 l 1
 636 208 231 87 188 -116 c 1
 184 -141 179 -164 179 -186 c 0
 179 -318 273 -403 412 -403 c 0
 604 -403 773 -252 801 -116 c 1
 891 -116 l 1xe8
 850 -314 626 -493 393 -493 c 0
 208 -493 90 -374 90 -203 c 0
 90 148 549 215 620 557 c 2
 651 707 l 1
EndSplineSet
Validated: 1
Layer: 2
SplineSet
835 965 m 0,0,1
 835 926 835 926 802 893.5 c 128,-1,2
 769 861 769 861 732 861 c 0,3,4
 703 861 703 861 684 881.5 c 128,-1,5
 665 902 665 902 665 931 c 0,6,7
 665 972 665 972 698.5 1001 c 128,-1,8
 732 1030 732 1030 767 1030 c 0,9,10
 796 1030 796 1030 815.5 1011 c 128,-1,11
 835 992 835 992 835 965 c 0,0,1
651 707 m 1,12,-1
 741 707 l 1,13,-1
 709 557 l 2,14,15
 694 486 694 486 659.5 421 c 128,-1,16
 625 356 625 356 581 306 c 128,-1,17
 537 256 537 256 487 210 c 128,-1,18
 437 164 437 164 388 123.5 c 128,-1,19
 339 83 339 83 297.5 45.5 c 128,-1,20
 256 8 256 8 226.5 -33.5 c 128,-1,21
 197 -75 197 -75 188 -116 c 0,22,23
 179 -172 179 -172 179 -186 c 0,24,25
 179 -285 179 -285 243 -344 c 128,-1,26
 307 -403 307 -403 412 -403 c 0,27,28
 550 -403 550 -403 664.5 -313 c 128,-1,29
 779 -223 779 -223 801 -116 c 1,30,-1
 891 -116 l 1,31,32
 860 -266 860 -266 713 -379.5 c 128,-1,33
 566 -493 566 -493 393 -493 c 0,34,35
 255 -493 255 -493 172.5 -412.5 c 128,-1,36
 90 -332 90 -332 90 -203 c 0,37,38
 90 -132 90 -132 115.5 -69 c 128,-1,39
 141 -6 141 -6 183 42 c 128,-1,40
 225 90 225 90 276 135 c 128,-1,41
 327 180 327 180 381.5 225.5 c 128,-1,42
 436 271 436 271 483.5 317.5 c 128,-1,43
 531 364 531 364 568.5 426 c 128,-1,44
 606 488 606 488 620 557 c 2,45,-1
 651 707 l 1,12,-1
EndSplineSet
EndChar

StartChar: grave
Encoding: 96 96 121
Width: 425
VWidth: 2982
Flags: W
HStem: 1229 294<477 508>
VStem: 396 148
LayerCount: 3
Fore
SplineSet
544 1229 m 1
 477 1229 l 1
 396 1523 l 1
 508 1523 l 1
 544 1229 l 1
EndSplineSet
Validated: 1
Layer: 2
SplineSet
544 1229 m 1,0,-1
 477 1229 l 1,1,-1
 396 1523 l 1,2,-1
 508 1523 l 1,3,-1
 544 1229 l 1,0,-1
EndSplineSet
EndChar

StartChar: acute
Encoding: 180 180 122
Width: 630
VWidth: 2982
Flags: W
HStem: 1194 357
VStem: 457 470
LayerCount: 3
Fore
SplineSet
759 1551 m 1
 927 1551 l 1
 564 1194 l 1
 457 1194 l 1
 759 1551 l 1
EndSplineSet
Validated: 1
Layer: 2
SplineSet
759 1551 m 1,0,-1
 927 1551 l 1,1,-1
 564 1194 l 1,2,-1
 457 1194 l 1,3,-1
 759 1551 l 1,0,-1
EndSplineSet
EndChar

StartChar: circumflex
Encoding: 710 710 123
Width: 690
VWidth: 2982
Flags: W
HStem: 1461 267
VStem: 383 548
DStem2: 383 1461 506 1461 0.744784 0.667306<91.6084 340.911> 745 1728 692 1627 0.571605 -0.820529<52.5784 256.236>
LayerCount: 3
Fore
SplineSet
681 1728 m 1
 745 1728 l 1
 931 1461 l 1
 810 1461 l 1
 692 1627 l 1
 506 1461 l 1
 383 1461 l 1
 681 1728 l 1
EndSplineSet
Validated: 1
Layer: 2
SplineSet
681 1728 m 1,0,-1
 745 1728 l 1,1,-1
 931 1461 l 1,2,-1
 810 1461 l 1,3,-1
 692 1627 l 1,4,-1
 506 1461 l 1,5,-1
 383 1461 l 1,6,-1
 681 1728 l 1,0,-1
EndSplineSet
EndChar

StartChar: tilde
Encoding: 732 732 124
Width: 648
VWidth: 2982
Flags: W
HStem: 1305 92<662.961 820.828> 1414 88<433.032 592.492>
VStem: 354 58<1323 1381.62> 839 56<1428.25 1489>
LayerCount: 3
Fore
SplineSet
839 1489 m 1
 895 1489 l 1
 889 1457 878 1421 867 1397 c 0
 824 1305 761 1305 737 1305 c 0
 681 1305 626 1343 598 1367 c 1
 557 1399 524 1414 502 1414 c 0
 477 1414 432 1399 412 1323 c 1
 354 1323 l 1
 359 1350 363 1372 378 1406 c 1
 416 1478 472 1502 519 1502 c 0
 581 1502 638 1459 662 1442 c 0
 703 1412 737 1397 756 1397 c 0
 777 1397 824 1417 839 1489 c 1
EndSplineSet
Validated: 1
Layer: 2
SplineSet
839 1489 m 1,0,-1
 895 1489 l 1,1,2
 885 1437 885 1437 867 1397 c 0,3,4
 824 1305 824 1305 737 1305 c 0,5,6
 670 1305 670 1305 598 1367 c 0,7,8
 538 1414 538 1414 502 1414 c 0,9,10
 477 1414 477 1414 451 1394 c 128,-1,11
 425 1374 425 1374 412 1323 c 1,12,-1
 354 1323 l 1,13,14
 363 1372 363 1372 378 1406 c 0,15,16
 429 1502 429 1502 519 1502 c 0,17,18
 577 1502 577 1502 662 1442 c 0,19,20
 724 1397 724 1397 756 1397 c 0,21,22
 778 1397 778 1397 803.5 1419 c 128,-1,23
 829 1441 829 1441 839 1489 c 1,0,-1
EndSplineSet
EndChar

StartChar: macron
Encoding: 175 175 125
Width: 856
VWidth: 2982
Flags: W
HStem: 1209 89<399 994>
VStem: 378 636
LayerCount: 3
Fore
SplineSet
1014 1298 m 1
 994 1209 l 1
 378 1209 l 1
 399 1298 l 1
 1014 1298 l 1
EndSplineSet
Validated: 1
Layer: 2
SplineSet
1014 1298 m 1,0,-1
 994 1209 l 1,1,-1
 378 1209 l 1,2,-1
 399 1298 l 1,3,-1
 1014 1298 l 1,0,-1
EndSplineSet
EndChar

StartChar: dotaccent
Encoding: 729 729 126
Width: 570
VWidth: 2982
Flags: W
HStem: 1238 168<500.625 633.275>
VStem: 481 173<1258.55 1385.61>
LayerCount: 3
Fore
SplineSet
481 1307 m 0
 481 1365 540 1406 585 1406 c 0
 624 1406 654 1377 654 1339 c 0
 654 1280 596 1238 551 1238 c 0
 510 1238 481 1269 481 1307 c 0
EndSplineSet
Validated: 1
Layer: 2
SplineSet
481 1307 m 0,0,1
 481 1348 481 1348 514.5 1377 c 128,-1,2
 548 1406 548 1406 585 1406 c 0,3,4
 614 1406 614 1406 634 1386.5 c 128,-1,5
 654 1367 654 1367 654 1339 c 0,6,7
 654 1297 654 1297 620.5 1267.5 c 128,-1,8
 587 1238 587 1238 551 1238 c 0,9,10
 521 1238 521 1238 501 1258 c 128,-1,11
 481 1278 481 1278 481 1307 c 0,0,1
EndSplineSet
EndChar

StartChar: dieresis
Encoding: 168 168 127
Width: 767
VWidth: 2982
Flags: W
HStem: 1209 168<415.755 546.823 774.033 905.823>
VStem: 393 173<1229.39 1352.75> 752 173<1229.39 1354.35>
LayerCount: 3
Fore
SplineSet
393 1276 m 0
 393 1323 446 1377 500 1377 c 0
 540 1377 566 1345 566 1307 c 0
 566 1249 508 1209 463 1209 c 0
 423 1209 393 1238 393 1276 c 0
752 1276 m 0
 752 1323 803 1377 857 1377 c 0
 897 1377 925 1345 925 1307 c 0
 925 1249 867 1209 822 1209 c 0
 781 1209 752 1238 752 1276 c 0
EndSplineSet
Validated: 1
Layer: 2
SplineSet
393 1276 m 0,0,1
 393 1312 393 1312 426.5 1344.5 c 128,-1,2
 460 1377 460 1377 500 1377 c 0,3,4
 529 1377 529 1377 547.5 1356.5 c 128,-1,5
 566 1336 566 1336 566 1307 c 0,6,7
 566 1266 566 1266 533 1237.5 c 128,-1,8
 500 1209 500 1209 463 1209 c 0,9,10
 433 1209 433 1209 413 1228 c 128,-1,11
 393 1247 393 1247 393 1276 c 0,0,1
752 1276 m 0,12,13
 752 1312 752 1312 784.5 1344.5 c 128,-1,14
 817 1377 817 1377 857 1377 c 0,15,16
 886 1377 886 1377 905.5 1356.5 c 128,-1,17
 925 1336 925 1336 925 1307 c 0,18,19
 925 1266 925 1266 892 1237.5 c 128,-1,20
 859 1209 859 1209 822 1209 c 0,21,22
 791 1209 791 1209 771.5 1228 c 128,-1,23
 752 1247 752 1247 752 1276 c 0,12,13
EndSplineSet
EndChar

StartChar: ring
Encoding: 730 730 128
Width: 570
VWidth: 2982
Flags: W
HStem: 1121 90<458.425 646.354> 1461 90<495.242 683.02>
VStem: 352 92<1227.44 1410.87> 698 92<1261.05 1445.91>
LayerCount: 3
Fore
SplineSet
352 1292 m 0
 352 1433 485 1551 615 1551 c 0
 720 1551 790 1480 790 1382 c 0
 790 1256 671 1121 526 1121 c 0
 421 1121 352 1196 352 1292 c 0
598 1461 m 0
 519 1461 444 1390 444 1309 c 0
 444 1254 483 1211 544 1211 c 0
 613 1211 698 1276 698 1361 c 0
 698 1419 658 1461 598 1461 c 0
EndSplineSet
Validated: 1
Layer: 2
SplineSet
352 1292 m 0,0,1
 352 1396 352 1396 433.5 1473.5 c 128,-1,2
 515 1551 515 1551 615 1551 c 0,3,4
 693 1551 693 1551 741.5 1503.5 c 128,-1,5
 790 1456 790 1456 790 1382 c 0,6,7
 790 1285 790 1285 711 1203 c 128,-1,8
 632 1121 632 1121 526 1121 c 0,9,10
 449 1121 449 1121 400.5 1170 c 128,-1,11
 352 1219 352 1219 352 1292 c 0,0,1
598 1461 m 0,12,13
 538 1461 538 1461 491 1415 c 128,-1,14
 444 1369 444 1369 444 1309 c 0,15,16
 444 1267 444 1267 471.5 1239 c 128,-1,17
 499 1211 499 1211 544 1211 c 0,18,19
 599 1211 599 1211 648.5 1255.5 c 128,-1,20
 698 1300 698 1300 698 1361 c 0,21,22
 698 1405 698 1405 670.5 1433 c 128,-1,23
 643 1461 643 1461 598 1461 c 0,12,13
EndSplineSet
EndChar

StartChar: cedilla
Encoding: 184 184 129
Width: 624
VWidth: 2982
Flags: W
HStem: -401 89<104.24 330.13> -20 20G<300.146 401>
VStem: 342 94<-295.44 -185.866>
LayerCount: 3
Fore
SplineSet
436 -203 m 0
 436 -305 349 -401 213 -401 c 0
 164 -401 111 -385 69 -352 c 1
 132 -278 l 1
 164 -302 199 -312 233 -312 c 0
 307 -312 342 -265 342 -235 c 0
 342 -199 297 -181 250 -173 c 1
 186 -164 l 1
 316 0 l 1
 401 0 l 1
 327 -96 l 1
 419 -111 436 -164 436 -203 c 0
EndSplineSet
Validated: 1
Layer: 2
SplineSet
436 -203 m 0,0,1
 436 -283 436 -283 373.5 -342 c 128,-1,2
 311 -401 311 -401 213 -401 c 0,3,4
 131 -401 131 -401 69 -352 c 1,5,-1
 132 -278 l 1,6,7
 177 -312 177 -312 233 -312 c 0,8,9
 284 -312 284 -312 313 -287 c 128,-1,10
 342 -262 342 -262 342 -235 c 0,11,12
 342 -189 342 -189 250 -173 c 2,13,-1
 186 -164 l 1,14,-1
 316 0 l 1,15,-1
 401 0 l 1,16,-1
 327 -96 l 1,17,18
 436 -114 436 -114 436 -203 c 0,0,1
EndSplineSet
EndChar

StartChar: hungarumlaut
Encoding: 733 733 130
Width: 1017
VWidth: 2982
Flags: W
HStem: 1194 357
LayerCount: 3
Fore
SplineSet
759 1551 m 1
 927 1551 l 1
 564 1194 l 1
 457 1194 l 1
 759 1551 l 1
1149 1551 m 1
 1314 1551 l 1
 951 1194 l 1
 844 1194 l 1
 1149 1551 l 1
EndSplineSet
Validated: 1
Layer: 2
SplineSet
759 1551 m 1,0,-1
 927 1551 l 1,1,-1
 564 1194 l 1,2,-1
 457 1194 l 1,3,-1
 759 1551 l 1,0,-1
1149 1551 m 1,4,-1
 1314 1551 l 1,5,-1
 951 1194 l 1,6,-1
 844 1194 l 1,7,-1
 1149 1551 l 1,4,-1
EndSplineSet
EndChar

StartChar: ogonek
Encoding: 731 731 131
Width: 603
VWidth: 2982
Flags: W
HStem: -391 75<198.112 361.911> -20 20G<229.5 359>
VStem: 90 96<-306.432 -137.273>
LayerCount: 3
Fore
SplineSet
359 0 m 1
 226 -111 186 -192 186 -242 c 0
 186 -286 226 -316 275 -316 c 0
 299 -316 329 -307 356 -289 c 1
 389 -342 l 1
 336 -376 282 -391 233 -391 c 0
 150 -391 90 -340 90 -262 c 0
 90 -156 197 -56 262 0 c 1
 359 0 l 1
EndSplineSet
Validated: 1
Layer: 2
SplineSet
359 0 m 1,0,1
 186 -144 186 -144 186 -242 c 0,2,3
 186 -274 186 -274 212 -295 c 128,-1,4
 238 -316 238 -316 275 -316 c 0,5,6
 316 -316 316 -316 356 -289 c 1,7,-1
 389 -342 l 1,8,9
 313 -391 313 -391 233 -391 c 0,10,11
 170 -391 170 -391 130 -355.5 c 128,-1,12
 90 -320 90 -320 90 -262 c 0,13,14
 90 -148 90 -148 262 0 c 1,15,-1
 359 0 l 1,0,1
EndSplineSet
EndChar

StartChar: caron
Encoding: 711 711 132
Width: 690
VWidth: 2982
Flags: W
HStem: 1461 267
VStem: 438 549
DStem2: 562 1728 438 1728 0.571605 -0.820529<0 200.624> 679 1565 690 1461 0.743668 0.66855<0 248.783>
LayerCount: 3
Fore
SplineSet
690 1461 m 1
 624 1461 l 1
 438 1728 l 1
 562 1728 l 1
 679 1565 l 1
 867 1728 l 1
 987 1728 l 1
 690 1461 l 1
EndSplineSet
Validated: 1
Layer: 2
SplineSet
690 1461 m 1,0,-1
 624 1461 l 1,1,-1
 438 1728 l 1,2,-1
 562 1728 l 1,3,-1
 679 1565 l 1,4,-1
 867 1728 l 1,5,-1
 987 1728 l 1,6,-1
 690 1461 l 1,0,-1
EndSplineSet
EndChar

StartChar: emdash
Encoding: 8212 8212 133
Width: 1125
VWidth: 2982
Flags: W
HStem: 446 125<121 1222>
LayerCount: 3
Fore
SplineSet
1249 571 m 1
 1222 446 l 1
 94 446 l 1
 121 571 l 1
 1249 571 l 1
EndSplineSet
Validated: 1
Layer: 2
SplineSet
1249 571 m 1,0,-1
 1222 446 l 1,1,-1
 94 446 l 1,2,-1
 121 571 l 1,3,-1
 1249 571 l 1,0,-1
EndSplineSet
EndChar

StartChar: AE
Encoding: 198 198 134
Width: 1542
VWidth: 2982
Flags: W
HStem: 0 90<1066 1506> 463 90<479 985> 822 90<1088 1598> 1403 90<1012 1014 1104 1782>
VStem: 974 92<90 463> 989 99<553 822 912 1040.42> 1014 90<963.064 1403>
DStem2: 36 0 132 0 0.531172 0.847264<50.9925 596.784 703.846 1707.14>
LayerCount: 3
Fore
SplineSet
1617 912 m 1xf4
 1598 822 l 1
 1088 822 l 1xf4
 1066 90 l 1
 1527 90 l 1
 1506 0 l 1
 974 0 l 1xf8
 985 463 l 1
 421 463 l 1
 132 0 l 1
 36 0 l 1
 972 1493 l 1
 1800 1493 l 1
 1782 1403 l 1
 1104 1403 l 1xf2
 1088 912 l 1
 1617 912 l 1xf4
479 553 m 1
 989 553 l 1xf4
 1014 1403 l 1xf2
 1012 1403 l 1
 479 553 l 1
EndSplineSet
Validated: 1
Layer: 2
SplineSet
1617 912 m 1,0,-1
 1598 822 l 1,1,-1
 1088 822 l 1,2,-1
 1066 90 l 1,3,-1
 1527 90 l 1,4,-1
 1506 0 l 1,5,-1
 974 0 l 1,6,-1
 985 463 l 1,7,-1
 421 463 l 1,8,-1
 132 0 l 1,9,-1
 36 0 l 1,10,-1
 972 1493 l 1,11,-1
 1800 1493 l 1,12,-1
 1782 1403 l 1,13,-1
 1104 1403 l 1,14,-1
 1088 912 l 1,15,-1
 1617 912 l 1,0,-1
479 553 m 1,16,-1
 989 553 l 1,17,-1
 1014 1403 l 1,18,-1
 1012 1403 l 1,19,-1
 479 553 l 1,16,-1
EndSplineSet
EndChar

StartChar: ordfeminine
Encoding: 170 170 135
Width: 872
VWidth: 2982
Flags: W
HStem: 620 78<416.768 658.879> 1032 62<500.597 852.195> 1290 73<559.996 800.766>
VStem: 299 79<736.81 937.363> 803 86<638 794.284> 873 82<1057.74 1225.05>
DStem2: 776.407 620 859.427 620 0.207912 0.978148<211.208 391.839>
LayerCount: 3
Fore
SplineSet
656 1032 m 0xf0
 432 1032 378 906 378 824 c 0
 378 741 446 698 532 698 c 0
 683 698 818 853 844 938 c 1
 857 1000 l 1
 803 1019 730 1032 656 1032 c 0xf0
299 806 m 0
 299 922 378 1094 660 1094 c 0
 737 1094 812 1081 869 1057 c 1
 871 1072 873 1088 873 1102 c 0
 873 1220 795 1290 681 1290 c 0
 602 1290 521 1243 459 1164 c 1
 406 1200 l 1
 481 1296 591 1363 703 1363 c 0
 850 1363 955 1271 955 1117 c 0xf4
 955 1090 953 1061 947 1032 c 2
 902 822 l 1
 900 806 889 732 889 665 c 2
 889 638 l 1
 803 620 l 1
 803 645 l 2xf8
 803 685 808 739 818 797 c 1
 748 707 640 620 517 620 c 0
 387 620 299 692 299 806 c 0
EndSplineSet
Validated: 1
Layer: 2
SplineSet
656 1032 m 0,0,1
 577 1032 577 1032 519 1011.5 c 128,-1,2
 461 991 461 991 432 958 c 128,-1,3
 403 925 403 925 390.5 892 c 128,-1,4
 378 859 378 859 378 824 c 0,5,6
 378 764 378 764 421.5 731 c 128,-1,7
 465 698 465 698 532 698 c 0,8,9
 635 698 635 698 728 780 c 128,-1,10
 821 862 821 862 844 938 c 1,11,-1
 857 1000 l 1,12,13
 766 1032 766 1032 656 1032 c 0,0,1
299 806 m 0,14,15
 299 843 299 843 309 880.5 c 128,-1,16
 319 918 319 918 345 957.5 c 128,-1,17
 371 997 371 997 410.5 1026.5 c 128,-1,18
 450 1056 450 1056 514.5 1075 c 128,-1,19
 579 1094 579 1094 660 1094 c 0,20,21
 781 1094 781 1094 869 1057 c 1,22,23
 873 1087 873 1087 873 1102 c 0,24,25
 873 1189 873 1189 820.5 1239.5 c 128,-1,26
 768 1290 768 1290 681 1290 c 0,27,28
 622 1290 622 1290 564 1257 c 128,-1,29
 506 1224 506 1224 459 1164 c 1,30,-1
 406 1200 l 1,31,32
 464 1274 464 1274 542.5 1318.5 c 128,-1,33
 621 1363 621 1363 703 1363 c 0,34,35
 815 1363 815 1363 885 1297 c 128,-1,36
 955 1231 955 1231 955 1117 c 0,37,38
 955 1071 955 1071 947 1032 c 2,39,-1
 902 822 l 1,40,41
 889 718 889 718 889 665 c 2,42,-1
 889 638 l 1,43,-1
 803 620 l 1,44,-1
 803 645 l 2,45,46
 803 710 803 710 818 797 c 1,47,48
 759 721 759 721 681 670.5 c 128,-1,49
 603 620 603 620 517 620 c 0,50,51
 419 620 419 620 359 670.5 c 128,-1,52
 299 721 299 721 299 806 c 0,14,15
EndSplineSet
EndChar

StartChar: Lslash
Encoding: 321 321 136
Width: 1080
VWidth: 2982
Flags: W
HStem: 0 90<250 1012> 994 20G<768.16 790.966> 1473 20G<456.779 551>
DStem2: 90 485 62 367 0.802032 0.597282<0 142.063 367.592 791.069> 143 0 230.87 0 0.207912 0.978148<110.28 519.146 741.449 1526.49>
LayerCount: 3
Fore
SplineSet
1012 0 m 1
 143 0 l 1
 250 508 l 1
 62 367 l 1
 90 485 l 1
 278 626 l 1
 461 1493 l 1
 551 1493 l 1
 383 707 l 1
 795 1014 l 1
 771 895 l 1
 359 589 l 1
 250 90 l 1
 1030 90 l 1
 1012 0 l 1
EndSplineSet
Validated: 1
Layer: 2
SplineSet
1012 0 m 1,0,-1
 143 0 l 1,1,-1
 250 508 l 1,2,-1
 62 367 l 1,3,-1
 90 485 l 1,4,-1
 278 626 l 1,5,-1
 461 1493 l 1,6,-1
 551 1493 l 1,7,-1
 383 707 l 1,8,-1
 795 1014 l 1,9,-1
 771 895 l 1,10,-1
 359 589 l 1,11,-1
 250 90 l 1,12,-1
 1030 90 l 1,13,-1
 1012 0 l 1,0,-1
EndSplineSet
EndChar

StartChar: Oslash
Encoding: 216 216 137
Width: 1756
VWidth: 2982
Flags: W
HStem: -15 89<670.407 1132.62> 1417 89<942.455 1411.35>
VStem: 265 91<387.408 841.716> 1724 87<658.403 1102.97>
DStem2: 291 -64 356 -114 0.655944 0.75481<4.89588 260.802 364.351 1841.47 1940.71 2212.21>
LayerCount: 3
Fore
SplineSet
1811 906 m 0
 1811 432 1356 -15 875 -15 c 0
 741 -15 622 20 526 83 c 1
 356 -114 l 1
 291 -64 l 1
 461 132 l 1
 338 239 265 399 265 581 c 0
 265 1061 718 1506 1200 1506 c 0
 1343 1506 1466 1468 1567 1399 c 1
 1743 1605 l 1
 1809 1558 l 1
 1627 1350 l 1
 1741 1241 1811 1085 1811 906 c 0
895 74 m 0
 1309 74 1724 457 1724 884 c 0
 1724 1041 1664 1179 1563 1273 c 1
 591 158 l 1
 675 105 779 74 895 74 c 0
1182 1417 m 0
 763 1417 356 1030 356 607 c 0
 356 444 421 302 528 205 c 1
 1500 1325 l 1
 1412 1386 1305 1417 1182 1417 c 0
EndSplineSet
Validated: 1
Layer: 2
SplineSet
1811 906 m 0,0,1
 1811 732 1811 732 1731.5 562.5 c 128,-1,2
 1652 393 1652 393 1524 267 c 128,-1,3
 1396 141 1396 141 1223.5 63 c 128,-1,4
 1051 -15 1051 -15 875 -15 c 0,5,6
 675 -15 675 -15 526 83 c 1,7,-1
 356 -114 l 1,8,-1
 291 -64 l 1,9,-1
 461 132 l 1,10,11
 368 213 368 213 316.5 329.5 c 128,-1,12
 265 446 265 446 265 581 c 0,13,14
 265 699 265 699 301 816 c 128,-1,15
 337 933 337 933 400 1034.5 c 128,-1,16
 463 1136 463 1136 552 1223.5 c 128,-1,17
 641 1311 641 1311 743 1373 c 128,-1,18
 845 1435 845 1435 963.5 1470.5 c 128,-1,19
 1082 1506 1082 1506 1200 1506 c 0,20,21
 1410 1506 1410 1506 1567 1399 c 1,22,-1
 1743 1605 l 1,23,-1
 1809 1558 l 1,24,-1
 1627 1350 l 1,25,26
 1714 1267 1714 1267 1762.5 1152.5 c 128,-1,27
 1811 1038 1811 1038 1811 906 c 0,0,1
895 74 m 0,28,29
 1047 74 1047 74 1198.5 141 c 128,-1,30
 1350 208 1350 208 1465 318 c 128,-1,31
 1580 428 1580 428 1652 578 c 128,-1,32
 1724 728 1724 728 1724 884 c 0,33,34
 1724 1000 1724 1000 1682 1101 c 128,-1,35
 1640 1202 1640 1202 1563 1273 c 1,36,-1
 591 158 l 1,37,38
 724 74 724 74 895 74 c 0,28,29
1182 1417 m 0,39,40
 1059 1417 1059 1417 936 1374 c 128,-1,41
 813 1331 813 1331 710 1253.5 c 128,-1,42
 607 1176 607 1176 526.5 1075.5 c 128,-1,43
 446 975 446 975 401 853 c 128,-1,44
 356 731 356 731 356 607 c 0,45,46
 356 487 356 487 401 383 c 128,-1,47
 446 279 446 279 528 205 c 1,48,-1
 1500 1325 l 1,49,50
 1367 1417 1367 1417 1182 1417 c 0,39,40
EndSplineSet
EndChar

StartChar: OE
Encoding: 338 338 138
Width: 1920
VWidth: 2982
Flags: W
HStem: -15 89<673.47 1014.24> 0 90<1102 1862> 822 90<1273 1976> 1417 89<948.697 1292.31 1379 2158>
VStem: 265 91<384.582 840.891>
DStem2: 991.169 -15 1079.68 -15 0.207912 0.978148<125.748 874.187 965.339 1454.87>
LayerCount: 3
Fore
SplineSet
265 585 m 0xb8
 265 1061 718 1506 1200 1506 c 0
 1251 1506 1301 1502 1348 1493 c 1
 2176 1493 l 1
 2158 1403 l 1
 1379 1403 l 1
 1273 912 l 1
 1997 912 l 1
 1976 822 l 1
 1258 822 l 1
 1102 90 l 1
 1880 90 l 1
 1862 0 l 1
 1030 0 l 1x78
 980 -9 929 -15 878 -15 c 0
 513 -15 265 242 265 585 c 0xb8
1182 1417 m 0
 759 1417 356 1027 356 602 c 0
 356 302 575 74 895 74 c 0xb8
 936 74 974 79 1012 83 c 1
 1294 1408 l 1
 1258 1414 1220 1417 1182 1417 c 0
EndSplineSet
Validated: 1
Layer: 2
SplineSet
265 585 m 0,0,1
 265 725 265 725 315.5 863 c 128,-1,2
 366 1001 366 1001 456 1115.5 c 128,-1,3
 546 1230 546 1230 662 1318.5 c 128,-1,4
 778 1407 778 1407 918 1456.5 c 128,-1,5
 1058 1506 1058 1506 1200 1506 c 0,6,7
 1280 1506 1280 1506 1348 1493 c 1,8,-1
 2176 1493 l 1,9,-1
 2158 1403 l 1,10,-1
 1379 1403 l 1,11,-1
 1273 912 l 1,12,-1
 1997 912 l 1,13,-1
 1976 822 l 1,14,-1
 1258 822 l 1,15,-1
 1102 90 l 1,16,-1
 1880 90 l 1,17,-1
 1862 0 l 1,18,-1
 1030 0 l 1,19,20
 947 -15 947 -15 878 -15 c 0,21,22
 699 -15 699 -15 558.5 63.5 c 128,-1,23
 418 142 418 142 341.5 278.5 c 128,-1,24
 265 415 265 415 265 585 c 0,0,1
1182 1417 m 0,25,26
 1058 1417 1058 1417 934.5 1373.5 c 128,-1,27
 811 1330 811 1330 708 1252 c 128,-1,28
 605 1174 605 1174 525.5 1073 c 128,-1,29
 446 972 446 972 401 849.5 c 128,-1,30
 356 727 356 727 356 602 c 0,31,32
 356 453 356 453 423.5 333 c 128,-1,33
 491 213 491 213 614.5 143.5 c 128,-1,34
 738 74 738 74 895 74 c 0,35,36
 927 74 927 74 1012 83 c 1,37,-1
 1294 1408 l 1,38,39
 1240 1417 1240 1417 1182 1417 c 0,25,26
EndSplineSet
EndChar

StartChar: ordmasculine
Encoding: 186 186 139
Width: 923
VWidth: 2982
Flags: W
HStem: 618 87<480.932 755.221> 1211 87<574.595 846.139>
VStem: 318 92<773.833 1053.45> 922 92<867.11 1140.37>
LayerCount: 3
Fore
SplineSet
318 886 m 0
 318 1108 530 1298 739 1298 c 0
 902 1298 1014 1182 1014 1027 c 0
 1014 824 818 618 593 618 c 0
 430 618 318 732 318 886 c 0
720 1211 m 0
 566 1211 410 1068 410 902 c 0
 410 788 493 705 613 705 c 0
 761 705 922 844 922 1010 c 0
 922 1126 839 1211 720 1211 c 0
EndSplineSet
Validated: 1
Layer: 2
SplineSet
318 886 m 0,0,1
 318 994 318 994 379.5 1090 c 128,-1,2
 441 1186 441 1186 538.5 1242 c 128,-1,3
 636 1298 636 1298 739 1298 c 0,4,5
 860 1298 860 1298 937 1221 c 128,-1,6
 1014 1144 1014 1144 1014 1027 c 0,7,8
 1014 952 1014 952 979.5 877.5 c 128,-1,9
 945 803 945 803 888.5 746 c 128,-1,10
 832 689 832 689 753.5 653.5 c 128,-1,11
 675 618 675 618 593 618 c 0,12,13
 472 618 472 618 395 694 c 128,-1,14
 318 770 318 770 318 886 c 0,0,1
720 1211 m 0,15,16
 602 1211 602 1211 506 1117.5 c 128,-1,17
 410 1024 410 1024 410 902 c 0,18,19
 410 816 410 816 466.5 760.5 c 128,-1,20
 523 705 523 705 613 705 c 0,21,22
 727 705 727 705 824.5 797 c 128,-1,23
 922 889 922 889 922 1010 c 0,24,25
 922 1097 922 1097 865.5 1154 c 128,-1,26
 809 1211 809 1211 720 1211 c 0,15,16
EndSplineSet
EndChar

StartChar: ae
Encoding: 230 230 140
Width: 1859
VWidth: 2982
Flags: W
HStem: -15 94<286.639 617.044 1126.64 1459.58> 508 85<506.661 914 1030 1768> 942 90<535.886 841.528 1305.24 1624.09>
VStem: 150 92<124.328 345.715> 900 89<297.096 508> 1768 90<594.085 786.578>
LayerCount: 3
Fore
SplineSet
1847 508 m 1
 1000 508 l 1
 994 472 989 438 989 406 c 0
 989 215 1110 79 1285 79 c 0
 1417 79 1549 154 1643 278 c 1
 1713 233 l 1
 1600 87 1433 -15 1265 -15 c 0
 1085 -15 961 96 914 258 c 1
 788 109 602 -17 416 -17 c 0
 224 -17 150 96 150 205 c 0
 150 226 152 244 156 262 c 0
 226 589 685 593 931 593 c 1
 938 624 940 654 940 683 c 0
 940 855 828 942 696 942 c 0
 604 942 497 895 408 797 c 1
 346 844 l 1
 461 974 596 1032 714 1032 c 0
 867 1032 998 938 1023 759 c 1
 1139 920 1314 1030 1491 1030 c 0
 1713 1030 1858 855 1858 628 c 0
 1858 604 1858 577 1854 553 c 2
 1847 508 l 1
436 72 m 0
 591 72 784 195 900 342 c 1
 900 369 l 2
 900 412 904 457 914 508 c 1
 696 504 297 502 246 262 c 0
 244 250 242 239 242 228 c 0
 242 152 295 72 436 72 c 0
1030 593 m 1
 1768 593 l 1
 1768 609 l 2
 1768 801 1645 940 1471 940 c 0
 1296 940 1108 795 1030 593 c 1
EndSplineSet
Validated: 1
Layer: 2
SplineSet
1847 508 m 1,0,-1
 1000 508 l 1,1,2
 989 442 989 442 989 406 c 0,3,4
 989 262 989 262 1071.5 170.5 c 128,-1,5
 1154 79 1154 79 1285 79 c 0,6,7
 1383 79 1383 79 1477.5 131.5 c 128,-1,8
 1572 184 1572 184 1643 278 c 1,9,-1
 1713 233 l 1,10,11
 1626 120 1626 120 1507 52.5 c 128,-1,12
 1388 -15 1388 -15 1265 -15 c 0,13,14
 1133 -15 1133 -15 1041.5 59 c 128,-1,15
 950 133 950 133 914 258 c 1,16,17
 812 138 812 138 680 60.5 c 128,-1,18
 548 -17 548 -17 416 -17 c 0,19,20
 282 -17 282 -17 216 48 c 128,-1,21
 150 113 150 113 150 205 c 0,22,23
 150 235 150 235 156 262 c 0,24,25
 167 315 167 315 193.5 359.5 c 128,-1,26
 220 404 220 404 253 436 c 128,-1,27
 286 468 286 468 334.5 493 c 128,-1,28
 383 518 383 518 426.5 534.5 c 128,-1,29
 470 551 470 551 530.5 562.5 c 128,-1,30
 591 574 591 574 635.5 580 c 128,-1,31
 680 586 680 586 743 589 c 128,-1,32
 806 592 806 592 841.5 592.5 c 128,-1,33
 877 593 877 593 931 593 c 1,34,35
 940 633 940 633 940 683 c 0,36,37
 940 807 940 807 870.5 874.5 c 128,-1,38
 801 942 801 942 696 942 c 0,39,40
 624 942 624 942 548.5 905 c 128,-1,41
 473 868 473 868 408 797 c 1,42,-1
 346 844 l 1,43,44
 429 938 429 938 525 985 c 128,-1,45
 621 1032 621 1032 714 1032 c 0,46,47
 833 1032 833 1032 919 960.5 c 128,-1,48
 1005 889 1005 889 1023 759 c 1,49,50
 1112 883 1112 883 1236.5 956.5 c 128,-1,51
 1361 1030 1361 1030 1491 1030 c 0,52,53
 1655 1030 1655 1030 1756.5 915.5 c 128,-1,54
 1858 801 1858 801 1858 628 c 0,55,56
 1858 577 1858 577 1854 553 c 2,57,-1
 1847 508 l 1,0,-1
436 72 m 0,58,59
 549 72 549 72 679.5 150 c 128,-1,60
 810 228 810 228 900 342 c 1,61,-1
 900 369 l 2,62,63
 900 437 900 437 914 508 c 1,64,65
 673.455950215 503.58634771 673.455950215 503.58634771 556.227026092 481.624199806 c 0,66,67
 281.742752703 430.20118919 281.742752703 430.20118919 246 262 c 0,68,69
 242 238 242 238 242 228 c 0,70,71
 242 164 242 164 290 118 c 128,-1,72
 338 72 338 72 436 72 c 0,58,59
1030 593 m 1,73,-1
 1768 593 l 1,74,-1
 1768 609 l 2,75,76
 1768 753 1768 753 1684.5 846.5 c 128,-1,77
 1601 940 1601 940 1471 940 c 0,78,79
 1339 940 1339 940 1213.5 842 c 128,-1,80
 1088 744 1088 744 1030 593 c 1,73,-1
EndSplineSet
EndChar

StartChar: lslash
Encoding: 322 322 141
Width: 373
VWidth: 2982
Flags: W
HStem: 0 21G<143 237.278> 1473 20G<456.779 551>
VStem: 116 435
DStem2: 141 526 250 508 0.798727 0.601694<0 76.2308 302.198 379.83> 143 0 233 0 0.207912 0.978148<18.7121 519.146 741.449 1526.49>
LayerCount: 3
Fore
SplineSet
233 0 m 1
 143 0 l 1
 250 508 l 1
 116 406 l 1
 141 526 l 1
 278 626 l 1
 461 1493 l 1
 551 1493 l 1
 383 707 l 1
 517 808 l 1
 493 690 l 1
 359 589 l 1
 233 0 l 1
EndSplineSet
Validated: 1
Layer: 2
SplineSet
233 0 m 1,0,-1
 143 0 l 1,1,-1
 250 508 l 1,2,-1
 116 406 l 1,3,-1
 141 526 l 1,4,-1
 278 626 l 1,5,-1
 461 1493 l 1,6,-1
 551 1493 l 1,7,-1
 383 707 l 1,8,-1
 517 808 l 1,9,-1
 493 690 l 1,10,-1
 359 589 l 1,11,-1
 233 0 l 1,0,-1
EndSplineSet
EndChar

StartChar: oslash
Encoding: 248 248 142
Width: 1284
VWidth: 2982
Flags: W
HStem: -15 87<514.79 847.669> 938 92<645.092 1001.16>
VStem: 220 87<242.18 601.048> 1194 89<408.729 768.186>
DStem2: 286 -69 359 -109 0.592969 0.805225<11.0777 163.003 269.077 1207.03 1312.08 1484.06>
LayerCount: 3
Fore
SplineSet
220 396 m 0
 220 718 521 1030 859 1030 c 0
 936 1030 1003 1014 1063 985 c 1
 1166 1126 l 1
 1243 1081 l 1
 1137 938 l 1
 1229 865 1283 750 1283 618 c 0
 1283 299 983 -15 643 -15 c 0
 573 -15 510 -2 455 20 c 1
 359 -109 l 1
 286 -69 l 1
 383 62 l 1
 280 137 220 255 220 396 c 0
660 72 m 0
 918 72 1194 309 1194 596 c 0
 1194 703 1151 795 1077 857 c 1
 513 98 l 1
 557 81 607 72 660 72 c 0
842 938 m 0
 573 938 307 687 307 414 c 0
 307 297 356 199 440 137 c 1
 1003 902 l 1
 955 925 900 938 842 938 c 0
EndSplineSet
Validated: 1
Layer: 2
SplineSet
220 396 m 0,0,1
 220 555 220 555 308.5 701.5 c 128,-1,2
 397 848 397 848 545.5 939 c 128,-1,3
 694 1030 694 1030 859 1030 c 0,4,5
 970 1030 970 1030 1063 985 c 1,6,-1
 1166 1126 l 1,7,-1
 1243 1081 l 1,8,-1
 1137 938 l 1,9,10
 1206 883 1206 883 1244.5 799.5 c 128,-1,11
 1283 716 1283 716 1283 618 c 0,12,13
 1283 500 1283 500 1230.5 384.5 c 128,-1,14
 1178 269 1178 269 1091.5 181.5 c 128,-1,15
 1005 94 1005 94 886 39.5 c 128,-1,16
 767 -15 767 -15 643 -15 c 0,17,18
 542 -15 542 -15 455 20 c 1,19,-1
 359 -109 l 1,20,-1
 286 -69 l 1,21,-1
 383 62 l 1,22,23
 305 119 305 119 262.5 205 c 128,-1,24
 220 291 220 291 220 396 c 0,0,1
660 72 m 0,25,26
 756 72 756 72 852.5 114 c 128,-1,27
 949 156 949 156 1024 225.5 c 128,-1,28
 1099 295 1099 295 1146.5 393.5 c 128,-1,29
 1194 492 1194 492 1194 596 c 0,30,31
 1194 759 1194 759 1077 857 c 1,32,-1
 513 98 l 1,33,34
 580 72 580 72 660 72 c 0,25,26
842 938 m 0,35,36
 710 938 710 938 585.5 864.5 c 128,-1,37
 461 791 461 791 384 669 c 128,-1,38
 307 547 307 547 307 414 c 0,39,40
 307 327 307 327 341.5 255.5 c 128,-1,41
 376 184 376 184 440 137 c 1,42,-1
 1003 902 l 1,43,44
 928 938 928 938 842 938 c 0,35,36
EndSplineSet
EndChar

StartChar: oe
Encoding: 339 339 143
Width: 2125
VWidth: 2982
Flags: W
HStem: -15 89<483.606 853.512 1411.68 1721.22> 504 89<1298 2037> 940 90<649.395 1024.04 1566.61 1898.98>
VStem: 220 92<242.125 605.092> 1196 64<433.336 504> 2037 88<594.085 786.578>
LayerCount: 3
Fore
SplineSet
844 940 m 0
 581 940 312 696 312 416 c 0
 312 222 453 74 660 74 c 0
 927 74 1196 320 1196 596 c 0
 1196 792 1053 940 844 940 c 0
220 396 m 0
 220 726 530 1030 859 1030 c 0
 1070 1030 1224 904 1271 726 c 1
 1382 904 1567 1030 1755 1030 c 0
 1978 1030 2125 855 2125 628 c 0
 2125 604 2125 577 2119 553 c 1
 2113 504 l 1
 1271 504 l 1
 1265 468 1260 434 1260 403 c 0
 1260 213 1384 79 1555 79 c 0
 1688 79 1820 154 1916 278 c 1
 1984 233 l 1
 1871 87 1704 -15 1538 -15 c 0
 1345 -15 1211 109 1177 289 c 1
 1057 109 848 -15 638 -15 c 0
 389 -15 220 158 220 396 c 0
1298 593 m 1
 2037 593 l 1
 2037 609 l 2
 2037 801 1916 942 1741 942 c 0
 1565 942 1377 795 1298 593 c 1
EndSplineSet
Validated: 1
Layer: 2
SplineSet
844 940 m 0,0,1
 714 940 714 940 591 868.5 c 128,-1,2
 468 797 468 797 390 674.5 c 128,-1,3
 312 552 312 552 312 416 c 0,4,5
 312 269 312 269 409 171.5 c 128,-1,6
 506 74 506 74 660 74 c 0,7,8
 792 74 792 74 916 146 c 128,-1,9
 1040 218 1040 218 1118 340 c 128,-1,10
 1196 462 1196 462 1196 596 c 0,11,12
 1196 744 1196 744 1097.5 842 c 128,-1,13
 999 940 999 940 844 940 c 0,0,1
220 396 m 0,14,15
 220 557 220 557 310.5 704.5 c 128,-1,16
 401 852 401 852 549.5 941 c 128,-1,17
 698 1030 698 1030 859 1030 c 0,18,19
 1014 1030 1014 1030 1124.5 946 c 128,-1,20
 1235 862 1235 862 1271 726 c 1,21,22
 1356 862 1356 862 1486.5 946 c 128,-1,23
 1617 1030 1617 1030 1755 1030 c 0,24,25
 1920 1030 1920 1030 2022.5 915.5 c 128,-1,26
 2125 801 2125 801 2125 628 c 0,27,28
 2125 577 2125 577 2119 553 c 2,29,-1
 2113 504 l 1,30,-1
 1271 504 l 1,31,32
 1260 438 1260 438 1260 403 c 0,33,34
 1260 261 1260 261 1343 170 c 128,-1,35
 1426 79 1426 79 1555 79 c 0,36,37
 1654 79 1654 79 1748.5 131.5 c 128,-1,38
 1843 184 1843 184 1916 278 c 1,39,-1
 1984 233 l 1,40,41
 1897 121 1897 121 1778.5 53 c 128,-1,42
 1660 -15 1660 -15 1538 -15 c 0,43,44
 1396 -15 1396 -15 1299.5 68.5 c 128,-1,45
 1203 152 1203 152 1177 289 c 1,46,47
 1086 152 1086 152 940 68.5 c 128,-1,48
 794 -15 794 -15 638 -15 c 0,49,50
 452 -15 452 -15 336 100.5 c 128,-1,51
 220 216 220 216 220 396 c 0,14,15
1298 593 m 1,52,-1
 2037 593 l 1,53,-1
 2037 609 l 2,54,55
 2037 754 2037 754 1954 848 c 128,-1,56
 1871 942 1871 942 1741 942 c 0,57,58
 1609 942 1609 942 1483 843 c 128,-1,59
 1357 744 1357 744 1298 593 c 1,52,-1
EndSplineSet
EndChar

StartChar: germandbls
Encoding: 223 223 144
Width: 1132
VWidth: 2982
Flags: W
HStem: -17 71<483.173 768.502> 0 21G<168 262.22> 1578 88<734.558 1019.29>
VStem: 759 94<743.523 926.018> 1003 94<263.354 529.067> 1106 94<1204.02 1494.46>
DStem2: 164.387 -17 254.387 -17 0.207912 0.978148<36.0918 1476.97>
LayerCount: 3
Fore
SplineSet
759 824 m 0xbc
 759 1047 1106 1079 1106 1356 c 0
 1106 1497 1003 1578 882 1578 c 0
 739 1578 568 1461 504 1166 c 1
 258 0 l 1
 168 0 l 1x7c
 414 1164 l 2
 487 1506 712 1666 906 1666 c 0
 1066 1666 1200 1558 1200 1372 c 0
 1200 1045 853 989 853 839 c 0
 853 712 1097 628 1097 425 c 0
 1097 246 920 -17 628 -17 c 0
 528 -17 430 17 361 92 c 1
 427 132 l 1
 479 79 549 54 622 54 c 0
 850 54 1003 269 1003 410 c 0
 1003 585 759 651 759 824 c 0xbc
EndSplineSet
Validated: 1
Layer: 2
SplineSet
759 824 m 0,0,1
 759 869 759 869 778 908.5 c 128,-1,2
 797 948 797 948 827.5 979 c 128,-1,3
 858 1010 858 1010 895 1039.5 c 128,-1,4
 932 1069 932 1069 969.5 1101 c 128,-1,5
 1007 1133 1007 1133 1037.5 1168 c 128,-1,6
 1068 1203 1068 1203 1087 1251.5 c 128,-1,7
 1106 1300 1106 1300 1106 1356 c 0,8,9
 1106 1458 1106 1458 1041.5 1518 c 128,-1,10
 977 1578 977 1578 882 1578 c 0,11,12
 826 1578 826 1578 771 1554.5 c 128,-1,13
 716 1531 716 1531 664 1483.5 c 128,-1,14
 612 1436 612 1436 569.5 1354 c 128,-1,15
 527 1272 527 1272 504 1166 c 2,16,-1
 258 0 l 1,17,-1
 168 0 l 1,18,-1
 414 1164 l 2,19,20
 440 1288 440 1288 493.5 1386 c 128,-1,21
 547 1484 547 1484 615 1544 c 128,-1,22
 683 1604 683 1604 757 1635 c 128,-1,23
 831 1666 831 1666 906 1666 c 0,24,25
 1031 1666 1031 1666 1115.5 1586.5 c 128,-1,26
 1200 1507 1200 1507 1200 1372 c 0,27,28
 1200 1306 1200 1306 1181 1248 c 128,-1,29
 1162 1190 1162 1190 1131.5 1149 c 128,-1,30
 1101 1108 1101 1108 1063.5 1072.5 c 128,-1,31
 1026 1037 1026 1037 989 1008.5 c 128,-1,32
 952 980 952 980 921.5 953.5 c 128,-1,33
 891 927 891 927 872 898 c 128,-1,34
 853 869 853 869 853 839 c 0,35,36
 853 804 853 804 878 767.5 c 128,-1,37
 903 731 903 731 939 696 c 128,-1,38
 975 661 975 661 1011 623 c 128,-1,39
 1047 585 1047 585 1072 533 c 128,-1,40
 1097 481 1097 481 1097 425 c 0,41,42
 1097 371 1097 371 1076.5 310.5 c 128,-1,43
 1056 250 1056 250 1015.5 192 c 128,-1,44
 975 134 975 134 920 87 c 128,-1,45
 865 40 865 40 788.5 11.5 c 128,-1,46
 712 -17 712 -17 628 -17 c 0,47,48
 461 -17 461 -17 361 92 c 1,49,-1
 427 132 l 1,50,51
 504 54 504 54 622 54 c 0,52,53
 688 54 688 54 749 77.5 c 128,-1,54
 810 101 810 101 855 139 c 128,-1,55
 900 177 900 177 934 223.5 c 128,-1,56
 968 270 968 270 985.5 318.5 c 128,-1,57
 1003 367 1003 367 1003 410 c 0,58,59
 1003 458 1003 458 978 502.5 c 128,-1,60
 953 547 953 547 917 582.5 c 128,-1,61
 881 618 881 618 845 653 c 128,-1,62
 809 688 809 688 784 732 c 128,-1,63
 759 776 759 776 759 824 c 0,0,1
EndSplineSet
EndChar

StartChar: logicalnot
Encoding: 172 172 145
Width: 1393
VWidth: 2982
Flags: W
HStem: 822 90<316 1359>
DStem2: 1260 359 1350 359 0.207912 0.978148<18.7121 473.466>
LayerCount: 3
Fore
SplineSet
1468 912 m 1
 1350 359 l 1
 1260 359 l 1
 1359 822 l 1
 297 822 l 1
 316 912 l 1
 1468 912 l 1
EndSplineSet
Validated: 1
Layer: 2
SplineSet
1468 912 m 1,0,-1
 1350 359 l 1,1,-1
 1260 359 l 1,2,-1
 1359 822 l 1,3,-1
 297 822 l 1,4,-1
 316 912 l 1,5,-1
 1468 912 l 1,0,-1
EndSplineSet
EndChar

StartChar: trademark
Encoding: 8482 8482 146
Width: 1713
VWidth: 2982
Flags: W
HStem: 1414 79<461 656 734 944> 1491 20G<1159.77 1173.26>
VStem: 1654 76<745 1262> 1666 80<824.144 1262>
DStem2: 511.387 728 587.387 728 0.207912 0.978148<33.1811 701.076> 855 750 936 750 0.380383 0.924829<30.811 587.359> 1168 1511 1147 1265 0.254179 -0.967157<232.583 625.545> 1327 906 1285 728 0.572545 0.819873<0 485.968>
LayerCount: 3
Fore
SplineSet
963 1493 m 1x80
 944 1414 l 1
 734 1414 l 1
 591 745 l 1
 515 745 l 1
 656 1414 l 1
 444 1414 l 1
 461 1493 l 1
 963 1493 l 1x80
1666 1262 m 1x50
 1285 728 l 1
 1147 1265 l 1
 936 750 l 1
 855 750 l 1
 1168 1511 l 1
 1327 906 l 1
 1746 1506 l 1x50
 1730 745 l 1
 1654 745 l 1x60
 1666 1262 l 1x50
EndSplineSet
Validated: 1
Layer: 2
SplineSet
963 1493 m 1,0,-1
 944 1414 l 1,1,-1
 734 1414 l 1,2,-1
 591 745 l 1,3,-1
 515 745 l 1,4,-1
 656 1414 l 1,5,-1
 444 1414 l 1,6,-1
 461 1493 l 1,7,-1
 963 1493 l 1,0,-1
1666 1262 m 1,8,-1
 1285 728 l 1,9,-1
 1147 1265 l 1,10,-1
 936 750 l 1,11,-1
 855 750 l 1,12,-1
 1168 1511 l 1,13,-1
 1327 906 l 1,14,-1
 1746 1506 l 1,15,-1
 1730 745 l 1,16,-1
 1654 745 l 1,17,-1
 1666 1262 l 1,8,-1
EndSplineSet
EndChar

StartChar: Eth
Encoding: 208 208 147
Width: 1346
VWidth: 2982
Flags: W
HStem: 0 90<275 737.425> 701 89<177 316 425 848> 1403 90<555 993.27>
VStem: 1312 91<650.962 1101.59>
DStem2: 168 0 255.87 0 0.207912 0.978148<110.28 716.452 826.17 1452.8>
LayerCount: 3
Fore
SplineSet
487 90 m 2
 906 90 1312 461 1312 884 c 0
 1312 1186 1090 1403 767 1403 c 2
 555 1403 l 1
 425 790 l 1
 867 790 l 1
 848 701 l 1
 406 701 l 1
 275 90 l 1
 487 90 l 2
1403 904 m 0
 1403 440 963 0 468 0 c 2
 168 0 l 1
 316 701 l 1
 158 701 l 1
 177 790 l 1
 336 790 l 1
 483 1493 l 1
 786 1493 l 2
 1151 1493 1403 1245 1403 904 c 0
EndSplineSet
Validated: 1
Layer: 2
SplineSet
487 90 m 2,0,1
 641 90 641 90 792 155 c 128,-1,2
 943 220 943 220 1057 327.5 c 128,-1,3
 1171 435 1171 435 1241.5 582 c 128,-1,4
 1312 729 1312 729 1312 884 c 0,5,6
 1312 1111 1312 1111 1160 1257 c 128,-1,7
 1008 1403 1008 1403 767 1403 c 2,8,-1
 555 1403 l 1,9,-1
 425 790 l 1,10,-1
 867 790 l 1,11,-1
 848 701 l 1,12,-1
 406 701 l 1,13,-1
 275 90 l 1,14,-1
 487 90 l 2,0,1
1403 904 m 0,15,16
 1403 733 1403 733 1326 567.5 c 128,-1,17
 1249 402 1249 402 1122 277.5 c 128,-1,18
 995 153 995 153 822 76.5 c 128,-1,19
 649 0 649 0 468 0 c 2,20,-1
 168 0 l 1,21,-1
 316 701 l 1,22,-1
 158 701 l 1,23,-1
 177 790 l 1,24,-1
 336 790 l 1,25,-1
 483 1493 l 1,26,-1
 786 1493 l 2,27,28
 1058 1493 1058 1493 1230.5 1327 c 128,-1,29
 1403 1161 1403 1161 1403 904 c 0,15,16
EndSplineSet
EndChar

StartChar: onehalf
Encoding: 189 189 148
Width: 1848
VWidth: 2982
Flags: W
HStem: 0 90<1191 1690> 920 90<1478.67 1714.98> 1473 20G<680.322 709.768 1628.57 1760>
VStem: 1262 90<683 786.1> 1768 99<608.833 864.434>
DStem2: 271 0 383 0 0.677973 0.735087<75.933 2030.38> 304.871 0 394.871 0 0.207912 0.978148<533.972 1366.86> 421 1332 455 1256 0.859814 0.510607<0 147.002>
LayerCount: 3
Fore
SplineSet
1867 759 m 0
 1867 389 1305 349 1191 90 c 1
 1708 90 l 1
 1690 0 l 1
 1072 0 l 1
 1081 43 l 1
 1160 410 1768 425 1768 737 c 0
 1768 844 1701 920 1607 920 c 0
 1497 920 1379 818 1352 683 c 1
 1262 683 l 1
 1298 859 1461 1010 1630 1010 c 0
 1771 1010 1867 900 1867 759 c 0
1647 1493 m 1
 1760 1493 l 1
 383 0 l 1
 271 0 l 1
 1647 1493 l 1
412 504 m 1
 589 1337 l 1
 455 1256 l 1
 421 1332 l 1
 714 1506 l 1
 502 504 l 1
 412 504 l 1
EndSplineSet
Validated: 1
Layer: 2
SplineSet
1867 759 m 0,0,1
 1867 684 1867 684 1836 620 c 128,-1,2
 1805 556 1805 556 1753 509.5 c 128,-1,3
 1701 463 1701 463 1637 422.5 c 128,-1,4
 1573 382 1573 382 1504.5 345 c 128,-1,5
 1436 308 1436 308 1375 271.5 c 128,-1,6
 1314 235 1314 235 1264 188.5 c 128,-1,7
 1214 142 1214 142 1191 90 c 1,8,-1
 1708 90 l 1,9,-1
 1690 0 l 1,10,-1
 1072 0 l 1,11,-1
 1081 43 l 2,12,13
 1097 117 1097 117 1143.5 180 c 128,-1,14
 1190 243 1190 243 1251.5 287 c 128,-1,15
 1313 331 1313 331 1384 371 c 128,-1,16
 1455 411 1455 411 1522.5 449 c 128,-1,17
 1590 487 1590 487 1645.5 527 c 128,-1,18
 1701 567 1701 567 1734.5 620.5 c 128,-1,19
 1768 674 1768 674 1768 737 c 0,20,21
 1768 817 1768 817 1723 868.5 c 128,-1,22
 1678 920 1678 920 1607 920 c 0,23,24
 1523 920 1523 920 1447.5 851.5 c 128,-1,25
 1372 783 1372 783 1352 683 c 1,26,-1
 1262 683 l 1,27,28
 1289 816 1289 816 1396.5 913 c 128,-1,29
 1504 1010 1504 1010 1630 1010 c 0,30,31
 1734 1010 1734 1010 1800.5 938 c 128,-1,32
 1867 866 1867 866 1867 759 c 0,0,1
1647 1493 m 1,33,-1
 1760 1493 l 1,34,-1
 383 0 l 1,35,-1
 271 0 l 1,36,-1
 1647 1493 l 1,33,-1
412 504 m 1,37,-1
 589 1337 l 1,38,-1
 455 1256 l 1,39,-1
 421 1332 l 1,40,-1
 714 1506 l 1,41,-1
 502 504 l 1,42,-1
 412 504 l 1,37,-1
EndSplineSet
LCarets2: 2 0 0
Ligature2: "'frac' Diagonal Fractions in Latin lookup 42" one fraction two
Ligature2: "'frac' Diagonal Fractions in Latin lookup 42" one slash two
EndChar

StartChar: plusminus
Encoding: 177 177 149
Width: 1036
VWidth: 2982
Flags: W
HStem: 0 90<141 916> 701 89<291 624 732 1066>
DStem2: 474.818 0 563.818 0 0.207912 0.978148<375.301 716.698 826.208 1169.56>
LayerCount: 3
Fore
SplineSet
936 90 m 1
 916 0 l 1
 124 0 l 1
 141 90 l 1
 936 90 l 1
638 349 m 1
 549 349 l 1
 624 701 l 1
 271 701 l 1
 291 790 l 1
 643 790 l 1
 718 1144 l 1
 808 1144 l 1
 732 790 l 1
 1083 790 l 1
 1066 701 l 1
 714 701 l 1
 638 349 l 1
EndSplineSet
Validated: 1
Layer: 2
SplineSet
936 90 m 1,0,-1
 916 0 l 1,1,-1
 124 0 l 1,2,-1
 141 90 l 1,3,-1
 936 90 l 1,0,-1
638 349 m 1,4,-1
 549 349 l 1,5,-1
 624 701 l 1,6,-1
 271 701 l 1,7,-1
 291 790 l 1,8,-1
 643 790 l 1,9,-1
 718 1144 l 1,10,-1
 808 1144 l 1,11,-1
 732 790 l 1,12,-1
 1083 790 l 1,13,-1
 1066 701 l 1,14,-1
 714 701 l 1,15,-1
 638 349 l 1,4,-1
EndSplineSet
EndChar

StartChar: Thorn
Encoding: 222 222 150
Width: 1134
VWidth: 2982
Flags: W
HStem: 0 21G<168 262.144> 316 94<348.591 799.43> 1083 88<504.174 926.577> 1473 20G<478.78 573>
VStem: 1088 94<650.039 948.741>
DStem2: 168 0 258 0 0.207912 0.978148<18.7121 361.385 454.677 1124.21 1197.25 1525.87>
LayerCount: 3
Fore
SplineSet
538 410 m 0
 949 410 1088 651 1088 812 c 0
 1088 985 931 1083 681 1083 c 0
 622 1083 555 1077 483 1066 c 1
 346 427 l 1
 414 414 477 410 538 410 c 0
1182 828 m 0
 1182 602 983 316 517 316 c 0
 455 316 391 322 327 333 c 1
 258 0 l 1
 168 0 l 1
 483 1493 l 1
 573 1493 l 1
 502 1153 l 1
 571 1164 636 1171 698 1171 c 0
 1006 1171 1182 1038 1182 828 c 0
EndSplineSet
Validated: 1
Layer: 2
SplineSet
538 410 m 0,0,1
 656 410 656 410 752.5 436.5 c 128,-1,2
 849 463 849 463 910 505 c 128,-1,3
 971 547 971 547 1012.5 601 c 128,-1,4
 1054 655 1054 655 1071 708 c 128,-1,5
 1088 761 1088 761 1088 812 c 0,6,7
 1088 941 1088 941 979 1012 c 128,-1,8
 870 1083 870 1083 681 1083 c 0,9,10
 594 1083 594 1083 483 1066 c 1,11,-1
 346 427 l 1,12,13
 435 410 435 410 538 410 c 0,0,1
1182 828 m 0,14,15
 1182 758 1182 758 1158 688 c 128,-1,16
 1134 618 1134 618 1081.5 550.5 c 128,-1,17
 1029 483 1029 483 953 431 c 128,-1,18
 877 379 877 379 764.5 347.5 c 128,-1,19
 652 316 652 316 517 316 c 0,20,21
 426 316 426 316 327 333 c 1,22,-1
 258 0 l 1,23,-1
 168 0 l 1,24,-1
 483 1493 l 1,25,-1
 573 1493 l 1,26,-1
 502 1153 l 1,27,28
 615 1171 615 1171 698 1171 c 0,29,30
 927 1171 927 1171 1054.5 1079 c 128,-1,31
 1182 987 1182 987 1182 828 c 0,14,15
EndSplineSet
EndChar

StartChar: onequarter
Encoding: 188 188 151
Width: 1848
VWidth: 2982
Flags: W
HStem: 0 21G<365 492.459 1471 1564.47> 161 91<1139 1506 1612 1706> 1003 20G<1755.58 1770.77> 1473 20G<680.322 709.768 1722.57 1852>
DStem2: 304.871 0 394.871 0 0.207912 0.978148<533.972 1366.86> 365 0 474 0 0.678239 0.734841<73.9281 2030.38> 421 1332 455 1256 0.859814 0.510607<0 147.002> 938 161 1139 252 0.696627 0.717434<205.308 915.312> 1471 0 1560 0 0.207912 0.978148<18.5041 164.759 275.809 778.26>
LayerCount: 3
Fore
SplineSet
1741 1493 m 1
 1852 1493 l 1
 474 0 l 1
 365 0 l 1
 1741 1493 l 1
1525 252 m 1
 1634 761 l 1
 1139 252 l 1
 1525 252 l 1
412 504 m 1
 589 1337 l 1
 455 1256 l 1
 421 1332 l 1
 714 1506 l 1
 502 504 l 1
 412 504 l 1
1506 161 m 1
 938 161 l 1
 1775 1023 l 1
 1612 252 l 1
 1755 252 l 1
 1706 161 l 1
 1596 161 l 1
 1560 0 l 1
 1471 0 l 1
 1506 161 l 1
EndSplineSet
Validated: 1
Layer: 2
SplineSet
1741 1493 m 1,0,-1
 1852 1493 l 1,1,-1
 474 0 l 1,2,-1
 365 0 l 1,3,-1
 1741 1493 l 1,0,-1
1525 252 m 1,4,-1
 1634 761 l 1,5,-1
 1139 252 l 1,6,-1
 1525 252 l 1,4,-1
412 504 m 1,7,-1
 589 1337 l 1,8,-1
 455 1256 l 1,9,-1
 421 1332 l 1,10,-1
 714 1506 l 1,11,-1
 502 504 l 1,12,-1
 412 504 l 1,7,-1
1506 161 m 1,13,-1
 938 161 l 1,14,-1
 1775 1023 l 1,15,-1
 1612 252 l 1,16,-1
 1755 252 l 1,17,-1
 1706 161 l 1,18,-1
 1596 161 l 1,19,-1
 1560 0 l 1,20,-1
 1471 0 l 1,21,-1
 1506 161 l 1,13,-1
EndSplineSet
LCarets2: 2 0 0
Ligature2: "'frac' Diagonal Fractions in Latin lookup 42" one fraction four
Ligature2: "'frac' Diagonal Fractions in Latin lookup 42" one slash four
EndChar

StartChar: divide
Encoding: 247 247 152
Width: 1078
VWidth: 2982
Flags: W
HStem: 385 168<575.033 706.529> 701 89<312 1085> 940 168<691 824.823>
VStem: 553 173<405.526 530.715> 671 173<959.706 1086.43>
LayerCount: 3
Fore
SplineSet
553 453 m 0xf0
 553 500 604 553 658 553 c 0
 698 553 726 521 726 483 c 0
 726 425 667 385 622 385 c 0
 581 385 553 414 553 453 c 0xf0
671 1008 m 0xe8
 671 1066 730 1108 775 1108 c 0
 814 1108 844 1077 844 1038 c 0
 844 980 786 940 741 940 c 0
 701 940 671 969 671 1008 c 0xe8
1106 790 m 1
 1085 701 l 1
 293 701 l 1
 312 790 l 1
 1106 790 l 1
EndSplineSet
Validated: 1
Layer: 2
SplineSet
553 453 m 0,0,1
 553 489 553 489 585.5 521 c 128,-1,2
 618 553 618 553 658 553 c 0,3,4
 687 553 687 553 706.5 532.5 c 128,-1,5
 726 512 726 512 726 483 c 0,6,7
 726 442 726 442 692.5 413.5 c 128,-1,8
 659 385 659 385 622 385 c 0,9,10
 592 385 592 385 572.5 404.5 c 128,-1,11
 553 424 553 424 553 453 c 0,0,1
671 1008 m 0,12,13
 671 1049 671 1049 705 1078.5 c 128,-1,14
 739 1108 739 1108 775 1108 c 0,15,16
 804 1108 804 1108 824 1087.5 c 128,-1,17
 844 1067 844 1067 844 1038 c 0,18,19
 844 997 844 997 811 968.5 c 128,-1,20
 778 940 778 940 741 940 c 0,21,22
 711 940 711 940 691 959.5 c 128,-1,23
 671 979 671 979 671 1008 c 0,12,13
1106 790 m 1,24,-1
 1085 701 l 1,25,-1
 293 701 l 1,26,-1
 312 790 l 1,27,-1
 1106 790 l 1,24,-1
EndSplineSet
EndChar

StartChar: brokenbar
Encoding: 166 166 153
Width: 422
VWidth: 2982
Flags: W
HStem: -508 21G<58 152.273>
VStem: 58 521
DStem2: 58 -508 148 -508 0.207912 0.978148<18.7121 823.378 1270.44 2076.64>
LayerCount: 3
Fore
SplineSet
410 716 m 1
 320 716 l 1
 491 1523 l 1
 579 1523 l 1
 410 716 l 1
148 -508 m 1
 58 -508 l 1
 231 297 l 1
 320 297 l 1
 148 -508 l 1
EndSplineSet
Validated: 1
Layer: 2
SplineSet
410 716 m 1,0,-1
 320 716 l 1,1,-1
 491 1523 l 1,2,-1
 579 1523 l 1,3,-1
 410 716 l 1,0,-1
148 -508 m 1,4,-1
 58 -508 l 1,5,-1
 231 297 l 1,6,-1
 320 297 l 1,7,-1
 148 -508 l 1,4,-1
EndSplineSet
EndChar

StartChar: degree
Encoding: 176 176 154
Width: 749
VWidth: 2982
Flags: W
HStem: 1211 94<553.692 771.432> 1627 92<601.28 822.586>
VStem: 427 97<1334.25 1549.68> 853 94<1384.7 1596.09>
LayerCount: 3
Fore
SplineSet
427 1410 m 0
 427 1565 575 1719 741 1719 c 0
 865 1719 947 1634 947 1520 c 0
 947 1374 808 1211 634 1211 c 0
 510 1211 427 1296 427 1410 c 0
720 1627 m 0
 626 1627 524 1540 524 1433 c 0
 524 1359 575 1305 654 1305 c 0
 754 1305 853 1397 853 1502 c 0
 853 1574 799 1627 720 1627 c 0
EndSplineSet
Validated: 1
Layer: 2
SplineSet
427 1410 m 0,0,1
 427 1528 427 1528 522.5 1623.5 c 128,-1,2
 618 1719 618 1719 741 1719 c 0,3,4
 833 1719 833 1719 890 1663 c 128,-1,5
 947 1607 947 1607 947 1520 c 0,6,7
 947 1406 947 1406 853.5 1308.5 c 128,-1,8
 760 1211 760 1211 634 1211 c 0,9,10
 542 1211 542 1211 484.5 1267.5 c 128,-1,11
 427 1324 427 1324 427 1410 c 0,0,1
720 1627 m 0,12,13
 647 1627 647 1627 585.5 1569 c 128,-1,14
 524 1511 524 1511 524 1433 c 0,15,16
 524 1377 524 1377 559.5 1341 c 128,-1,17
 595 1305 595 1305 654 1305 c 0,18,19
 730 1305 730 1305 791.5 1364.5 c 128,-1,20
 853 1424 853 1424 853 1502 c 0,21,22
 853 1556 853 1556 816 1591.5 c 128,-1,23
 779 1627 779 1627 720 1627 c 0,12,13
EndSplineSet
EndChar

StartChar: thorn
Encoding: 254 254 155
Width: 1232
VWidth: 2982
Flags: W
HStem: -508 21G<58 152.272> -15 94<495.365 826.371> 942 88<662.117 993.589> 1473 20G<478.752 573>
VStem: 1139 94<408.575 793.304>
DStem2: 58 -508 148 -508 0.207912 0.978148<18.7121 741.657 958.535 1273.54 1370.45 2045.64>
LayerCount: 3
Fore
SplineSet
1233 624 m 0
 1233 312 953 -15 636 -15 c 0
 477 -15 359 72 299 199 c 1
 148 -508 l 1
 58 -508 l 1
 483 1493 l 1
 573 1493 l 1
 430 814 l 1
 544 942 698 1030 857 1030 c 0
 1085 1030 1233 853 1233 624 c 0
651 79 m 0
 895 79 1139 333 1139 611 c 0
 1139 803 1016 942 837 942 c 0
 640 942 434 771 372 544 c 1
 359 477 l 2
 354 453 354 430 354 408 c 0
 354 218 474 79 651 79 c 0
EndSplineSet
Validated: 1
Layer: 2
SplineSet
1233 624 m 0,0,1
 1233 470 1233 470 1151 322 c 128,-1,2
 1069 174 1069 174 929.5 79.5 c 128,-1,3
 790 -15 790 -15 636 -15 c 0,4,5
 520 -15 520 -15 433 42.5 c 128,-1,6
 346 100 346 100 299 199 c 1,7,-1
 148 -508 l 1,8,-1
 58 -508 l 1,9,-1
 483 1493 l 1,10,-1
 573 1493 l 1,11,-1
 430 814 l 1,12,13
 519 913 519 913 630 971.5 c 128,-1,14
 741 1030 741 1030 857 1030 c 0,15,16
 1025 1030 1025 1030 1129 914.5 c 128,-1,17
 1233 799 1233 799 1233 624 c 0,0,1
651 79 m 0,18,19
 741 79 741 79 830 123.5 c 128,-1,20
 919 168 919 168 987 240.5 c 128,-1,21
 1055 313 1055 313 1097 411 c 128,-1,22
 1139 509 1139 509 1139 611 c 0,23,24
 1139 756 1139 756 1055 849 c 128,-1,25
 971 942 971 942 837 942 c 0,26,27
 688 942 688 942 553 827.5 c 128,-1,28
 418 713 418 713 372 544 c 1,29,-1
 359 477 l 2,30,31
 354 453 354 453 354 408 c 0,32,33
 354 264 354 264 436.5 171.5 c 128,-1,34
 519 79 519 79 651 79 c 0,18,19
EndSplineSet
EndChar

StartChar: threequarters
Encoding: 190 190 156
Width: 1848
VWidth: 2982
Flags: W
HStem: 0 21G<483 611.446 1531 1625.39> 164 88<1200 1567 1672 1766> 485 88<419.117 681.723> 1007 20G<1815.6 1830.79> 1027 90<658 761.821> 1417 89<602.175 823.928>
VStem: 269 92<629.04 799> 438 90<1260 1343.87> 822 86<714.188 965.92> 853 85<1185.52 1386.16>
DStem2: 483 0 593 0 0.677973 0.735087<74.5771 2031.05> 998 164 1200 252 0.696211 0.717837<203.804 911.719> 1531 0 1621 0 0.207912 0.978148<18.7121 167.901 275.809 777.844>
LayerCount: 3
Fore
SplineSet
908 861 m 0xef80
 908 673 720 485 521 485 c 0
 372 485 269 591 269 732 c 0
 269 754 271 777 275 799 c 1
 365 799 l 1
 361 784 361 765 361 750 c 0
 361 649 432 573 542 573 c 0
 696 573 822 716 822 846 c 0xef80
 822 949 748 1027 638 1027 c 1
 658 1117 l 1
 756 1117 853 1188 853 1292 c 0
 853 1363 801 1417 724 1417 c 0
 634 1417 546 1345 528 1260 c 1
 438 1260 l 1
 468 1397 600 1506 739 1506 c 0
 857 1506 938 1424 938 1312 c 0xef40
 938 1215 882 1124 797 1072 c 1
 867 1027 908 951 908 861 c 0xef80
1860 1493 m 1
 1970 1493 l 1
 593 0 l 1
 483 0 l 1
 1860 1493 l 1
1585 252 m 1
 1692 761 l 1
 1200 252 l 1
 1585 252 l 1
1567 164 m 1
 998 164 l 1
 1835 1027 l 1
 1672 252 l 1
 1815 252 l 1
 1766 164 l 1
 1657 164 l 1
 1621 0 l 1
 1531 0 l 1
 1567 164 l 1
EndSplineSet
Validated: 1
Layer: 2
SplineSet
908 861 m 0,0,1
 908 769 908 769 853.5 681.5 c 128,-1,2
 799 594 799 594 708.5 539.5 c 128,-1,3
 618 485 618 485 521 485 c 0,4,5
 410 485 410 485 339.5 555 c 128,-1,6
 269 625 269 625 269 732 c 0,7,8
 269 766 269 766 275 799 c 1,9,-1
 365 799 l 1,10,11
 361 784 361 784 361 750 c 0,12,13
 361 673 361 673 411 623 c 128,-1,14
 461 573 461 573 542 573 c 0,15,16
 654 573 654 573 738 659 c 128,-1,17
 822 745 822 745 822 846 c 0,18,19
 822 924 822 924 771 975.5 c 128,-1,20
 720 1027 720 1027 638 1027 c 1,21,-1
 658 1117 l 1,22,23
 735 1117 735 1117 794 1167 c 128,-1,24
 853 1217 853 1217 853 1292 c 0,25,26
 853 1346 853 1346 817 1381.5 c 128,-1,27
 781 1417 781 1417 724 1417 c 0,28,29
 657 1417 657 1417 599.5 1370.5 c 128,-1,30
 542 1324 542 1324 528 1260 c 1,31,-1
 438 1260 l 1,32,33
 461 1363 461 1363 548 1434.5 c 128,-1,34
 635 1506 635 1506 739 1506 c 0,35,36
 827 1506 827 1506 882.5 1451.5 c 128,-1,37
 938 1397 938 1397 938 1312 c 0,38,39
 938 1240 938 1240 899.5 1175.5 c 128,-1,40
 861 1111 861 1111 797 1072 c 1,41,42
 850 1038 850 1038 879 983 c 128,-1,43
 908 928 908 928 908 861 c 0,0,1
1860 1493 m 1,44,-1
 1970 1493 l 1,45,-1
 593 0 l 1,46,-1
 483 0 l 1,47,-1
 1860 1493 l 1,44,-1
1585 252 m 1,48,-1
 1692 761 l 1,49,-1
 1200 252 l 1,50,-1
 1585 252 l 1,48,-1
1567 164 m 1,51,-1
 998 164 l 1,52,-1
 1835 1027 l 1,53,-1
 1672 252 l 1,54,-1
 1815 252 l 1,55,-1
 1766 164 l 1,56,-1
 1657 164 l 1,57,-1
 1621 0 l 1,58,-1
 1531 0 l 1,59,-1
 1567 164 l 1,51,-1
EndSplineSet
LCarets2: 2 0 0
Ligature2: "'frac' Diagonal Fractions in Latin lookup 42" three fraction four
Ligature2: "'frac' Diagonal Fractions in Latin lookup 42" three slash four
EndChar

StartChar: registered
Encoding: 174 174 157
Width: 1758
VWidth: 2982
Flags: W
HStem: -15 89<673.47 1125.93> 692 89<891 1061> 1090 89<955 1260.85> 1417 89<941.713 1404.79>
VStem: 265 91<384.582 840.891> 1288 89<853.662 1063.01> 1724 91<649.325 1105.75>
DStem2: 633.069 -15 722.069 -15 0.207912 0.978148<354.854 741.435 832.232 1147.79> 1160 705 1061 692 0.3155 -0.948926<0 379.233>
LayerCount: 3
Fore
SplineSet
1377 985 m 0
 1377 875 1292 743 1160 705 c 1
 1290 314 l 1
 1186 314 l 1
 1061 692 l 1
 873 692 l 1
 792 314 l 1
 703 314 l 1
 886 1179 l 1
 1188 1179 l 2
 1301 1179 1377 1094 1377 985 c 0
1182 1417 m 0
 759 1417 356 1027 356 602 c 0
 356 302 575 74 895 74 c 0
 1312 74 1724 457 1724 886 c 0
 1724 1191 1504 1417 1182 1417 c 0
265 585 m 0
 265 1061 718 1506 1200 1506 c 0
 1565 1506 1815 1249 1815 904 c 0
 1815 440 1370 -15 878 -15 c 0
 513 -15 265 242 265 585 c 0
1106 781 m 2
 1202 781 1288 878 1288 967 c 0
 1288 1038 1238 1090 1168 1090 c 2
 955 1090 l 1
 891 781 l 1
 1106 781 l 2
EndSplineSet
Validated: 1
Layer: 2
SplineSet
1377 985 m 0,0,1
 1377 898 1377 898 1316 815 c 128,-1,2
 1255 732 1255 732 1160 705 c 1,3,-1
 1290 314 l 1,4,-1
 1186 314 l 1,5,-1
 1061 692 l 1,6,-1
 873 692 l 1,7,-1
 792 314 l 1,8,-1
 703 314 l 1,9,-1
 886 1179 l 1,10,-1
 1188 1179 l 2,11,12
 1272 1179 1272 1179 1324.5 1123.5 c 128,-1,13
 1377 1068 1377 1068 1377 985 c 0,0,1
1182 1417 m 0,14,15
 1058 1417 1058 1417 934.5 1373.5 c 128,-1,16
 811 1330 811 1330 708 1252 c 128,-1,17
 605 1174 605 1174 525.5 1073 c 128,-1,18
 446 972 446 972 401 849.5 c 128,-1,19
 356 727 356 727 356 602 c 0,20,21
 356 453 356 453 423.5 333 c 128,-1,22
 491 213 491 213 614.5 143.5 c 128,-1,23
 738 74 738 74 895 74 c 0,24,25
 1049 74 1049 74 1200 141 c 128,-1,26
 1351 208 1351 208 1466 318 c 128,-1,27
 1581 428 1581 428 1652.5 578.5 c 128,-1,28
 1724 729 1724 729 1724 886 c 0,29,30
 1724 1037 1724 1037 1656.5 1158 c 128,-1,31
 1589 1279 1589 1279 1464.5 1348 c 128,-1,32
 1340 1417 1340 1417 1182 1417 c 0,14,15
265 585 m 0,33,34
 265 725 265 725 315.5 863 c 128,-1,35
 366 1001 366 1001 456 1115.5 c 128,-1,36
 546 1230 546 1230 662 1318.5 c 128,-1,37
 778 1407 778 1407 918 1456.5 c 128,-1,38
 1058 1506 1058 1506 1200 1506 c 0,39,40
 1379 1506 1379 1506 1520 1427.5 c 128,-1,41
 1661 1349 1661 1349 1738 1212 c 128,-1,42
 1815 1075 1815 1075 1815 904 c 0,43,44
 1815 767 1815 767 1765.5 630.5 c 128,-1,45
 1716 494 1716 494 1626.5 379.5 c 128,-1,46
 1537 265 1537 265 1421 175.5 c 128,-1,47
 1305 86 1305 86 1163.5 35.5 c 128,-1,48
 1022 -15 1022 -15 878 -15 c 0,49,50
 699 -15 699 -15 558.5 63.5 c 128,-1,51
 418 142 418 142 341.5 278.5 c 128,-1,52
 265 415 265 415 265 585 c 0,33,34
1106 781 m 2,53,54
 1177 781 1177 781 1232.5 840 c 128,-1,55
 1288 899 1288 899 1288 967 c 0,56,57
 1288 1020 1288 1020 1254 1055 c 128,-1,58
 1220 1090 1220 1090 1168 1090 c 2,59,-1
 955 1090 l 1,60,-1
 891 781 l 1,61,-1
 1106 781 l 2,53,54
EndSplineSet
EndChar

